<ttFont>
    <TTGlyph name="A" xMin="33" yMin="14" xMax="1226" yMax="1407">
      <contour>
        <pt x="916" y="621" on="1"/>
        <pt x="916" y="636" on="1"/>
        <pt x="916" y="698" on="0"/>
        <pt x="869" y="962" on="0"/>
        <pt x="853" y="1102" on="0"/>
        <pt x="834" y="1165" on="0"/>
        <pt x="831" y="1165" on="1"/>
        <pt x="828" y="1165" on="1"/>
        <pt x="826" y="1165" on="0"/>
        <pt x="519" y="627" on="0"/>
        <pt x="519" y="602" on="1"/>
        <pt x="519" y="589" on="0"/>
        <pt x="644" y="589" on="1"/>
        <pt x="839" y="589" on="1"/>
        <pt x="916" y="589" on="0"/>
      </contour>
      <contour>
        <pt x="890" y="1407" on="1"/>
        <pt x="978" y="1407" on="0"/>
        <pt x="1007" y="1292" on="1"/>
        <pt x="1021" y="1236" on="0"/>
        <pt x="1107" y="655" on="0"/>
        <pt x="1145" y="355" on="0"/>
        <pt x="1157" y="288" on="0"/>
        <pt x="1226" y="176" on="0"/>
        <pt x="1226" y="100" on="0"/>
        <pt x="1127" y="16" on="0"/>
        <pt x="1067" y="16" on="1"/>
        <pt x="940" y="16" on="0"/>
        <pt x="940" y="77" on="1"/>
        <pt x="940" y="90" on="0"/>
        <pt x="956" y="159" on="0"/>
        <pt x="956" y="218" on="1"/>
        <pt x="956" y="378" on="0"/>
        <pt x="901" y="426" on="1"/>
        <pt x="871" y="452" on="0"/>
        <pt x="486" y="452" on="0"/>
        <pt x="446" y="423" on="1"/>
        <pt x="383" y="377" on="0"/>
        <pt x="319" y="227" on="1"/>
        <pt x="299" y="181" on="0"/>
        <pt x="275" y="71" on="0"/>
        <pt x="262" y="53" on="1"/>
        <pt x="233" y="14" on="0"/>
        <pt x="156" y="14" on="1"/>
        <pt x="134" y="14" on="1"/>
        <pt x="95" y="14" on="0"/>
        <pt x="33" y="79" on="0"/>
        <pt x="33" y="100" on="1"/>
        <pt x="33" y="148" on="0"/>
        <pt x="79" y="199" on="1"/>
        <pt x="190" y="324" on="0"/>
        <pt x="611" y="1100" on="0"/>
        <pt x="751" y="1310" on="1"/>
        <pt x="816" y="1407" on="0"/>
      </contour>
    </TTGlyph>
    <TTGlyph name="AE" xMin="109" yMin="47" xMax="1805" yMax="1384">
      <contour>
        <pt x="875" y="609" on="1"/>
        <pt x="914" y="609" on="0"/>
        <pt x="914" y="657" on="1"/>
        <pt x="914" y="673" on="0"/>
        <pt x="998" y="1008" on="0"/>
        <pt x="1027" y="1085" on="0"/>
        <pt x="1067" y="1177" on="0"/>
        <pt x="1067" y="1186" on="1"/>
        <pt x="1067" y="1199" on="1"/>
        <pt x="1067" y="1230" on="0"/>
        <pt x="1052" y="1230" on="1"/>
        <pt x="1046" y="1230" on="1"/>
        <pt x="1026" y="1230" on="0"/>
        <pt x="929" y="1056" on="1"/>
        <pt x="906" y="1014" on="0"/>
        <pt x="862" y="901" on="0"/>
        <pt x="832" y="857" on="0"/>
        <pt x="629" y="674" on="0"/>
        <pt x="629" y="666" on="1"/>
        <pt x="629" y="655" on="1"/>
        <pt x="629" y="618" on="0"/>
        <pt x="765" y="618" on="1"/>
        <pt x="841" y="609" on="1"/>
      </contour>
      <contour>
        <pt x="1805" y="1293" on="1"/>
        <pt x="1805" y="1271" on="1"/>
        <pt x="1805" y="1228" on="0"/>
        <pt x="1752" y="1228" on="1"/>
        <pt x="1728" y="1228" on="0"/>
        <pt x="1546" y="1269" on="0"/>
        <pt x="1485" y="1269" on="1"/>
        <pt x="1370" y="1269" on="0"/>
        <pt x="1322" y="1204" on="1"/>
        <pt x="1244" y="1099" on="0"/>
        <pt x="1244" y="936" on="1"/>
        <pt x="1244" y="874" on="0"/>
        <pt x="1310" y="824" on="0"/>
        <pt x="1395" y="824" on="0"/>
        <pt x="1441" y="832" on="1"/>
        <pt x="1511" y="844" on="1"/>
        <pt x="1568" y="844" on="0"/>
        <pt x="1632" y="784" on="0"/>
        <pt x="1632" y="759" on="1"/>
        <pt x="1632" y="634" on="0"/>
        <pt x="1550" y="634" on="1"/>
        <pt x="1547" y="634" on="0"/>
        <pt x="1440" y="662" on="0"/>
        <pt x="1409" y="662" on="1"/>
        <pt x="1244" y="662" on="0"/>
        <pt x="1135" y="511" on="0"/>
        <pt x="1135" y="344" on="1"/>
        <pt x="1135" y="256" on="0"/>
        <pt x="1225" y="174" on="0"/>
        <pt x="1350" y="174" on="1"/>
        <pt x="1392" y="174" on="0"/>
        <pt x="1609" y="239" on="0"/>
        <pt x="1621" y="239" on="1"/>
        <pt x="1663" y="239" on="0"/>
        <pt x="1663" y="98" on="0"/>
        <pt x="1562" y="47" on="0"/>
        <pt x="1451" y="47" on="1"/>
        <pt x="1359" y="47" on="1"/>
        <pt x="979" y="47" on="0"/>
        <pt x="853" y="83" on="0"/>
        <pt x="853" y="151" on="1"/>
        <pt x="860" y="181" on="1"/>
        <pt x="880" y="251" on="1"/>
        <pt x="902" y="335" on="0"/>
        <pt x="902" y="369" on="1"/>
        <pt x="902" y="456" on="0"/>
        <pt x="851" y="478" on="1"/>
        <pt x="826" y="489" on="0"/>
        <pt x="606" y="489" on="0"/>
        <pt x="530" y="427" on="1"/>
        <pt x="480" y="386" on="0"/>
        <pt x="299" y="87" on="1"/>
        <pt x="280" y="56" on="0"/>
        <pt x="188" y="56" on="0"/>
        <pt x="109" y="113" on="0"/>
        <pt x="109" y="186" on="0"/>
        <pt x="236" y="309" on="0"/>
        <pt x="732" y="998" on="0"/>
        <pt x="873" y="1180" on="0"/>
        <pt x="932" y="1293" on="0"/>
        <pt x="946" y="1309" on="1"/>
        <pt x="985" y="1355" on="0"/>
        <pt x="1060" y="1366" on="1"/>
        <pt x="1093" y="1371" on="0"/>
        <pt x="1237" y="1371" on="1"/>
        <pt x="1654" y="1384" on="1"/>
        <pt x="1720" y="1384" on="0"/>
        <pt x="1805" y="1339" on="0"/>
      </contour>
    </TTGlyph>
    <TTGlyph name="Aacute" xMin="104" yMin="116" xMax="1257" yMax="1843">
      <contour>
        <pt x="918" y="656" on="1"/>
        <pt x="918" y="670" on="1"/>
        <pt x="917" y="678" on="1"/>
        <pt x="917" y="753" on="0"/>
        <pt x="870" y="1018" on="0"/>
        <pt x="856" y="1138" on="0"/>
        <pt x="835" y="1205" on="0"/>
        <pt x="831" y="1205" on="1"/>
        <pt x="822" y="1205" on="0"/>
        <pt x="700" y="975" on="0"/>
        <pt x="515" y="667" on="0"/>
        <pt x="515" y="641" on="1"/>
        <pt x="515" y="627" on="0"/>
        <pt x="709" y="627" on="1"/>
        <pt x="734" y="626" on="1"/>
        <pt x="751" y="626" on="1"/>
        <pt x="918" y="626" on="0"/>
      </contour>
      <contour>
        <pt x="774" y="1479" on="1"/>
        <pt x="767" y="1479" on="1"/>
        <pt x="753" y="1479" on="0"/>
        <pt x="753" y="1497" on="1"/>
        <pt x="753" y="1502" on="1"/>
        <pt x="753" y="1566" on="0"/>
        <pt x="960" y="1752" on="1"/>
        <pt x="1061" y="1843" on="0"/>
        <pt x="1191" y="1843" on="0"/>
        <pt x="1191" y="1795" on="1"/>
        <pt x="1191" y="1716" on="0"/>
        <pt x="1002" y="1578" on="0"/>
        <pt x="787" y="1479" on="0"/>
      </contour>
      <contour>
        <pt x="856" y="1460" on="0"/>
        <pt x="978" y="1460" on="0"/>
        <pt x="1041" y="1226" on="0"/>
        <pt x="1149" y="654" on="0"/>
        <pt x="1178" y="424" on="0"/>
        <pt x="1194" y="361" on="0"/>
        <pt x="1257" y="270" on="0"/>
        <pt x="1257" y="188" on="0"/>
        <pt x="1208" y="155" on="1"/>
        <pt x="1160" y="122" on="0"/>
        <pt x="1100" y="122" on="1"/>
        <pt x="986" y="122" on="0"/>
        <pt x="985" y="197" on="1"/>
        <pt x="985" y="198" on="0"/>
        <pt x="997" y="260" on="0"/>
        <pt x="997" y="290" on="1"/>
        <pt x="997" y="446" on="0"/>
        <pt x="932" y="507" on="1"/>
        <pt x="901" y="536" on="0"/>
        <pt x="521" y="536" on="0"/>
        <pt x="481" y="497" on="1"/>
        <pt x="421" y="439" on="0"/>
        <pt x="358" y="304" on="1"/>
        <pt x="342" y="271" on="0"/>
        <pt x="321" y="162" on="0"/>
        <pt x="285" y="116" on="0"/>
        <pt x="229" y="116" on="1"/>
        <pt x="209" y="116" on="1"/>
        <pt x="171" y="116" on="0"/>
        <pt x="104" y="177" on="0"/>
        <pt x="104" y="247" on="0"/>
        <pt x="159" y="302" on="1"/>
        <pt x="238" y="381" on="0"/>
        <pt x="664" y="1182" on="0"/>
        <pt x="802" y="1382" on="1"/>
      </contour>
    </TTGlyph>
    <TTGlyph name="Acircumflex" xMin="29" yMin="32" xMax="1228" yMax="1859">
      <contour>
        <pt x="838" y="1193" on="0"/>
        <pt x="829" y="1193" on="0"/>
        <pt x="520" y="652" on="0"/>
        <pt x="520" y="631" on="1"/>
        <pt x="520" y="619" on="0"/>
        <pt x="654" y="619" on="1"/>
        <pt x="841" y="619" on="1"/>
        <pt x="923" y="619" on="0"/>
        <pt x="923" y="654" on="1"/>
        <pt x="923" y="662" on="1"/>
        <pt x="921" y="676" on="0"/>
        <pt x="921" y="685" on="1"/>
        <pt x="907" y="798" on="1"/>
        <pt x="901" y="839" on="1"/>
        <pt x="898" y="863" on="0"/>
        <pt x="892" y="898" on="0"/>
        <pt x="869" y="1089" on="0"/>
      </contour>
      <contour>
        <pt x="669" y="1545" on="1"/>
        <pt x="655" y="1545" on="1"/>
        <pt x="633" y="1545" on="0"/>
        <pt x="633" y="1582" on="0"/>
        <pt x="936" y="1859" on="0"/>
        <pt x="978" y="1859" on="1"/>
        <pt x="985" y="1859" on="1"/>
        <pt x="1024" y="1859" on="0"/>
        <pt x="1086" y="1770" on="1"/>
        <pt x="1205" y="1598" on="0"/>
        <pt x="1205" y="1548" on="0"/>
        <pt x="1119" y="1548" on="0"/>
        <pt x="962" y="1720" on="0"/>
        <pt x="947" y="1720" on="1"/>
        <pt x="944" y="1720" on="0"/>
        <pt x="888" y="1677" on="1"/>
        <pt x="716" y="1545" on="0"/>
      </contour>
      <contour>
        <pt x="891" y="1424" on="1"/>
        <pt x="913" y="1424" on="1"/>
        <pt x="978" y="1424" on="0"/>
        <pt x="1017" y="1254" on="1"/>
        <pt x="1033" y="1183" on="0"/>
        <pt x="1054" y="1039" on="1"/>
        <pt x="1068" y="927" on="1"/>
        <pt x="1074" y="877" on="0"/>
        <pt x="1103" y="702" on="0"/>
        <pt x="1116" y="598" on="1"/>
        <pt x="1123" y="542" on="1"/>
        <pt x="1129" y="487" on="1"/>
        <pt x="1136" y="432" on="1"/>
        <pt x="1143" y="368" on="0"/>
        <pt x="1156" y="293" on="0"/>
        <pt x="1228" y="172" on="0"/>
        <pt x="1228" y="157" on="1"/>
        <pt x="1228" y="137" on="1"/>
        <pt x="1228" y="100" on="0"/>
        <pt x="1121" y="33" on="0"/>
        <pt x="984" y="33" on="0"/>
        <pt x="951" y="65" on="1"/>
        <pt x="938" y="77" on="0"/>
        <pt x="938" y="110" on="0"/>
        <pt x="960" y="189" on="0"/>
        <pt x="960" y="227" on="1"/>
        <pt x="960" y="402" on="0"/>
        <pt x="896" y="454" on="1"/>
        <pt x="866" y="478" on="0"/>
        <pt x="485" y="478" on="0"/>
        <pt x="387" y="393" on="0"/>
        <pt x="295" y="213" on="0"/>
        <pt x="268" y="78" on="0"/>
        <pt x="261" y="68" on="1"/>
        <pt x="237" y="32" on="0"/>
        <pt x="158" y="32" on="1"/>
        <pt x="137" y="32" on="1"/>
        <pt x="104" y="32" on="0"/>
        <pt x="29" y="98" on="0"/>
        <pt x="29" y="116" on="1"/>
        <pt x="29" y="146" on="0"/>
        <pt x="757" y="1311" on="1"/>
        <pt x="828" y="1424" on="0"/>
      </contour>
    </TTGlyph>
    <TTGlyph name="Adieresis" xMin="48" yMin="54" xMax="1232" yMax="1801">
      <contour>
        <pt x="516" y="634" on="1"/>
        <pt x="516" y="620" on="0"/>
        <pt x="657" y="620" on="1"/>
        <pt x="843" y="620" on="1"/>
        <pt x="916" y="620" on="0"/>
        <pt x="916" y="649" on="1"/>
        <pt x="916" y="663" on="1"/>
        <pt x="915" y="671" on="1"/>
        <pt x="915" y="733" on="0"/>
        <pt x="878" y="943" on="1"/>
        <pt x="877" y="951" on="1"/>
        <pt x="871" y="985" on="1"/>
        <pt x="870" y="994" on="1"/>
        <pt x="869" y="1002" on="1"/>
        <pt x="866" y="1019" on="1"/>
        <pt x="845" y="1195" on="0"/>
        <pt x="828" y="1195" on="1"/>
        <pt x="823" y="1195" on="0"/>
        <pt x="773" y="1102" on="0"/>
        <pt x="743" y="1052" on="1"/>
        <pt x="516" y="674" on="0"/>
      </contour>
      <contour>
        <pt x="782" y="1801" on="1"/>
        <pt x="860" y="1801" on="0"/>
        <pt x="860" y="1738" on="1"/>
        <pt x="863" y="1722" on="1"/>
        <pt x="863" y="1701" on="1"/>
        <pt x="858" y="1681" on="0"/>
        <pt x="858" y="1659" on="0"/>
        <pt x="801" y="1587" on="0"/>
        <pt x="743" y="1587" on="1"/>
        <pt x="740" y="1587" on="1"/>
        <pt x="656" y="1587" on="0"/>
        <pt x="656" y="1647" on="1"/>
        <pt x="654" y="1653" on="0"/>
        <pt x="654" y="1657" on="1"/>
        <pt x="652" y="1673" on="1"/>
        <pt x="652" y="1680" on="1"/>
        <pt x="656" y="1708" on="1"/>
        <pt x="656" y="1737" on="0"/>
        <pt x="717" y="1798" on="0"/>
        <pt x="744" y="1798" on="1"/>
        <pt x="764" y="1801" on="1"/>
      </contour>
      <contour>
        <pt x="1097" y="1558" on="1"/>
        <pt x="1061" y="1558" on="1"/>
        <pt x="1042" y="1562" on="1"/>
        <pt x="996" y="1562" on="0"/>
        <pt x="996" y="1624" on="1"/>
        <pt x="993" y="1645" on="1"/>
        <pt x="993" y="1655" on="1"/>
        <pt x="993" y="1697" on="0"/>
        <pt x="1095" y="1782" on="0"/>
        <pt x="1139" y="1782" on="1"/>
        <pt x="1165" y="1782" on="1"/>
        <pt x="1171" y="1780" on="0"/>
        <pt x="1175" y="1780" on="1"/>
        <pt x="1219" y="1780" on="0"/>
        <pt x="1219" y="1723" on="1"/>
        <pt x="1219" y="1693" on="1"/>
        <pt x="1214" y="1657" on="1"/>
        <pt x="1214" y="1637" on="0"/>
        <pt x="1148" y="1558" on="0"/>
      </contour>
      <contour>
        <pt x="892" y="1432" on="1"/>
        <pt x="914" y="1432" on="1"/>
        <pt x="971" y="1432" on="0"/>
        <pt x="1008" y="1288" on="1"/>
        <pt x="1011" y="1277" on="0"/>
        <pt x="1112" y="670" on="0"/>
        <pt x="1150" y="373" on="0"/>
        <pt x="1161" y="309" on="0"/>
        <pt x="1232" y="195" on="0"/>
        <pt x="1232" y="127" on="0"/>
        <pt x="1196" y="100" on="1"/>
        <pt x="1135" y="55" on="0"/>
        <pt x="1075" y="55" on="1"/>
        <pt x="947" y="55" on="0"/>
        <pt x="947" y="129" on="1"/>
        <pt x="950" y="145" on="1"/>
        <pt x="966" y="217" on="0"/>
        <pt x="966" y="246" on="1"/>
        <pt x="966" y="415" on="0"/>
        <pt x="900" y="469" on="1"/>
        <pt x="870" y="493" on="0"/>
        <pt x="493" y="493" on="0"/>
        <pt x="450" y="456" on="1"/>
        <pt x="385" y="400" on="0"/>
        <pt x="322" y="259" on="1"/>
        <pt x="304" y="220" on="0"/>
        <pt x="277" y="99" on="0"/>
        <pt x="272" y="91" on="1"/>
        <pt x="248" y="54" on="0"/>
        <pt x="120" y="54" on="0"/>
        <pt x="48" y="119" on="0"/>
        <pt x="48" y="139" on="1"/>
        <pt x="48" y="187" on="0"/>
        <pt x="97" y="236" on="1"/>
        <pt x="185" y="324" on="0"/>
        <pt x="634" y="1140" on="0"/>
        <pt x="775" y="1344" on="1"/>
        <pt x="836" y="1432" on="0"/>
      </contour>
    </TTGlyph>
    <TTGlyph name="Agrave" xMin="31" yMin="41" xMax="1231" yMax="1867">
      <contour>
        <pt x="923" y="655" on="1"/>
        <pt x="923" y="669" on="1"/>
        <pt x="922" y="677" on="1"/>
        <pt x="922" y="732" on="0"/>
        <pt x="878" y="976" on="0"/>
        <pt x="876" y="995" on="1"/>
        <pt x="849" y="1203" on="0"/>
        <pt x="833" y="1203" on="1"/>
        <pt x="823" y="1203" on="0"/>
        <pt x="720" y="1009" on="0"/>
        <pt x="668" y="923" on="0"/>
        <pt x="522" y="648" on="0"/>
        <pt x="522" y="643" on="1"/>
        <pt x="522" y="627" on="0"/>
        <pt x="715" y="627" on="1"/>
        <pt x="782" y="626" on="1"/>
        <pt x="833" y="626" on="1"/>
        <pt x="923" y="626" on="0"/>
      </contour>
      <contour>
        <pt x="1000" y="1546" on="1"/>
        <pt x="986" y="1546" on="1"/>
        <pt x="938" y="1546" on="0"/>
        <pt x="877" y="1599" on="1"/>
        <pt x="666" y="1784" on="0"/>
        <pt x="666" y="1830" on="1"/>
        <pt x="667" y="1834" on="1"/>
        <pt x="667" y="1867" on="0"/>
        <pt x="726" y="1867" on="1"/>
        <pt x="750" y="1867" on="1"/>
        <pt x="807" y="1867" on="0"/>
        <pt x="852" y="1822" on="1"/>
        <pt x="1020" y="1654" on="0"/>
        <pt x="1020" y="1574" on="1"/>
        <pt x="1020" y="1570" on="1"/>
        <pt x="1020" y="1546" on="0"/>
      </contour>
      <contour>
        <pt x="893" y="1433" on="1"/>
        <pt x="915" y="1433" on="1"/>
        <pt x="977" y="1433" on="0"/>
        <pt x="1013" y="1289" on="1"/>
        <pt x="1032" y="1213" on="0"/>
        <pt x="1095" y="772" on="1"/>
        <pt x="1104" y="718" on="1"/>
        <pt x="1111" y="670" on="0"/>
        <pt x="1119" y="607" on="1"/>
        <pt x="1138" y="440" on="1"/>
        <pt x="1145" y="380" on="0"/>
        <pt x="1158" y="300" on="0"/>
        <pt x="1231" y="185" on="0"/>
        <pt x="1231" y="114" on="0"/>
        <pt x="1134" y="42" on="0"/>
        <pt x="1070" y="42" on="1"/>
        <pt x="941" y="42" on="0"/>
        <pt x="941" y="116" on="1"/>
        <pt x="941" y="117" on="1"/>
        <pt x="949" y="151" on="1"/>
        <pt x="962" y="192" on="0"/>
        <pt x="962" y="261" on="1"/>
        <pt x="962" y="413" on="0"/>
        <pt x="898" y="463" on="1"/>
        <pt x="868" y="487" on="0"/>
        <pt x="487" y="487" on="0"/>
        <pt x="391" y="403" on="0"/>
        <pt x="294" y="214" on="0"/>
        <pt x="272" y="90" on="0"/>
        <pt x="263" y="77" on="1"/>
        <pt x="237" y="41" on="0"/>
        <pt x="161" y="41" on="1"/>
        <pt x="139" y="41" on="1"/>
        <pt x="103" y="41" on="0"/>
        <pt x="31" y="107" on="0"/>
        <pt x="31" y="125" on="1"/>
        <pt x="31" y="175" on="0"/>
        <pt x="81" y="224" on="1"/>
        <pt x="179" y="320" on="0"/>
        <pt x="616" y="1112" on="0"/>
        <pt x="775" y="1343" on="1"/>
        <pt x="837" y="1433" on="0"/>
      </contour>
    </TTGlyph>
    <TTGlyph name="Aring" xMin="32" yMin="32" xMax="1241" yMax="1902">
      <contour>
        <pt x="927" y="1821" on="0"/>
        <pt x="894" y="1821" on="0"/>
        <pt x="837" y="1750" on="0"/>
        <pt x="837" y="1721" on="1"/>
        <pt x="837" y="1693" on="1"/>
        <pt x="837" y="1659" on="0"/>
        <pt x="887" y="1609" on="0"/>
        <pt x="917" y="1609" on="1"/>
        <pt x="938" y="1609" on="1"/>
        <pt x="971" y="1609" on="0"/>
        <pt x="1037" y="1675" on="0"/>
        <pt x="1037" y="1716" on="1"/>
        <pt x="1037" y="1740" on="1"/>
        <pt x="1034" y="1749" on="0"/>
        <pt x="1034" y="1780" on="0"/>
        <pt x="981" y="1822" on="0"/>
        <pt x="966" y="1822" on="1"/>
        <pt x="959" y="1824" on="1"/>
        <pt x="936" y="1824" on="1"/>
      </contour>
      <contour>
        <pt x="890" y="630" on="1"/>
        <pt x="932" y="630" on="0"/>
        <pt x="932" y="663" on="1"/>
        <pt x="932" y="670" on="1"/>
        <pt x="932" y="887" on="0"/>
        <pt x="849" y="1177" on="1"/>
        <pt x="842" y="1201" on="0"/>
        <pt x="828" y="1201" on="0"/>
        <pt x="756" y="1066" on="0"/>
        <pt x="666" y="906" on="0"/>
        <pt x="527" y="645" on="0"/>
        <pt x="527" y="627" on="0"/>
        <pt x="715" y="627" on="1"/>
        <pt x="740" y="626" on="1"/>
        <pt x="816" y="626" on="1"/>
        <pt x="825" y="627" on="1"/>
        <pt x="874" y="629" on="1"/>
        <pt x="882" y="630" on="0"/>
      </contour>
      <contour>
        <pt x="746" y="1683" on="1"/>
        <pt x="746" y="1714" on="1"/>
        <pt x="748" y="1726" on="0"/>
        <pt x="748" y="1732" on="1"/>
        <pt x="748" y="1789" on="0"/>
        <pt x="873" y="1900" on="0"/>
        <pt x="926" y="1900" on="1"/>
        <pt x="938" y="1902" on="1"/>
        <pt x="975" y="1902" on="1"/>
        <pt x="1038" y="1902" on="0"/>
        <pt x="1129" y="1800" on="0"/>
        <pt x="1129" y="1738" on="1"/>
        <pt x="1129" y="1732" on="1"/>
        <pt x="1126" y="1714" on="0"/>
        <pt x="1126" y="1701" on="1"/>
        <pt x="1126" y="1644" on="0"/>
        <pt x="999" y="1531" on="0"/>
        <pt x="930" y="1531" on="1"/>
        <pt x="905" y="1531" on="1"/>
        <pt x="852" y="1531" on="0"/>
        <pt x="746" y="1614" on="0"/>
      </contour>
      <contour>
        <pt x="1070" y="32" on="1"/>
        <pt x="934" y="32" on="0"/>
        <pt x="934" y="94" on="1"/>
        <pt x="934" y="103" on="0"/>
        <pt x="967" y="197" on="0"/>
        <pt x="967" y="256" on="1"/>
        <pt x="967" y="421" on="0"/>
        <pt x="913" y="475" on="1"/>
        <pt x="885" y="503" on="0"/>
        <pt x="497" y="503" on="0"/>
        <pt x="398" y="430" on="0"/>
        <pt x="317" y="261" on="1"/>
        <pt x="291" y="207" on="0"/>
        <pt x="274" y="83" on="0"/>
        <pt x="263" y="68" on="1"/>
        <pt x="239" y="36" on="0"/>
        <pt x="106" y="36" on="0"/>
        <pt x="32" y="98" on="0"/>
        <pt x="32" y="157" on="0"/>
        <pt x="68" y="200" on="1"/>
        <pt x="196" y="352" on="0"/>
        <pt x="583" y="1055" on="0"/>
        <pt x="762" y="1326" on="1"/>
        <pt x="834" y="1435" on="0"/>
        <pt x="901" y="1435" on="1"/>
        <pt x="949" y="1435" on="0"/>
        <pt x="993" y="1374" on="0"/>
        <pt x="1050" y="1164" on="0"/>
        <pt x="1147" y="373" on="0"/>
        <pt x="1169" y="273" on="0"/>
        <pt x="1241" y="183" on="0"/>
        <pt x="1241" y="99" on="0"/>
        <pt x="1122" y="32" on="0"/>
      </contour>
    </TTGlyph>
    <TTGlyph name="Atilde" xMin="28" yMin="29" xMax="1268" yMax="1780">
      <contour>
        <pt x="837" y="1189" on="0"/>
        <pt x="826" y="1189" on="0"/>
        <pt x="773" y="1090" on="0"/>
        <pt x="752" y="1057" on="1"/>
        <pt x="518" y="693" on="0"/>
        <pt x="518" y="632" on="1"/>
        <pt x="518" y="616" on="0"/>
        <pt x="702" y="616" on="1"/>
        <pt x="804" y="615" on="1"/>
        <pt x="922" y="615" on="0"/>
        <pt x="922" y="649" on="1"/>
        <pt x="922" y="657" on="1"/>
        <pt x="919" y="688" on="1"/>
        <pt x="919" y="923" on="0"/>
        <pt x="845" y="1163" on="1"/>
      </contour>
      <contour>
        <pt x="1268" y="1742" on="1"/>
        <pt x="1268" y="1676" on="0"/>
        <pt x="1120" y="1573" on="0"/>
        <pt x="994" y="1573" on="0"/>
        <pt x="828" y="1656" on="0"/>
        <pt x="751" y="1656" on="0"/>
        <pt x="649" y="1570" on="0"/>
        <pt x="599" y="1570" on="0"/>
        <pt x="599" y="1592" on="1"/>
        <pt x="599" y="1599" on="1"/>
        <pt x="599" y="1652" on="0"/>
        <pt x="750" y="1780" on="0"/>
        <pt x="821" y="1780" on="1"/>
        <pt x="829" y="1780" on="1"/>
        <pt x="887" y="1780" on="0"/>
        <pt x="1042" y="1687" on="0"/>
        <pt x="1121" y="1687" on="0"/>
        <pt x="1222" y="1771" on="0"/>
        <pt x="1268" y="1771" on="0"/>
        <pt x="1268" y="1749" on="1"/>
      </contour>
      <contour>
        <pt x="832" y="1422" on="0"/>
        <pt x="937" y="1422" on="0"/>
        <pt x="988" y="1359" on="0"/>
        <pt x="1022" y="1227" on="0"/>
        <pt x="1112" y="621" on="0"/>
        <pt x="1115" y="595" on="1"/>
        <pt x="1121" y="540" on="1"/>
        <pt x="1128" y="484" on="1"/>
        <pt x="1134" y="429" on="1"/>
        <pt x="1141" y="361" on="0"/>
        <pt x="1156" y="284" on="0"/>
        <pt x="1227" y="173" on="0"/>
        <pt x="1227" y="105" on="0"/>
        <pt x="1131" y="30" on="0"/>
        <pt x="983" y="30" on="0"/>
        <pt x="950" y="62" on="1"/>
        <pt x="937" y="74" on="0"/>
        <pt x="937" y="103" on="0"/>
        <pt x="958" y="185" on="0"/>
        <pt x="958" y="249" on="1"/>
        <pt x="958" y="400" on="0"/>
        <pt x="894" y="452" on="1"/>
        <pt x="865" y="476" on="0"/>
        <pt x="484" y="476" on="0"/>
        <pt x="387" y="391" on="0"/>
        <pt x="290" y="202" on="0"/>
        <pt x="268" y="77" on="0"/>
        <pt x="260" y="65" on="1"/>
        <pt x="236" y="29" on="0"/>
        <pt x="101" y="29" on="0"/>
        <pt x="28" y="95" on="0"/>
        <pt x="28" y="114" on="1"/>
        <pt x="28" y="154" on="0"/>
        <pt x="59" y="193" on="1"/>
        <pt x="230" y="407" on="0"/>
        <pt x="601" y="1079" on="0"/>
        <pt x="771" y="1332" on="1"/>
      </contour>
    </TTGlyph>
    <TTGlyph name="B" xMin="81" yMin="5" xMax="1181" yMax="1407">
      <contour>
        <pt x="532" y="798" on="1"/>
        <pt x="590" y="798" on="1"/>
        <pt x="599" y="799" on="1"/>
        <pt x="616" y="799" on="1"/>
        <pt x="795" y="799" on="0"/>
        <pt x="984" y="944" on="0"/>
        <pt x="984" y="1069" on="1"/>
        <pt x="984" y="1096" on="1"/>
        <pt x="984" y="1183" on="0"/>
        <pt x="857" y="1278" on="0"/>
        <pt x="744" y="1278" on="1"/>
        <pt x="683" y="1278" on="1"/>
        <pt x="674" y="1277" on="1"/>
        <pt x="658" y="1277" on="1"/>
        <pt x="625" y="1274" on="1"/>
        <pt x="567" y="1274" on="0"/>
        <pt x="554" y="1234" on="1"/>
        <pt x="481" y="1015" on="0"/>
        <pt x="481" y="836" on="1"/>
        <pt x="481" y="821" on="1"/>
        <pt x="481" y="798" on="0"/>
      </contour>
      <contour>
        <pt x="459" y="136" on="1"/>
        <pt x="567" y="136" on="1"/>
        <pt x="577" y="137" on="1"/>
        <pt x="606" y="138" on="1"/>
        <pt x="616" y="139" on="0"/>
        <pt x="626" y="139" on="1"/>
        <pt x="753" y="139" on="0"/>
        <pt x="938" y="310" on="0"/>
        <pt x="938" y="433" on="1"/>
        <pt x="938" y="473" on="1"/>
        <pt x="938" y="573" on="0"/>
        <pt x="842" y="631" on="1"/>
        <pt x="772" y="673" on="0"/>
        <pt x="617" y="673" on="1"/>
        <pt x="607" y="673" on="1"/>
        <pt x="597" y="672" on="1"/>
        <pt x="568" y="672" on="1"/>
        <pt x="531" y="670" on="1"/>
        <pt x="513" y="668" on="0"/>
        <pt x="504" y="668" on="1"/>
        <pt x="455" y="668" on="0"/>
        <pt x="440" y="617" on="1"/>
        <pt x="363" y="355" on="0"/>
        <pt x="363" y="183" on="1"/>
        <pt x="363" y="166" on="1"/>
        <pt x="363" y="136" on="0"/>
      </contour>
      <contour>
        <pt x="1181" y="1106" on="1"/>
        <pt x="1181" y="918" on="0"/>
        <pt x="1021" y="806" on="1"/>
        <pt x="939" y="748" on="0"/>
        <pt x="939" y="738" on="0"/>
        <pt x="959" y="725" on="1"/>
        <pt x="977" y="715" on="1"/>
        <pt x="1057" y="667" on="0"/>
        <pt x="1097" y="604" on="1"/>
        <pt x="1137" y="540" on="0"/>
        <pt x="1137" y="436" on="1"/>
        <pt x="1136" y="332" on="0"/>
        <pt x="1086" y="248" on="1"/>
        <pt x="941" y="6" on="0"/>
        <pt x="543" y="5" on="1"/>
        <pt x="324" y="5" on="1"/>
        <pt x="81" y="5" on="0"/>
        <pt x="81" y="42" on="1"/>
        <pt x="81" y="53" on="0"/>
        <pt x="158" y="181" on="0"/>
        <pt x="210" y="403" on="0"/>
        <pt x="342" y="1179" on="0"/>
        <pt x="342" y="1234" on="1"/>
        <pt x="314" y="1348" on="1"/>
        <pt x="314" y="1389" on="0"/>
        <pt x="430" y="1406" on="0"/>
        <pt x="631" y="1406" on="1"/>
        <pt x="705" y="1407" on="1"/>
        <pt x="951" y="1407" on="0"/>
        <pt x="1181" y="1261" on="0"/>
      </contour>
    </TTGlyph>
    <TTGlyph name="C" xMin="132" yMin="-16" xMax="1297" yMax="1416">
      <contour>
        <pt x="132" y="530" on="1"/>
        <pt x="132" y="562" on="1"/>
        <pt x="132" y="713" on="0"/>
        <pt x="244" y="1027" on="0"/>
        <pt x="447" y="1272" on="0"/>
        <pt x="730" y="1416" on="0"/>
        <pt x="874" y="1416" on="1"/>
        <pt x="905" y="1416" on="1"/>
        <pt x="1131" y="1416" on="0"/>
        <pt x="1297" y="1317" on="0"/>
        <pt x="1297" y="1214" on="1"/>
        <pt x="1297" y="1179" on="0"/>
        <pt x="1251" y="1115" on="0"/>
        <pt x="1198" y="1115" on="0"/>
        <pt x="1072" y="1212" on="0"/>
        <pt x="949" y="1270" on="0"/>
        <pt x="855" y="1270" on="1"/>
        <pt x="762" y="1270" on="0"/>
        <pt x="666" y="1213" on="1"/>
        <pt x="463" y="1092" on="0"/>
        <pt x="383" y="813" on="1"/>
        <pt x="347" y="686" on="0"/>
        <pt x="347" y="571" on="1"/>
        <pt x="347" y="246" on="0"/>
        <pt x="562" y="159" on="1"/>
        <pt x="623" y="134" on="0"/>
        <pt x="817" y="134" on="0"/>
        <pt x="1016" y="232" on="1"/>
        <pt x="1081" y="264" on="0"/>
        <pt x="1105" y="264" on="1"/>
        <pt x="1142" y="264" on="0"/>
        <pt x="1142" y="211" on="1"/>
        <pt x="1142" y="189" on="0"/>
        <pt x="1047" y="78" on="0"/>
        <pt x="855" y="-16" on="0"/>
        <pt x="550" y="-16" on="0"/>
        <pt x="355" y="55" on="0"/>
        <pt x="280" y="133" on="1"/>
        <pt x="132" y="287" on="0"/>
      </contour>
    </TTGlyph>
    <TTGlyph name="Ccedilla" xMin="139" yMin="-423" xMax="1365" yMax="1457">
      <contour>
        <pt x="139" y="583" on="1"/>
        <pt x="139" y="738" on="0"/>
        <pt x="253" y="1064" on="0"/>
        <pt x="476" y="1313" on="0"/>
        <pt x="769" y="1457" on="0"/>
        <pt x="920" y="1457" on="1"/>
        <pt x="984" y="1457" on="1"/>
        <pt x="1159" y="1457" on="0"/>
        <pt x="1258" y="1403" on="1"/>
        <pt x="1298" y="1381" on="0"/>
        <pt x="1365" y="1284" on="0"/>
        <pt x="1365" y="1220" on="0"/>
        <pt x="1322" y="1172" on="0"/>
        <pt x="1282" y="1172" on="0"/>
        <pt x="1130" y="1257" on="0"/>
        <pt x="995" y="1294" on="0"/>
        <pt x="887" y="1294" on="1"/>
        <pt x="780" y="1294" on="0"/>
        <pt x="684" y="1238" on="1"/>
        <pt x="477" y="1117" on="0"/>
        <pt x="394" y="834" on="1"/>
        <pt x="360" y="716" on="0"/>
        <pt x="360" y="592" on="1"/>
        <pt x="360" y="364" on="0"/>
        <pt x="563" y="136" on="0"/>
        <pt x="739" y="136" on="1"/>
        <pt x="874" y="136" on="0"/>
        <pt x="1061" y="224" on="1"/>
        <pt x="1150" y="266" on="0"/>
        <pt x="1153" y="266" on="1"/>
        <pt x="1200" y="266" on="0"/>
        <pt x="1200" y="186" on="0"/>
        <pt x="1164" y="136" on="1"/>
        <pt x="1050" y="-22" on="0"/>
        <pt x="733" y="-22" on="1"/>
        <pt x="731" y="-22" on="0"/>
        <pt x="729" y="-22" on="1"/>
        <pt x="696" y="-22" on="1"/>
        <pt x="436" y="-22" on="0"/>
        <pt x="278" y="156" on="1"/>
        <pt x="139" y="313" on="0"/>
      </contour>
      <contour>
        <pt x="559" y="-423" on="1"/>
        <pt x="545" y="-423" on="1"/>
        <pt x="455" y="-423" on="0"/>
        <pt x="455" y="-385" on="1"/>
        <pt x="455" y="-369" on="1"/>
        <pt x="455" y="-343" on="0"/>
        <pt x="559" y="-343" on="0"/>
        <pt x="628" y="-282" on="0"/>
        <pt x="628" y="-217" on="0"/>
        <pt x="565" y="-162" on="0"/>
        <pt x="565" y="-151" on="1"/>
        <pt x="565" y="-110" on="0"/>
        <pt x="606" y="-54" on="1"/>
        <pt x="625" y="-28" on="0"/>
        <pt x="663" y="-28" on="1"/>
        <pt x="682" y="-28" on="1"/>
        <pt x="702" y="-28" on="0"/>
        <pt x="702" y="-71" on="1"/>
        <pt x="702" y="-89" on="0"/>
        <pt x="783" y="-170" on="0"/>
        <pt x="783" y="-216" on="1"/>
        <pt x="783" y="-223" on="1"/>
        <pt x="782" y="-230" on="1"/>
        <pt x="782" y="-296" on="0"/>
        <pt x="655" y="-423" on="0"/>
      </contour>
    </TTGlyph>
    <TTGlyph name="D" xMin="81" yMin="2" xMax="1356" yMax="1403">
      <contour>
        <pt x="1147" y="813" on="1"/>
        <pt x="1147" y="863" on="1"/>
        <pt x="1147" y="1056" on="0"/>
        <pt x="940" y="1271" on="0"/>
        <pt x="762" y="1271" on="1"/>
        <pt x="712" y="1271" on="1"/>
        <pt x="577" y="1271" on="0"/>
        <pt x="528" y="1156" on="0"/>
        <pt x="452" y="667" on="0"/>
        <pt x="366" y="208" on="0"/>
        <pt x="366" y="189" on="1"/>
        <pt x="366" y="175" on="1"/>
        <pt x="366" y="135" on="0"/>
        <pt x="506" y="135" on="1"/>
        <pt x="539" y="135" on="1"/>
        <pt x="806" y="135" on="0"/>
        <pt x="966" y="318" on="1"/>
        <pt x="1051" y="415" on="0"/>
        <pt x="1147" y="686" on="0"/>
      </contour>
      <contour>
        <pt x="81" y="45" on="1"/>
        <pt x="81" y="49" on="0"/>
        <pt x="139" y="146" on="1"/>
        <pt x="167" y="193" on="0"/>
        <pt x="187" y="295" on="1"/>
        <pt x="333" y="1041" on="0"/>
        <pt x="333" y="1213" on="1"/>
        <pt x="333" y="1240" on="0"/>
        <pt x="306" y="1313" on="0"/>
        <pt x="306" y="1339" on="1"/>
        <pt x="306" y="1375" on="0"/>
        <pt x="361" y="1384" on="1"/>
        <pt x="481" y="1403" on="0"/>
        <pt x="705" y="1403" on="1"/>
        <pt x="754" y="1403" on="1"/>
        <pt x="1179" y="1403" on="0"/>
        <pt x="1310" y="1099" on="1"/>
        <pt x="1356" y="992" on="0"/>
        <pt x="1356" y="867" on="1"/>
        <pt x="1356" y="818" on="1"/>
        <pt x="1356" y="652" on="0"/>
        <pt x="1284" y="484" on="1"/>
        <pt x="1140" y="150" on="0"/>
        <pt x="803" y="43" on="1"/>
        <pt x="674" y="2" on="0"/>
        <pt x="471" y="2" on="1"/>
        <pt x="304" y="2" on="1"/>
        <pt x="165" y="5" on="1"/>
        <pt x="81" y="5" on="0"/>
      </contour>
    </TTGlyph>
    <TTGlyph name="E" xMin="85" yMin="-1" xMax="1193" yMax="1405">
      <contour>
        <pt x="1193" y="1323" on="1"/>
        <pt x="1193" y="1204" on="0"/>
        <pt x="1102" y="1204" on="1"/>
        <pt x="1083" y="1204" on="0"/>
        <pt x="877" y="1258" on="0"/>
        <pt x="725" y="1258" on="1"/>
        <pt x="626" y="1258" on="0"/>
        <pt x="576" y="1169" on="1"/>
        <pt x="507" y="1047" on="0"/>
        <pt x="507" y="901" on="1"/>
        <pt x="507" y="807" on="0"/>
        <pt x="664" y="807" on="1"/>
        <pt x="716" y="807" on="0"/>
        <pt x="852" y="838" on="0"/>
        <pt x="925" y="838" on="0"/>
        <pt x="971" y="785" on="0"/>
        <pt x="971" y="758" on="1"/>
        <pt x="971" y="671" on="0"/>
        <pt x="927" y="632" on="1"/>
        <pt x="901" y="609" on="0"/>
        <pt x="842" y="609" on="1"/>
        <pt x="812" y="615" on="1"/>
        <pt x="783" y="625" on="1"/>
        <pt x="753" y="633" on="1"/>
        <pt x="696" y="647" on="0"/>
        <pt x="617" y="647" on="1"/>
        <pt x="481" y="647" on="0"/>
        <pt x="443" y="576" on="1"/>
        <pt x="395" y="486" on="0"/>
        <pt x="395" y="256" on="1"/>
        <pt x="395" y="190" on="0"/>
        <pt x="484" y="141" on="0"/>
        <pt x="670" y="141" on="0"/>
        <pt x="793" y="172" on="0"/>
        <pt x="963" y="222" on="0"/>
        <pt x="987" y="222" on="1"/>
        <pt x="1033" y="222" on="0"/>
        <pt x="1033" y="120" on="0"/>
        <pt x="985" y="36" on="0"/>
        <pt x="888" y="-1" on="0"/>
        <pt x="604" y="-1" on="1"/>
        <pt x="408" y="-1" on="1"/>
        <pt x="207" y="-1" on="0"/>
        <pt x="85" y="24" on="0"/>
        <pt x="85" y="88" on="0"/>
        <pt x="159" y="215" on="0"/>
        <pt x="209" y="424" on="0"/>
        <pt x="346" y="1147" on="0"/>
        <pt x="346" y="1225" on="0"/>
        <pt x="317" y="1309" on="0"/>
        <pt x="317" y="1336" on="1"/>
        <pt x="317" y="1370" on="0"/>
        <pt x="436" y="1401" on="0"/>
        <pt x="673" y="1401" on="1"/>
        <pt x="712" y="1402" on="1"/>
        <pt x="751" y="1403" on="0"/>
        <pt x="790" y="1403" on="1"/>
        <pt x="948" y="1405" on="1"/>
        <pt x="1025" y="1405" on="1"/>
        <pt x="1193" y="1405" on="0"/>
      </contour>
    </TTGlyph>
    <TTGlyph name="Eacute" xMin="90" yMin="12" xMax="1194" yMax="1869">
      <contour>
        <pt x="1115" y="1843" on="1"/>
        <pt x="1115" y="1830" on="1"/>
        <pt x="1115" y="1795" on="0"/>
        <pt x="913" y="1638" on="1"/>
        <pt x="804" y="1553" on="0"/>
        <pt x="748" y="1553" on="1"/>
        <pt x="733" y="1553" on="1"/>
        <pt x="709" y="1553" on="0"/>
        <pt x="709" y="1569" on="1"/>
        <pt x="709" y="1582" on="1"/>
        <pt x="709" y="1641" on="0"/>
        <pt x="894" y="1803" on="1"/>
        <pt x="966" y="1866" on="0"/>
        <pt x="1010" y="1866" on="1"/>
        <pt x="1037" y="1869" on="1"/>
        <pt x="1048" y="1869" on="1"/>
        <pt x="1115" y="1869" on="0"/>
      </contour>
      <contour>
        <pt x="513" y="915" on="1"/>
        <pt x="513" y="829" on="0"/>
        <pt x="674" y="829" on="1"/>
        <pt x="719" y="829" on="0"/>
        <pt x="850" y="859" on="0"/>
        <pt x="898" y="859" on="0"/>
        <pt x="956" y="812" on="0"/>
        <pt x="956" y="701" on="0"/>
        <pt x="897" y="620" on="0"/>
        <pt x="825" y="620" on="0"/>
        <pt x="712" y="663" on="0"/>
        <pt x="633" y="663" on="1"/>
        <pt x="492" y="663" on="0"/>
        <pt x="400" y="522" on="0"/>
        <pt x="400" y="278" on="1"/>
        <pt x="400" y="203" on="0"/>
        <pt x="479" y="145" on="0"/>
        <pt x="707" y="145" on="0"/>
        <pt x="905" y="212" on="1"/>
        <pt x="967" y="233" on="0"/>
        <pt x="982" y="233" on="1"/>
        <pt x="1036" y="233" on="0"/>
        <pt x="1036" y="169" on="1"/>
        <pt x="1036" y="125" on="0"/>
        <pt x="984" y="47" on="0"/>
        <pt x="882" y="12" on="0"/>
        <pt x="636" y="12" on="1"/>
        <pt x="398" y="12" on="1"/>
        <pt x="191" y="12" on="0"/>
        <pt x="90" y="41" on="0"/>
        <pt x="90" y="119" on="0"/>
        <pt x="171" y="218" on="0"/>
        <pt x="188" y="291" on="1"/>
        <pt x="363" y="1030" on="0"/>
        <pt x="363" y="1233" on="1"/>
        <pt x="363" y="1250" on="0"/>
        <pt x="318" y="1342" on="0"/>
        <pt x="318" y="1363" on="1"/>
        <pt x="318" y="1396" on="0"/>
        <pt x="488" y="1429" on="0"/>
        <pt x="845" y="1429" on="1"/>
        <pt x="1005" y="1429" on="1"/>
        <pt x="1117" y="1429" on="0"/>
        <pt x="1147" y="1415" on="1"/>
        <pt x="1194" y="1393" on="0"/>
        <pt x="1194" y="1282" on="0"/>
        <pt x="1150" y="1224" on="0"/>
        <pt x="1115" y="1224" on="1"/>
        <pt x="1107" y="1224" on="0"/>
        <pt x="1015" y="1259" on="0"/>
        <pt x="839" y="1296" on="0"/>
        <pt x="650" y="1296" on="0"/>
        <pt x="593" y="1217" on="1"/>
        <pt x="568" y="1182" on="0"/>
        <pt x="513" y="978" on="0"/>
      </contour>
    </TTGlyph>
    <TTGlyph name="Ecircumflex" xMin="90" yMin="8" xMax="1195" yMax="1871">
      <contour>
        <pt x="624" y="1555" on="0"/>
        <pt x="537" y="1555" on="0"/>
        <pt x="537" y="1595" on="0"/>
        <pt x="838" y="1871" on="0"/>
        <pt x="923" y="1871" on="0"/>
        <pt x="960" y="1823" on="1"/>
        <pt x="1106" y="1633" on="0"/>
        <pt x="1106" y="1588" on="1"/>
        <pt x="1106" y="1582" on="1"/>
        <pt x="1106" y="1556" on="0"/>
        <pt x="1017" y="1556" on="0"/>
        <pt x="864" y="1723" on="0"/>
        <pt x="847" y="1723" on="1"/>
        <pt x="842" y="1723" on="0"/>
        <pt x="784" y="1678" on="1"/>
      </contour>
      <contour>
        <pt x="513" y="911" on="1"/>
        <pt x="513" y="825" on="0"/>
        <pt x="675" y="825" on="1"/>
        <pt x="720" y="825" on="0"/>
        <pt x="851" y="855" on="0"/>
        <pt x="901" y="855" on="0"/>
        <pt x="956" y="807" on="0"/>
        <pt x="956" y="697" on="0"/>
        <pt x="899" y="616" on="0"/>
        <pt x="848" y="616" on="1"/>
        <pt x="828" y="616" on="0"/>
        <pt x="712" y="659" on="0"/>
        <pt x="633" y="659" on="1"/>
        <pt x="492" y="659" on="0"/>
        <pt x="400" y="518" on="0"/>
        <pt x="400" y="274" on="1"/>
        <pt x="400" y="200" on="0"/>
        <pt x="480" y="143" on="0"/>
        <pt x="696" y="143" on="0"/>
        <pt x="811" y="178" on="1"/>
        <pt x="983" y="230" on="1"/>
        <pt x="1037" y="230" on="0"/>
        <pt x="1037" y="190" on="1"/>
        <pt x="1037" y="64" on="0"/>
        <pt x="938" y="28" on="1"/>
        <pt x="882" y="8" on="0"/>
        <pt x="556" y="8" on="1"/>
        <pt x="476" y="8" on="1"/>
        <pt x="195" y="8" on="0"/>
        <pt x="90" y="38" on="0"/>
        <pt x="90" y="114" on="0"/>
        <pt x="170" y="214" on="0"/>
        <pt x="187" y="286" on="1"/>
        <pt x="362" y="1015" on="0"/>
        <pt x="362" y="1228" on="1"/>
        <pt x="362" y="1248" on="0"/>
        <pt x="318" y="1339" on="0"/>
        <pt x="318" y="1358" on="1"/>
        <pt x="318" y="1391" on="0"/>
        <pt x="384" y="1404" on="1"/>
        <pt x="487" y="1424" on="0"/>
        <pt x="845" y="1424" on="1"/>
        <pt x="1005" y="1424" on="1"/>
        <pt x="1116" y="1424" on="0"/>
        <pt x="1147" y="1410" on="1"/>
        <pt x="1195" y="1388" on="0"/>
        <pt x="1195" y="1279" on="0"/>
        <pt x="1151" y="1219" on="0"/>
        <pt x="1103" y="1219" on="0"/>
        <pt x="1012" y="1254" on="0"/>
        <pt x="840" y="1290" on="0"/>
        <pt x="650" y="1290" on="0"/>
        <pt x="593" y="1212" on="1"/>
        <pt x="567" y="1177" on="0"/>
        <pt x="513" y="974" on="0"/>
      </contour>
    </TTGlyph>
    <TTGlyph name="Edieresis" xMin="97" yMin="12" xMax="1202" yMax="1801">
      <contour>
        <pt x="770" y="1726" on="1"/>
        <pt x="770" y="1695" on="1"/>
        <pt x="765" y="1672" on="1"/>
        <pt x="765" y="1649" on="0"/>
        <pt x="707" y="1591" on="0"/>
        <pt x="683" y="1591" on="1"/>
        <pt x="674" y="1588" on="0"/>
        <pt x="670" y="1588" on="1"/>
        <pt x="649" y="1586" on="1"/>
        <pt x="646" y="1587" on="1"/>
        <pt x="635" y="1587" on="1"/>
        <pt x="620" y="1590" on="0"/>
        <pt x="618" y="1590" on="1"/>
        <pt x="559" y="1590" on="0"/>
        <pt x="559" y="1673" on="1"/>
        <pt x="560" y="1677" on="1"/>
        <pt x="560" y="1732" on="0"/>
        <pt x="625" y="1797" on="0"/>
        <pt x="652" y="1797" on="1"/>
        <pt x="673" y="1800" on="1"/>
        <pt x="690" y="1800" on="1"/>
        <pt x="724" y="1800" on="0"/>
        <pt x="770" y="1754" on="0"/>
      </contour>
      <contour>
        <pt x="1142" y="1700" on="1"/>
        <pt x="1142" y="1656" on="0"/>
        <pt x="1073" y="1587" on="0"/>
        <pt x="1035" y="1587" on="1"/>
        <pt x="1007" y="1587" on="1"/>
        <pt x="987" y="1591" on="1"/>
        <pt x="934" y="1591" on="0"/>
        <pt x="934" y="1647" on="1"/>
        <pt x="931" y="1663" on="1"/>
        <pt x="931" y="1687" on="1"/>
        <pt x="936" y="1714" on="1"/>
        <pt x="936" y="1738" on="0"/>
        <pt x="996" y="1798" on="0"/>
        <pt x="1026" y="1798" on="1"/>
        <pt x="1034" y="1800" on="0"/>
        <pt x="1036" y="1800" on="1"/>
        <pt x="1050" y="1801" on="1"/>
        <pt x="1054" y="1801" on="1"/>
        <pt x="1057" y="1800" on="1"/>
        <pt x="1138" y="1800" on="0"/>
        <pt x="1138" y="1740" on="1"/>
        <pt x="1141" y="1731" on="0"/>
        <pt x="1141" y="1730" on="1"/>
        <pt x="1142" y="1717" on="1"/>
      </contour>
      <contour>
        <pt x="520" y="915" on="1"/>
        <pt x="520" y="829" on="0"/>
        <pt x="682" y="829" on="1"/>
        <pt x="726" y="829" on="0"/>
        <pt x="855" y="858" on="0"/>
        <pt x="910" y="858" on="0"/>
        <pt x="963" y="811" on="0"/>
        <pt x="963" y="700" on="0"/>
        <pt x="906" y="619" on="0"/>
        <pt x="855" y="619" on="1"/>
        <pt x="837" y="619" on="0"/>
        <pt x="719" y="663" on="0"/>
        <pt x="641" y="663" on="1"/>
        <pt x="500" y="663" on="0"/>
        <pt x="407" y="523" on="0"/>
        <pt x="407" y="278" on="1"/>
        <pt x="407" y="204" on="0"/>
        <pt x="488" y="146" on="0"/>
        <pt x="701" y="146" on="0"/>
        <pt x="987" y="234" on="0"/>
        <pt x="990" y="234" on="1"/>
        <pt x="1044" y="234" on="0"/>
        <pt x="1044" y="194" on="1"/>
        <pt x="1044" y="67" on="0"/>
        <pt x="945" y="31" on="1"/>
        <pt x="891" y="12" on="0"/>
        <pt x="563" y="12" on="1"/>
        <pt x="483" y="12" on="1"/>
        <pt x="202" y="12" on="0"/>
        <pt x="97" y="42" on="0"/>
        <pt x="97" y="118" on="0"/>
        <pt x="177" y="218" on="0"/>
        <pt x="194" y="290" on="1"/>
        <pt x="370" y="1023" on="0"/>
        <pt x="370" y="1200" on="1"/>
        <pt x="370" y="1249" on="0"/>
        <pt x="325" y="1342" on="0"/>
        <pt x="325" y="1362" on="1"/>
        <pt x="325" y="1395" on="0"/>
        <pt x="493" y="1428" on="0"/>
        <pt x="852" y="1428" on="1"/>
        <pt x="972" y="1428" on="1"/>
        <pt x="1123" y="1428" on="0"/>
        <pt x="1154" y="1414" on="1"/>
        <pt x="1202" y="1392" on="0"/>
        <pt x="1202" y="1284" on="0"/>
        <pt x="1158" y="1224" on="0"/>
        <pt x="1134" y="1223" on="1"/>
        <pt x="1133" y="1223" on="0"/>
        <pt x="1132" y="1223" on="1"/>
        <pt x="1108" y="1223" on="0"/>
        <pt x="1064" y="1240" on="1"/>
        <pt x="923" y="1294" on="0"/>
        <pt x="761" y="1294" on="1"/>
        <pt x="657" y="1294" on="0"/>
        <pt x="601" y="1216" on="1"/>
        <pt x="573" y="1177" on="0"/>
        <pt x="520" y="978" on="0"/>
      </contour>
    </TTGlyph>
    <TTGlyph name="Egrave" xMin="90" yMin="12" xMax="1195" yMax="1872">
      <contour>
        <pt x="894" y="1554" on="1"/>
        <pt x="885" y="1554" on="1"/>
        <pt x="880" y="1555" on="1"/>
        <pt x="828" y="1555" on="0"/>
        <pt x="767" y="1608" on="1"/>
        <pt x="571" y="1780" on="0"/>
        <pt x="571" y="1824" on="1"/>
        <pt x="571" y="1837" on="1"/>
        <pt x="571" y="1872" on="0"/>
        <pt x="638" y="1872" on="1"/>
        <pt x="673" y="1872" on="1"/>
        <pt x="719" y="1872" on="0"/>
        <pt x="790" y="1801" on="0"/>
        <pt x="920" y="1606" on="0"/>
        <pt x="920" y="1590" on="1"/>
        <pt x="920" y="1577" on="1"/>
        <pt x="920" y="1554" on="0"/>
      </contour>
      <contour>
        <pt x="513" y="915" on="1"/>
        <pt x="513" y="829" on="0"/>
        <pt x="675" y="829" on="1"/>
        <pt x="720" y="829" on="0"/>
        <pt x="851" y="859" on="0"/>
        <pt x="901" y="859" on="0"/>
        <pt x="956" y="811" on="0"/>
        <pt x="956" y="701" on="0"/>
        <pt x="899" y="620" on="0"/>
        <pt x="848" y="620" on="1"/>
        <pt x="828" y="620" on="0"/>
        <pt x="712" y="663" on="0"/>
        <pt x="633" y="663" on="1"/>
        <pt x="492" y="663" on="0"/>
        <pt x="400" y="522" on="0"/>
        <pt x="400" y="278" on="1"/>
        <pt x="400" y="204" on="0"/>
        <pt x="480" y="147" on="0"/>
        <pt x="696" y="147" on="0"/>
        <pt x="811" y="182" on="1"/>
        <pt x="983" y="234" on="1"/>
        <pt x="1037" y="234" on="0"/>
        <pt x="1037" y="194" on="1"/>
        <pt x="1037" y="68" on="0"/>
        <pt x="938" y="32" on="1"/>
        <pt x="882" y="12" on="0"/>
        <pt x="556" y="12" on="1"/>
        <pt x="476" y="12" on="1"/>
        <pt x="195" y="12" on="0"/>
        <pt x="90" y="42" on="0"/>
        <pt x="90" y="118" on="0"/>
        <pt x="170" y="218" on="0"/>
        <pt x="187" y="290" on="1"/>
        <pt x="362" y="1019" on="0"/>
        <pt x="362" y="1232" on="1"/>
        <pt x="362" y="1252" on="0"/>
        <pt x="318" y="1343" on="0"/>
        <pt x="318" y="1362" on="1"/>
        <pt x="318" y="1395" on="0"/>
        <pt x="384" y="1408" on="1"/>
        <pt x="487" y="1428" on="0"/>
        <pt x="845" y="1428" on="1"/>
        <pt x="1005" y="1428" on="1"/>
        <pt x="1116" y="1428" on="0"/>
        <pt x="1147" y="1414" on="1"/>
        <pt x="1195" y="1392" on="0"/>
        <pt x="1195" y="1283" on="0"/>
        <pt x="1151" y="1223" on="0"/>
        <pt x="1103" y="1223" on="0"/>
        <pt x="1012" y="1258" on="0"/>
        <pt x="840" y="1294" on="0"/>
        <pt x="650" y="1294" on="0"/>
        <pt x="593" y="1216" on="1"/>
        <pt x="567" y="1181" on="0"/>
        <pt x="513" y="978" on="0"/>
      </contour>
    </TTGlyph>
    <TTGlyph name="Eth" xMin="92" yMin="5" xMax="1384" yMax="1415">
      <contour>
        <pt x="1179" y="815" on="1"/>
        <pt x="1179" y="855" on="1"/>
        <pt x="1179" y="1055" on="0"/>
        <pt x="959" y="1292" on="0"/>
        <pt x="753" y="1292" on="1"/>
        <pt x="608" y="1292" on="0"/>
        <pt x="575" y="1240" on="1"/>
        <pt x="555" y="1208" on="0"/>
        <pt x="496" y="935" on="0"/>
        <pt x="496" y="813" on="0"/>
        <pt x="562" y="785" on="0"/>
        <pt x="712" y="774" on="0"/>
        <pt x="726" y="770" on="1"/>
        <pt x="760" y="761" on="0"/>
        <pt x="760" y="684" on="0"/>
        <pt x="703" y="656" on="0"/>
        <pt x="622" y="656" on="1"/>
        <pt x="475" y="656" on="0"/>
        <pt x="450" y="603" on="1"/>
        <pt x="442" y="586" on="0"/>
        <pt x="378" y="230" on="0"/>
        <pt x="378" y="206" on="1"/>
        <pt x="378" y="189" on="1"/>
        <pt x="378" y="131" on="0"/>
        <pt x="474" y="131" on="1"/>
        <pt x="553" y="131" on="1"/>
        <pt x="825" y="131" on="0"/>
        <pt x="1000" y="326" on="1"/>
        <pt x="1083" y="418" on="0"/>
        <pt x="1179" y="685" on="0"/>
      </contour>
      <contour>
        <pt x="92" y="49" on="1"/>
        <pt x="92" y="59" on="0"/>
        <pt x="175" y="186" on="0"/>
        <pt x="189" y="244" on="1"/>
        <pt x="246" y="472" on="0"/>
        <pt x="246" y="609" on="1"/>
        <pt x="246" y="653" on="0"/>
        <pt x="129" y="667" on="0"/>
        <pt x="129" y="713" on="1"/>
        <pt x="129" y="766" on="0"/>
        <pt x="273" y="804" on="0"/>
        <pt x="303" y="856" on="0"/>
        <pt x="343" y="1135" on="0"/>
        <pt x="343" y="1236" on="0"/>
        <pt x="305" y="1327" on="0"/>
        <pt x="305" y="1366" on="0"/>
        <pt x="320" y="1377" on="1"/>
        <pt x="370" y="1415" on="0"/>
        <pt x="693" y="1415" on="1"/>
        <pt x="771" y="1415" on="1"/>
        <pt x="1073" y="1415" on="0"/>
        <pt x="1239" y="1249" on="1"/>
        <pt x="1384" y="1104" on="0"/>
        <pt x="1384" y="852" on="1"/>
        <pt x="1384" y="825" on="1"/>
        <pt x="1384" y="668" on="0"/>
        <pt x="1320" y="505" on="1"/>
        <pt x="1191" y="178" on="0"/>
        <pt x="847" y="56" on="1"/>
        <pt x="703" y="5" on="0"/>
        <pt x="490" y="5" on="1"/>
        <pt x="360" y="5" on="1"/>
        <pt x="189" y="9" on="1"/>
        <pt x="92" y="9" on="0"/>
      </contour>
    </TTGlyph>
    <TTGlyph name="Euro" xMin="103" yMin="4" xMax="1201" yMax="1355">
      <contour>
        <pt x="846" y="561" on="1"/>
        <pt x="846" y="516" on="0"/>
        <pt x="582" y="476" on="0"/>
        <pt x="553" y="462" on="1"/>
        <pt x="480" y="427" on="0"/>
        <pt x="480" y="363" on="1"/>
        <pt x="480" y="275" on="0"/>
        <pt x="578" y="213" on="1"/>
        <pt x="648" y="169" on="0"/>
        <pt x="798" y="169" on="0"/>
        <pt x="999" y="227" on="0"/>
        <pt x="1002" y="227" on="1"/>
        <pt x="1060" y="227" on="0"/>
        <pt x="1060" y="197" on="1"/>
        <pt x="1060" y="182" on="0"/>
        <pt x="1035" y="151" on="1"/>
        <pt x="918" y="4" on="0"/>
        <pt x="679" y="4" on="1"/>
        <pt x="507" y="4" on="0"/>
        <pt x="396" y="101" on="1"/>
        <pt x="375" y="120" on="0"/>
        <pt x="210" y="418" on="1"/>
        <pt x="185" y="464" on="0"/>
        <pt x="103" y="534" on="0"/>
        <pt x="103" y="545" on="1"/>
        <pt x="103" y="592" on="0"/>
        <pt x="139" y="610" on="1"/>
        <pt x="229" y="654" on="0"/>
        <pt x="229" y="680" on="1"/>
        <pt x="229" y="729" on="0"/>
        <pt x="153" y="770" on="0"/>
        <pt x="153" y="808" on="0"/>
        <pt x="284" y="928" on="0"/>
        <pt x="485" y="1190" on="0"/>
        <pt x="557" y="1243" on="1"/>
        <pt x="709" y="1355" on="0"/>
        <pt x="909" y="1355" on="1"/>
        <pt x="1049" y="1355" on="0"/>
        <pt x="1201" y="1264" on="0"/>
        <pt x="1201" y="1202" on="1"/>
        <pt x="1201" y="1183" on="1"/>
        <pt x="1201" y="1135" on="0"/>
        <pt x="1138" y="1135" on="1"/>
        <pt x="1115" y="1135" on="0"/>
        <pt x="938" y="1196" on="0"/>
        <pt x="882" y="1196" on="1"/>
        <pt x="773" y="1196" on="0"/>
        <pt x="691" y="1136" on="1"/>
        <pt x="580" y="1054" on="0"/>
        <pt x="580" y="969" on="1"/>
        <pt x="580" y="892" on="0"/>
        <pt x="794" y="874" on="1"/>
        <pt x="926" y="863" on="0"/>
        <pt x="926" y="834" on="1"/>
        <pt x="926" y="779" on="0"/>
        <pt x="836" y="759" on="1"/>
        <pt x="796" y="750" on="0"/>
        <pt x="496" y="750" on="0"/>
        <pt x="450" y="703" on="0"/>
        <pt x="450" y="629" on="0"/>
        <pt x="518" y="621" on="1"/>
        <pt x="556" y="620" on="1"/>
        <pt x="581" y="619" on="0"/>
        <pt x="758" y="615" on="0"/>
        <pt x="782" y="609" on="1"/>
        <pt x="846" y="593" on="0"/>
      </contour>
    </TTGlyph>
    <TTGlyph name="F" xMin="106" yMin="15" xMax="1186" yMax="1407">
      <contour>
        <pt x="856" y="829" on="1"/>
        <pt x="955" y="828" on="0"/>
        <pt x="955" y="710" on="1"/>
        <pt x="955" y="656" on="0"/>
        <pt x="912" y="596" on="0"/>
        <pt x="860" y="596" on="0"/>
        <pt x="763" y="629" on="0"/>
        <pt x="738" y="629" on="1"/>
        <pt x="536" y="629" on="0"/>
        <pt x="480" y="562" on="1"/>
        <pt x="447" y="522" on="0"/>
        <pt x="396" y="333" on="0"/>
        <pt x="396" y="196" on="1"/>
        <pt x="401" y="113" on="1"/>
        <pt x="401" y="15" on="0"/>
        <pt x="228" y="15" on="1"/>
        <pt x="156" y="15" on="0"/>
        <pt x="106" y="59" on="0"/>
        <pt x="106" y="138" on="0"/>
        <pt x="182" y="261" on="0"/>
        <pt x="197" y="332" on="1"/>
        <pt x="346" y="1031" on="0"/>
        <pt x="346" y="1210" on="1"/>
        <pt x="346" y="1239" on="0"/>
        <pt x="314" y="1321" on="0"/>
        <pt x="314" y="1337" on="1"/>
        <pt x="314" y="1376" on="0"/>
        <pt x="382" y="1385" on="1"/>
        <pt x="516" y="1402" on="0"/>
        <pt x="849" y="1402" on="1"/>
        <pt x="1072" y="1407" on="1"/>
        <pt x="1102" y="1407" on="1"/>
        <pt x="1186" y="1407" on="0"/>
        <pt x="1186" y="1324" on="1"/>
        <pt x="1186" y="1269" on="0"/>
        <pt x="1141" y="1198" on="0"/>
        <pt x="1096" y="1198" on="0"/>
        <pt x="1019" y="1238" on="0"/>
        <pt x="908" y="1270" on="0"/>
        <pt x="635" y="1270" on="0"/>
        <pt x="591" y="1202" on="1"/>
        <pt x="565" y="1161" on="0"/>
        <pt x="517" y="926" on="0"/>
        <pt x="517" y="880" on="1"/>
        <pt x="517" y="793" on="0"/>
        <pt x="638" y="793" on="1"/>
        <pt x="641" y="793" on="1"/>
        <pt x="687" y="793" on="0"/>
        <pt x="849" y="829" on="0"/>
      </contour>
    </TTGlyph>
    <TTGlyph name="G" xMin="139" yMin="-30" xMax="1298" yMax="1404">
      <contour>
        <pt x="875" y="1404" on="1"/>
        <pt x="913" y="1404" on="1"/>
        <pt x="1114" y="1404" on="0"/>
        <pt x="1182" y="1378" on="1"/>
        <pt x="1298" y="1334" on="0"/>
        <pt x="1298" y="1235" on="1"/>
        <pt x="1298" y="1195" on="0"/>
        <pt x="1243" y="1134" on="0"/>
        <pt x="1206" y="1134" on="0"/>
        <pt x="976" y="1257" on="0"/>
        <pt x="748" y="1257" on="0"/>
        <pt x="656" y="1200" on="1"/>
        <pt x="471" y="1085" on="0"/>
        <pt x="395" y="862" on="1"/>
        <pt x="349" y="728" on="0"/>
        <pt x="349" y="613" on="1"/>
        <pt x="349" y="291" on="0"/>
        <pt x="574" y="196" on="1"/>
        <pt x="645" y="166" on="0"/>
        <pt x="849" y="166" on="0"/>
        <pt x="998" y="287" on="0"/>
        <pt x="998" y="395" on="1"/>
        <pt x="998" y="445" on="0"/>
        <pt x="901" y="569" on="0"/>
        <pt x="901" y="587" on="1"/>
        <pt x="901" y="631" on="0"/>
        <pt x="1163" y="631" on="0"/>
        <pt x="1208" y="608" on="1"/>
        <pt x="1235" y="594" on="0"/>
        <pt x="1235" y="557" on="1"/>
        <pt x="1235" y="549" on="0"/>
        <pt x="1159" y="236" on="1"/>
        <pt x="1133" y="128" on="0"/>
        <pt x="1053" y="50" on="0"/>
        <pt x="765" y="-30" on="0"/>
        <pt x="707" y="-30" on="1"/>
        <pt x="672" y="-30" on="1"/>
        <pt x="460" y="-30" on="0"/>
        <pt x="307" y="123" on="1"/>
        <pt x="224" y="206" on="0"/>
        <pt x="139" y="437" on="0"/>
        <pt x="139" y="545" on="1"/>
        <pt x="139" y="584" on="1"/>
        <pt x="139" y="752" on="0"/>
        <pt x="199" y="898" on="1"/>
        <pt x="323" y="1198" on="0"/>
        <pt x="584" y="1330" on="1"/>
        <pt x="730" y="1404" on="0"/>
      </contour>
    </TTGlyph>
    <TTGlyph name="H" xMin="79" yMin="6" xMax="1476" yMax="1389">
      <contour>
        <pt x="1135" y="12" on="1"/>
        <pt x="943" y="12" on="0"/>
        <pt x="943" y="89" on="1"/>
        <pt x="943" y="107" on="0"/>
        <pt x="1004" y="225" on="0"/>
        <pt x="1065" y="463" on="0"/>
        <pt x="1065" y="635" on="0"/>
        <pt x="999" y="647" on="1"/>
        <pt x="957" y="655" on="0"/>
        <pt x="672" y="655" on="1"/>
        <pt x="508" y="655" on="0"/>
        <pt x="465" y="592" on="1"/>
        <pt x="442" y="558" on="0"/>
        <pt x="387" y="336" on="0"/>
        <pt x="387" y="244" on="1"/>
        <pt x="399" y="118" on="1"/>
        <pt x="399" y="65" on="0"/>
        <pt x="275" y="6" on="0"/>
        <pt x="79" y="6" on="0"/>
        <pt x="79" y="54" on="1"/>
        <pt x="79" y="94" on="0"/>
        <pt x="167" y="197" on="0"/>
        <pt x="188" y="291" on="1"/>
        <pt x="340" y="963" on="0"/>
        <pt x="340" y="1162" on="1"/>
        <pt x="340" y="1191" on="0"/>
        <pt x="299" y="1288" on="0"/>
        <pt x="299" y="1334" on="0"/>
        <pt x="364" y="1377" on="0"/>
        <pt x="444" y="1377" on="1"/>
        <pt x="614" y="1377" on="0"/>
        <pt x="614" y="1306" on="1"/>
        <pt x="614" y="1290" on="0"/>
        <pt x="550" y="1174" on="0"/>
        <pt x="501" y="964" on="0"/>
        <pt x="501" y="828" on="0"/>
        <pt x="570" y="793" on="0"/>
        <pt x="778" y="793" on="1"/>
        <pt x="905" y="791" on="1"/>
        <pt x="947" y="790" on="1"/>
        <pt x="1070" y="790" on="0"/>
        <pt x="1108" y="846" on="1"/>
        <pt x="1177" y="948" on="0"/>
        <pt x="1177" y="1151" on="1"/>
        <pt x="1166" y="1279" on="1"/>
        <pt x="1166" y="1323" on="0"/>
        <pt x="1262" y="1389" on="0"/>
        <pt x="1369" y="1389" on="1"/>
        <pt x="1406" y="1389" on="1"/>
        <pt x="1476" y="1389" on="0"/>
        <pt x="1476" y="1300" on="0"/>
        <pt x="1400" y="1198" on="0"/>
        <pt x="1372" y="1092" on="0"/>
        <pt x="1221" y="290" on="0"/>
        <pt x="1221" y="205" on="0"/>
        <pt x="1264" y="92" on="0"/>
        <pt x="1264" y="90" on="1"/>
        <pt x="1264" y="12" on="0"/>
      </contour>
    </TTGlyph>
    <TTGlyph name="I" xMin="97" yMin="-1" xMax="687" yMax="1398">
      <contour>
        <pt x="300" y="-1" on="1"/>
        <pt x="262" y="-1" on="1"/>
        <pt x="160" y="-1" on="0"/>
        <pt x="97" y="42" on="0"/>
        <pt x="97" y="61" on="1"/>
        <pt x="97" y="77" on="1"/>
        <pt x="97" y="83" on="0"/>
        <pt x="171" y="184" on="1"/>
        <pt x="201" y="225" on="0"/>
        <pt x="261" y="471" on="0"/>
        <pt x="360" y="1101" on="0"/>
        <pt x="360" y="1193" on="0"/>
        <pt x="312" y="1270" on="0"/>
        <pt x="312" y="1350" on="0"/>
        <pt x="422" y="1398" on="0"/>
        <pt x="519" y="1398" on="1"/>
        <pt x="576" y="1398" on="1"/>
        <pt x="687" y="1398" on="0"/>
        <pt x="687" y="1345" on="1"/>
        <pt x="687" y="1331" on="1"/>
        <pt x="687" y="1314" on="0"/>
        <pt x="619" y="1228" on="1"/>
        <pt x="595" y="1198" on="0"/>
        <pt x="554" y="1034" on="0"/>
        <pt x="425" y="315" on="0"/>
        <pt x="425" y="196" on="0"/>
        <pt x="470" y="116" on="0"/>
        <pt x="470" y="48" on="0"/>
        <pt x="384" y="-1" on="0"/>
      </contour>
    </TTGlyph>
    <TTGlyph name="Iacute" xMin="92" yMin="9" xMax="818" yMax="1860">
      <contour>
        <pt x="753" y="1860" on="1"/>
        <pt x="818" y="1860" on="0"/>
        <pt x="818" y="1833" on="1"/>
        <pt x="818" y="1829" on="1"/>
        <pt x="818" y="1786" on="0"/>
        <pt x="511" y="1547" on="0"/>
        <pt x="454" y="1547" on="1"/>
        <pt x="438" y="1547" on="1"/>
        <pt x="411" y="1547" on="0"/>
        <pt x="411" y="1565" on="1"/>
        <pt x="411" y="1569" on="1"/>
        <pt x="411" y="1584" on="0"/>
        <pt x="434" y="1614" on="1"/>
        <pt x="538" y="1748" on="0"/>
        <pt x="664" y="1858" on="0"/>
        <pt x="715" y="1858" on="1"/>
        <pt x="726" y="1860" on="1"/>
      </contour>
      <contour>
        <pt x="247" y="9" on="1"/>
        <pt x="92" y="9" on="0"/>
        <pt x="92" y="76" on="1"/>
        <pt x="92" y="105" on="0"/>
        <pt x="189" y="207" on="0"/>
        <pt x="230" y="379" on="0"/>
        <pt x="363" y="1176" on="0"/>
        <pt x="363" y="1226" on="0"/>
        <pt x="304" y="1298" on="0"/>
        <pt x="304" y="1326" on="1"/>
        <pt x="304" y="1422" on="0"/>
        <pt x="544" y="1422" on="1"/>
        <pt x="562" y="1422" on="1"/>
        <pt x="666" y="1422" on="0"/>
        <pt x="666" y="1366" on="1"/>
        <pt x="666" y="1333" on="0"/>
        <pt x="577" y="1244" on="0"/>
        <pt x="553" y="1139" on="0"/>
        <pt x="396" y="263" on="0"/>
        <pt x="396" y="198" on="0"/>
        <pt x="451" y="115" on="0"/>
        <pt x="451" y="55" on="0"/>
        <pt x="366" y="9" on="0"/>
        <pt x="283" y="9" on="1"/>
      </contour>
    </TTGlyph>
    <TTGlyph name="Icircumflex" xMin="85" yMin="6" xMax="806" yMax="1861">
      <contour>
        <pt x="277" y="1548" on="1"/>
        <pt x="263" y="1548" on="1"/>
        <pt x="238" y="1548" on="0"/>
        <pt x="238" y="1569" on="1"/>
        <pt x="238" y="1578" on="0"/>
        <pt x="521" y="1861" on="0"/>
        <pt x="623" y="1861" on="0"/>
        <pt x="654" y="1819" on="1"/>
        <pt x="806" y="1616" on="0"/>
        <pt x="806" y="1574" on="1"/>
        <pt x="806" y="1549" on="0"/>
        <pt x="718" y="1549" on="0"/>
        <pt x="555" y="1712" on="0"/>
        <pt x="540" y="1712" on="0"/>
        <pt x="486" y="1670" on="1"/>
        <pt x="328" y="1548" on="0"/>
      </contour>
      <contour>
        <pt x="240" y="6" on="1"/>
        <pt x="85" y="6" on="0"/>
        <pt x="85" y="73" on="1"/>
        <pt x="85" y="104" on="0"/>
        <pt x="180" y="199" on="0"/>
        <pt x="195" y="255" on="1"/>
        <pt x="223" y="360" on="0"/>
        <pt x="357" y="1184" on="0"/>
        <pt x="357" y="1219" on="0"/>
        <pt x="298" y="1296" on="0"/>
        <pt x="298" y="1322" on="1"/>
        <pt x="298" y="1417" on="0"/>
        <pt x="519" y="1417" on="1"/>
        <pt x="556" y="1417" on="1"/>
        <pt x="659" y="1417" on="0"/>
        <pt x="659" y="1361" on="1"/>
        <pt x="659" y="1328" on="0"/>
        <pt x="573" y="1242" on="0"/>
        <pt x="553" y="1163" on="0"/>
        <pt x="442" y="542" on="0"/>
        <pt x="389" y="286" on="0"/>
        <pt x="389" y="192" on="0"/>
        <pt x="443" y="115" on="0"/>
        <pt x="443" y="57" on="0"/>
        <pt x="377" y="6" on="0"/>
        <pt x="294" y="6" on="1"/>
      </contour>
    </TTGlyph>
    <TTGlyph name="Idieresis" xMin="93" yMin="7" xMax="839" yMax="1792">
      <contour>
        <pt x="471" y="1708" on="1"/>
        <pt x="471" y="1698" on="1"/>
        <pt x="471" y="1655" on="0"/>
        <pt x="409" y="1577" on="0"/>
        <pt x="355" y="1577" on="1"/>
        <pt x="345" y="1577" on="1"/>
        <pt x="307" y="1577" on="0"/>
        <pt x="262" y="1622" on="0"/>
        <pt x="262" y="1650" on="1"/>
        <pt x="262" y="1681" on="1"/>
        <pt x="265" y="1690" on="0"/>
        <pt x="265" y="1719" on="0"/>
        <pt x="324" y="1792" on="0"/>
        <pt x="376" y="1792" on="1"/>
        <pt x="383" y="1792" on="1"/>
        <pt x="417" y="1792" on="0"/>
        <pt x="471" y="1749" on="0"/>
      </contour>
      <contour>
        <pt x="735" y="1792" on="1"/>
        <pt x="759" y="1792" on="1"/>
        <pt x="835" y="1792" on="0"/>
        <pt x="835" y="1730" on="1"/>
        <pt x="837" y="1724" on="0"/>
        <pt x="837" y="1720" on="1"/>
        <pt x="839" y="1704" on="1"/>
        <pt x="839" y="1697" on="1"/>
        <pt x="834" y="1666" on="1"/>
        <pt x="834" y="1649" on="0"/>
        <pt x="780" y="1582" on="0"/>
        <pt x="752" y="1582" on="1"/>
        <pt x="718" y="1577" on="1"/>
        <pt x="682" y="1577" on="0"/>
        <pt x="629" y="1619" on="0"/>
        <pt x="629" y="1659" on="1"/>
        <pt x="629" y="1669" on="1"/>
        <pt x="634" y="1704" on="1"/>
        <pt x="634" y="1729" on="0"/>
        <pt x="697" y="1792" on="0"/>
      </contour>
      <contour>
        <pt x="247" y="7" on="1"/>
        <pt x="93" y="7" on="0"/>
        <pt x="93" y="74" on="1"/>
        <pt x="93" y="108" on="0"/>
        <pt x="188" y="196" on="0"/>
        <pt x="224" y="342" on="0"/>
        <pt x="267" y="588" on="1"/>
        <pt x="274" y="628" on="1"/>
        <pt x="316" y="878" on="1"/>
        <pt x="321" y="920" on="0"/>
        <pt x="366" y="1155" on="0"/>
        <pt x="366" y="1220" on="0"/>
        <pt x="306" y="1298" on="0"/>
        <pt x="306" y="1323" on="1"/>
        <pt x="306" y="1418" on="0"/>
        <pt x="509" y="1418" on="1"/>
        <pt x="564" y="1418" on="1"/>
        <pt x="667" y="1418" on="0"/>
        <pt x="667" y="1362" on="1"/>
        <pt x="667" y="1330" on="0"/>
        <pt x="583" y="1250" on="0"/>
        <pt x="556" y="1160" on="0"/>
        <pt x="396" y="245" on="0"/>
        <pt x="396" y="193" on="0"/>
        <pt x="451" y="111" on="0"/>
        <pt x="451" y="91" on="1"/>
        <pt x="451" y="7" on="0"/>
        <pt x="284" y="7" on="1"/>
      </contour>
    </TTGlyph>
    <TTGlyph name="Igrave" xMin="85" yMin="10" xMax="658" yMax="1861">
      <contour>
        <pt x="617" y="1577" on="1"/>
        <pt x="617" y="1568" on="1"/>
        <pt x="617" y="1547" on="0"/>
        <pt x="590" y="1547" on="1"/>
        <pt x="585" y="1547" on="1"/>
        <pt x="580" y="1548" on="1"/>
        <pt x="576" y="1548" on="1"/>
        <pt x="521" y="1548" on="0"/>
        <pt x="450" y="1610" on="1"/>
        <pt x="267" y="1770" on="0"/>
        <pt x="267" y="1815" on="1"/>
        <pt x="267" y="1824" on="1"/>
        <pt x="267" y="1861" on="0"/>
        <pt x="335" y="1861" on="1"/>
        <pt x="371" y="1861" on="1"/>
        <pt x="425" y="1861" on="0"/>
        <pt x="470" y="1810" on="1"/>
        <pt x="617" y="1642" on="0"/>
      </contour>
      <contour>
        <pt x="222" y="10" on="1"/>
        <pt x="85" y="10" on="0"/>
        <pt x="85" y="80" on="1"/>
        <pt x="85" y="106" on="0"/>
        <pt x="181" y="206" on="0"/>
        <pt x="214" y="341" on="0"/>
        <pt x="267" y="642" on="0"/>
        <pt x="279" y="705" on="0"/>
        <pt x="295" y="805" on="0"/>
        <pt x="306" y="874" on="0"/>
        <pt x="313" y="925" on="0"/>
        <pt x="356" y="1146" on="0"/>
        <pt x="356" y="1225" on="0"/>
        <pt x="298" y="1295" on="0"/>
        <pt x="298" y="1333" on="1"/>
        <pt x="298" y="1421" on="0"/>
        <pt x="537" y="1421" on="1"/>
        <pt x="556" y="1421" on="1"/>
        <pt x="658" y="1421" on="0"/>
        <pt x="658" y="1365" on="1"/>
        <pt x="658" y="1331" on="0"/>
        <pt x="573" y="1246" on="0"/>
        <pt x="547" y="1143" on="0"/>
        <pt x="389" y="263" on="0"/>
        <pt x="389" y="196" on="0"/>
        <pt x="443" y="119" on="0"/>
        <pt x="443" y="54" on="0"/>
        <pt x="361" y="10" on="0"/>
        <pt x="294" y="10" on="1"/>
      </contour>
    </TTGlyph>
    <TTGlyph name="J" xMin="-23" yMin="-191" xMax="790" yMax="1396">
      <contour>
        <pt x="509" y="841" on="0"/>
        <pt x="509" y="1093" on="0"/>
        <pt x="489" y="1185" on="0"/>
        <pt x="455" y="1243" on="0"/>
        <pt x="455" y="1276" on="1"/>
        <pt x="455" y="1335" on="0"/>
        <pt x="570" y="1396" on="0"/>
        <pt x="709" y="1396" on="0"/>
        <pt x="790" y="1331" on="0"/>
        <pt x="790" y="1288" on="1"/>
        <pt x="790" y="1274" on="1"/>
        <pt x="790" y="1126" on="0"/>
        <pt x="644" y="469" on="1"/>
        <pt x="598" y="261" on="0"/>
        <pt x="471" y="-26" on="0"/>
        <pt x="257" y="-191" on="0"/>
        <pt x="127" y="-191" on="1"/>
        <pt x="107" y="-191" on="1"/>
        <pt x="39" y="-191" on="0"/>
        <pt x="-4" y="-158" on="1"/>
        <pt x="-23" y="-144" on="0"/>
        <pt x="-23" y="-124" on="1"/>
        <pt x="-23" y="-77" on="0"/>
        <pt x="47" y="-32" on="1"/>
        <pt x="60" y="-23" on="0"/>
        <pt x="208" y="29" on="0"/>
        <pt x="302" y="112" on="0"/>
        <pt x="342" y="202" on="1"/>
        <pt x="434" y="409" on="0"/>
        <pt x="488" y="720" on="1"/>
      </contour>
    </TTGlyph>
    <TTGlyph name="K" xMin="104" yMin="-7" xMax="1313" yMax="1387">
      <contour>
        <pt x="1114" y="1387" on="0"/>
        <pt x="1313" y="1387" on="0"/>
        <pt x="1313" y="1344" on="1"/>
        <pt x="1313" y="1341" on="0"/>
        <pt x="932" y="986" on="0"/>
        <pt x="820" y="861" on="1"/>
        <pt x="754" y="787" on="0"/>
        <pt x="754" y="744" on="1"/>
        <pt x="754" y="735" on="0"/>
        <pt x="959" y="371" on="1"/>
        <pt x="1030" y="246" on="0"/>
        <pt x="1175" y="97" on="0"/>
        <pt x="1175" y="34" on="1"/>
        <pt x="1175" y="-7" on="0"/>
        <pt x="967" y="-7" on="0"/>
        <pt x="919" y="44" on="1"/>
        <pt x="904" y="61" on="0"/>
        <pt x="703" y="445" on="0"/>
        <pt x="665" y="508" on="1"/>
        <pt x="595" y="624" on="0"/>
        <pt x="557" y="624" on="1"/>
        <pt x="490" y="624" on="0"/>
        <pt x="401" y="400" on="0"/>
        <pt x="401" y="190" on="1"/>
        <pt x="401" y="100" on="0"/>
        <pt x="301" y="12" on="0"/>
        <pt x="145" y="12" on="0"/>
        <pt x="104" y="39" on="0"/>
        <pt x="104" y="94" on="0"/>
        <pt x="176" y="205" on="0"/>
        <pt x="191" y="289" on="1"/>
        <pt x="338" y="1087" on="0"/>
        <pt x="338" y="1186" on="1"/>
        <pt x="338" y="1211" on="0"/>
        <pt x="307" y="1292" on="0"/>
        <pt x="307" y="1294" on="1"/>
        <pt x="307" y="1343" on="0"/>
        <pt x="369" y="1375" on="0"/>
        <pt x="505" y="1375" on="0"/>
        <pt x="587" y="1327" on="0"/>
        <pt x="587" y="1293" on="1"/>
        <pt x="587" y="1292" on="0"/>
        <pt x="487" y="983" on="0"/>
        <pt x="487" y="874" on="1"/>
        <pt x="487" y="828" on="0"/>
        <pt x="514" y="828" on="1"/>
        <pt x="574" y="828" on="0"/>
        <pt x="974" y="1199" on="0"/>
        <pt x="1015" y="1259" on="1"/>
        <pt x="1023" y="1270" on="0"/>
        <pt x="1058" y="1337" on="0"/>
        <pt x="1070" y="1348" on="1"/>
      </contour>
    </TTGlyph>
    <TTGlyph name="L" xMin="89" yMin="-8" xMax="1032" yMax="1398">
      <contour>
        <pt x="505" y="1398" on="1"/>
        <pt x="635" y="1398" on="0"/>
        <pt x="635" y="1321" on="1"/>
        <pt x="635" y="1314" on="0"/>
        <pt x="557" y="1177" on="0"/>
        <pt x="536" y="1082" on="1"/>
        <pt x="388" y="423" on="0"/>
        <pt x="388" y="219" on="1"/>
        <pt x="388" y="168" on="0"/>
        <pt x="439" y="149" on="1"/>
        <pt x="473" y="136" on="0"/>
        <pt x="585" y="136" on="1"/>
        <pt x="698" y="136" on="0"/>
        <pt x="822" y="172" on="0"/>
        <pt x="969" y="231" on="0"/>
        <pt x="1032" y="231" on="0"/>
        <pt x="1032" y="181" on="1"/>
        <pt x="1032" y="71" on="0"/>
        <pt x="939" y="-8" on="0"/>
        <pt x="836" y="-8" on="1"/>
        <pt x="785" y="-8" on="1"/>
        <pt x="759" y="-7" on="1"/>
        <pt x="655" y="-5" on="1"/>
        <pt x="629" y="-4" on="0"/>
        <pt x="603" y="-4" on="1"/>
        <pt x="496" y="-2" on="1"/>
        <pt x="444" y="-2" on="1"/>
        <pt x="201" y="-2" on="0"/>
        <pt x="89" y="23" on="0"/>
        <pt x="89" y="70" on="1"/>
        <pt x="89" y="95" on="0"/>
        <pt x="169" y="207" on="0"/>
        <pt x="188" y="294" on="1"/>
        <pt x="336" y="980" on="0"/>
        <pt x="336" y="1167" on="1"/>
        <pt x="336" y="1188" on="0"/>
        <pt x="298" y="1290" on="0"/>
        <pt x="298" y="1295" on="1"/>
        <pt x="298" y="1337" on="0"/>
        <pt x="371" y="1398" on="0"/>
        <pt x="431" y="1398" on="1"/>
      </contour>
    </TTGlyph>
    <TTGlyph name="Lslash" xMin="95" yMin="-19" xMax="1079" yMax="1370">
      <contour>
        <pt x="95" y="65" on="1"/>
        <pt x="95" y="84" on="1"/>
        <pt x="96" y="94" on="0"/>
        <pt x="136" y="145" on="1"/>
        <pt x="225" y="257" on="0"/>
        <pt x="225" y="444" on="1"/>
        <pt x="225" y="488" on="0"/>
        <pt x="141" y="524" on="0"/>
        <pt x="141" y="596" on="0"/>
        <pt x="258" y="735" on="0"/>
        <pt x="282" y="806" on="1"/>
        <pt x="359" y="1037" on="0"/>
        <pt x="359" y="1165" on="1"/>
        <pt x="359" y="1199" on="0"/>
        <pt x="316" y="1278" on="0"/>
        <pt x="316" y="1322" on="0"/>
        <pt x="390" y="1370" on="0"/>
        <pt x="437" y="1370" on="1"/>
        <pt x="490" y="1370" on="1"/>
        <pt x="577" y="1370" on="0"/>
        <pt x="646" y="1323" on="0"/>
        <pt x="646" y="1274" on="0"/>
        <pt x="586" y="1178" on="0"/>
        <pt x="550" y="1063" on="0"/>
        <pt x="550" y="937" on="1"/>
        <pt x="550" y="873" on="0"/>
        <pt x="611" y="873" on="1"/>
        <pt x="624" y="873" on="0"/>
        <pt x="656" y="883" on="1"/>
        <pt x="707" y="899" on="1"/>
        <pt x="767" y="915" on="0"/>
        <pt x="826" y="915" on="0"/>
        <pt x="826" y="891" on="1"/>
        <pt x="826" y="843" on="0"/>
        <pt x="548" y="684" on="0"/>
        <pt x="499" y="606" on="1"/>
        <pt x="469" y="558" on="0"/>
        <pt x="412" y="290" on="0"/>
        <pt x="412" y="261" on="1"/>
        <pt x="412" y="180" on="0"/>
        <pt x="501" y="116" on="0"/>
        <pt x="682" y="116" on="1"/>
        <pt x="776" y="116" on="0"/>
        <pt x="1046" y="246" on="0"/>
        <pt x="1057" y="246" on="1"/>
        <pt x="1079" y="246" on="0"/>
        <pt x="1079" y="93" on="0"/>
        <pt x="991" y="-19" on="0"/>
        <pt x="902" y="-19" on="1"/>
        <pt x="870" y="-19" on="1"/>
        <pt x="309" y="-2" on="1"/>
        <pt x="95" y="-2" on="0"/>
      </contour>
    </TTGlyph>
    <TTGlyph name="M" xMin="101" yMin="23" xMax="1721" yMax="1379">
      <contour>
        <pt x="511" y="1008" on="1"/>
        <pt x="484" y="1008" on="0"/>
        <pt x="393" y="579" on="1"/>
        <pt x="363" y="439" on="0"/>
        <pt x="325" y="140" on="0"/>
        <pt x="323" y="135" on="1"/>
        <pt x="310" y="106" on="0"/>
        <pt x="239" y="49" on="0"/>
        <pt x="182" y="49" on="1"/>
        <pt x="101" y="49" on="0"/>
        <pt x="101" y="125" on="1"/>
        <pt x="118" y="166" on="1"/>
        <pt x="166" y="246" on="1"/>
        <pt x="185" y="287" on="0"/>
        <pt x="209" y="395" on="1"/>
        <pt x="348" y="1030" on="0"/>
        <pt x="348" y="1233" on="1"/>
        <pt x="346" y="1275" on="1"/>
        <pt x="344" y="1310" on="1"/>
        <pt x="344" y="1339" on="0"/>
        <pt x="374" y="1359" on="1"/>
        <pt x="405" y="1379" on="0"/>
        <pt x="519" y="1379" on="0"/>
        <pt x="612" y="1318" on="0"/>
        <pt x="686" y="1181" on="0"/>
        <pt x="885" y="491" on="0"/>
        <pt x="910" y="491" on="1"/>
        <pt x="936" y="526" on="1"/>
        <pt x="985" y="596" on="0"/>
        <pt x="1177" y="896" on="1"/>
        <pt x="1368" y="1196" on="0"/>
        <pt x="1414" y="1254" on="1"/>
        <pt x="1511" y="1378" on="0"/>
        <pt x="1642" y="1378" on="1"/>
        <pt x="1721" y="1378" on="0"/>
        <pt x="1721" y="1333" on="1"/>
        <pt x="1721" y="1323" on="0"/>
        <pt x="1661" y="1170" on="0"/>
        <pt x="1600" y="735" on="0"/>
        <pt x="1584" y="623" on="1"/>
        <pt x="1576" y="567" on="1"/>
        <pt x="1531" y="273" on="0"/>
        <pt x="1531" y="250" on="1"/>
        <pt x="1536" y="206" on="1"/>
        <pt x="1550" y="168" on="1"/>
        <pt x="1561" y="129" on="1"/>
        <pt x="1561" y="78" on="0"/>
        <pt x="1545" y="59" on="1"/>
        <pt x="1515" y="23" on="0"/>
        <pt x="1377" y="23" on="0"/>
        <pt x="1294" y="79" on="0"/>
        <pt x="1294" y="134" on="1"/>
        <pt x="1294" y="141" on="0"/>
        <pt x="1353" y="369" on="0"/>
        <pt x="1398" y="691" on="1"/>
        <pt x="1427" y="900" on="0"/>
        <pt x="1427" y="973" on="1"/>
        <pt x="1427" y="1012" on="0"/>
        <pt x="1419" y="1012" on="1"/>
        <pt x="1405" y="1012" on="0"/>
        <pt x="1030" y="391" on="0"/>
        <pt x="881" y="175" on="0"/>
        <pt x="811" y="175" on="1"/>
        <pt x="772" y="175" on="0"/>
        <pt x="725" y="274" on="0"/>
        <pt x="545" y="1008" on="0"/>
      </contour>
    </TTGlyph>
    <TTGlyph name="N" xMin="94" yMin="18" xMax="1502" yMax="1386">
      <contour>
        <pt x="1159" y="18" on="1"/>
        <pt x="1064" y="18" on="0"/>
        <pt x="985" y="146" on="1"/>
        <pt x="961" y="184" on="0"/>
        <pt x="543" y="1052" on="0"/>
        <pt x="503" y="1052" on="1"/>
        <pt x="489" y="1052" on="0"/>
        <pt x="464" y="969" on="0"/>
        <pt x="356" y="341" on="0"/>
        <pt x="356" y="252" on="0"/>
        <pt x="361" y="219" on="1"/>
        <pt x="371" y="156" on="1"/>
        <pt x="371" y="90" on="0"/>
        <pt x="264" y="18" on="0"/>
        <pt x="94" y="18" on="0"/>
        <pt x="94" y="78" on="1"/>
        <pt x="94" y="109" on="0"/>
        <pt x="177" y="245" on="0"/>
        <pt x="195" y="324" on="1"/>
        <pt x="348" y="1008" on="0"/>
        <pt x="348" y="1217" on="1"/>
        <pt x="348" y="1242" on="0"/>
        <pt x="325" y="1326" on="0"/>
        <pt x="325" y="1341" on="1"/>
        <pt x="326" y="1379" on="0"/>
        <pt x="408" y="1379" on="1"/>
        <pt x="556" y="1379" on="0"/>
        <pt x="666" y="1212" on="1"/>
        <pt x="735" y="1106" on="0"/>
        <pt x="1087" y="367" on="0"/>
        <pt x="1115" y="367" on="0"/>
        <pt x="1138" y="438" on="0"/>
        <pt x="1245" y="1039" on="0"/>
        <pt x="1245" y="1152" on="1"/>
        <pt x="1243" y="1187" on="1"/>
        <pt x="1239" y="1241" on="0"/>
        <pt x="1239" y="1253" on="1"/>
        <pt x="1239" y="1305" on="0"/>
        <pt x="1307" y="1386" on="0"/>
        <pt x="1385" y="1386" on="1"/>
        <pt x="1422" y="1386" on="1"/>
        <pt x="1456" y="1386" on="0"/>
        <pt x="1502" y="1342" on="0"/>
        <pt x="1502" y="1264" on="0"/>
        <pt x="1413" y="1131" on="0"/>
        <pt x="1341" y="805" on="0"/>
        <pt x="1247" y="273" on="0"/>
        <pt x="1220" y="91" on="0"/>
        <pt x="1217" y="81" on="1"/>
        <pt x="1200" y="18" on="0"/>
      </contour>
    </TTGlyph>
    <TTGlyph name="Nacute" xMin="90" yMin="35" xMax="1567" yMax="1884">
      <contour>
        <pt x="1239" y="1884" on="1"/>
        <pt x="1335" y="1884" on="0"/>
        <pt x="1335" y="1844" on="1"/>
        <pt x="1334" y="1839" on="1"/>
        <pt x="1334" y="1835" on="1"/>
        <pt x="1334" y="1799" on="0"/>
        <pt x="1113" y="1644" on="1"/>
        <pt x="994" y="1561" on="0"/>
        <pt x="932" y="1561" on="1"/>
        <pt x="922" y="1561" on="1"/>
        <pt x="892" y="1561" on="0"/>
        <pt x="892" y="1586" on="1"/>
        <pt x="892" y="1595" on="0"/>
        <pt x="1146" y="1881" on="0"/>
        <pt x="1205" y="1881" on="1"/>
        <pt x="1233" y="1884" on="1"/>
      </contour>
      <contour>
        <pt x="1185" y="35" on="1"/>
        <pt x="1090" y="35" on="0"/>
        <pt x="1006" y="179" on="1"/>
        <pt x="972" y="237" on="0"/>
        <pt x="811" y="597" on="0"/>
        <pt x="791" y="640" on="1"/>
        <pt x="576" y="1096" on="0"/>
        <pt x="553" y="1096" on="1"/>
        <pt x="517" y="1096" on="0"/>
        <pt x="496" y="1011" on="1"/>
        <pt x="350" y="413" on="0"/>
        <pt x="350" y="291" on="1"/>
        <pt x="350" y="258" on="0"/>
        <pt x="361" y="226" on="1"/>
        <pt x="373" y="197" on="1"/>
        <pt x="391" y="152" on="0"/>
        <pt x="391" y="145" on="1"/>
        <pt x="391" y="99" on="0"/>
        <pt x="304" y="59" on="0"/>
        <pt x="90" y="59" on="0"/>
        <pt x="90" y="124" on="1"/>
        <pt x="90" y="148" on="0"/>
        <pt x="181" y="266" on="0"/>
        <pt x="239" y="450" on="0"/>
        <pt x="295" y="780" on="0"/>
        <pt x="375" y="1148" on="0"/>
        <pt x="375" y="1246" on="0"/>
        <pt x="366" y="1272" on="1"/>
        <pt x="350" y="1305" on="1"/>
        <pt x="326" y="1355" on="0"/>
        <pt x="326" y="1361" on="1"/>
        <pt x="326" y="1414" on="0"/>
        <pt x="413" y="1414" on="1"/>
        <pt x="456" y="1414" on="1"/>
        <pt x="592" y="1414" on="0"/>
        <pt x="774" y="1149" on="0"/>
        <pt x="1123" y="424" on="0"/>
        <pt x="1148" y="424" on="0"/>
        <pt x="1189" y="546" on="0"/>
        <pt x="1291" y="1048" on="0"/>
        <pt x="1291" y="1134" on="1"/>
        <pt x="1283" y="1208" on="1"/>
        <pt x="1277" y="1267" on="0"/>
        <pt x="1277" y="1271" on="1"/>
        <pt x="1277" y="1337" on="0"/>
        <pt x="1356" y="1403" on="0"/>
        <pt x="1485" y="1403" on="1"/>
        <pt x="1567" y="1403" on="0"/>
        <pt x="1567" y="1342" on="1"/>
        <pt x="1567" y="1337" on="0"/>
        <pt x="1490" y="1236" on="1"/>
        <pt x="1456" y="1191" on="0"/>
        <pt x="1379" y="915" on="0"/>
        <pt x="1263" y="368" on="0"/>
        <pt x="1245" y="255" on="0"/>
        <pt x="1235" y="88" on="0"/>
        <pt x="1229" y="73" on="1"/>
        <pt x="1214" y="35" on="0"/>
      </contour>
    </TTGlyph>
    <TTGlyph name="Ntilde" xMin="95" yMin="26" xMax="1531" yMax="1790">
      <contour>
        <pt x="863" y="1790" on="1"/>
        <pt x="887" y="1790" on="1"/>
        <pt x="931" y="1790" on="0"/>
        <pt x="1080" y="1701" on="0"/>
        <pt x="1162" y="1701" on="0"/>
        <pt x="1258" y="1781" on="0"/>
        <pt x="1312" y="1781" on="0"/>
        <pt x="1312" y="1755" on="1"/>
        <pt x="1312" y="1698" on="0"/>
        <pt x="1175" y="1572" on="0"/>
        <pt x="1095" y="1572" on="1"/>
        <pt x="1087" y="1573" on="1"/>
        <pt x="1041" y="1573" on="0"/>
        <pt x="879" y="1664" on="0"/>
        <pt x="801" y="1664" on="0"/>
        <pt x="703" y="1583" on="0"/>
        <pt x="650" y="1583" on="0"/>
        <pt x="650" y="1609" on="1"/>
        <pt x="650" y="1662" on="0"/>
        <pt x="790" y="1790" on="0"/>
      </contour>
      <contour>
        <pt x="1440" y="1403" on="1"/>
        <pt x="1531" y="1403" on="0"/>
        <pt x="1531" y="1310" on="1"/>
        <pt x="1531" y="1286" on="0"/>
        <pt x="1444" y="1175" on="0"/>
        <pt x="1394" y="994" on="0"/>
        <pt x="1317" y="569" on="0"/>
        <pt x="1281" y="371" on="0"/>
        <pt x="1258" y="223" on="1"/>
        <pt x="1240" y="94" on="1"/>
        <pt x="1225" y="26" on="0"/>
        <pt x="1187" y="26" on="1"/>
        <pt x="1157" y="26" on="1"/>
        <pt x="1099" y="26" on="0"/>
        <pt x="995" y="195" on="1"/>
        <pt x="972" y="232" on="0"/>
        <pt x="549" y="1069" on="0"/>
        <pt x="506" y="1069" on="1"/>
        <pt x="491" y="1069" on="0"/>
        <pt x="474" y="1022" on="0"/>
        <pt x="352" y="376" on="0"/>
        <pt x="352" y="273" on="0"/>
        <pt x="361" y="227" on="1"/>
        <pt x="369" y="194" on="1"/>
        <pt x="375" y="164" on="1"/>
        <pt x="375" y="27" on="0"/>
        <pt x="158" y="27" on="1"/>
        <pt x="95" y="27" on="0"/>
        <pt x="95" y="77" on="1"/>
        <pt x="95" y="111" on="0"/>
        <pt x="180" y="238" on="0"/>
        <pt x="219" y="401" on="0"/>
        <pt x="297" y="856" on="0"/>
        <pt x="354" y="1141" on="0"/>
        <pt x="354" y="1247" on="0"/>
        <pt x="325" y="1334" on="0"/>
        <pt x="325" y="1351" on="1"/>
        <pt x="325" y="1394" on="0"/>
        <pt x="400" y="1394" on="1"/>
        <pt x="548" y="1394" on="0"/>
        <pt x="667" y="1235" on="1"/>
        <pt x="728" y="1153" on="0"/>
        <pt x="1120" y="370" on="0"/>
        <pt x="1139" y="370" on="1"/>
        <pt x="1151" y="391" on="1"/>
        <pt x="1164" y="429" on="0"/>
        <pt x="1272" y="1042" on="0"/>
        <pt x="1272" y="1158" on="1"/>
        <pt x="1269" y="1194" on="1"/>
        <pt x="1263" y="1254" on="0"/>
        <pt x="1263" y="1262" on="1"/>
        <pt x="1263" y="1403" on="0"/>
      </contour>
    </TTGlyph>
    <TTGlyph name="O" xMin="132" yMin="-20" xMax="1430" yMax="1425">
      <contour>
        <pt x="1221" y="822" on="1"/>
        <pt x="1221" y="872" on="1"/>
        <pt x="1221" y="1050" on="0"/>
        <pt x="1043" y="1285" on="0"/>
        <pt x="888" y="1285" on="1"/>
        <pt x="854" y="1285" on="1"/>
        <pt x="765" y="1285" on="0"/>
        <pt x="576" y="1177" on="0"/>
        <pt x="421" y="964" on="0"/>
        <pt x="341" y="690" on="0"/>
        <pt x="341" y="568" on="1"/>
        <pt x="341" y="552" on="1"/>
        <pt x="341" y="550" on="0"/>
        <pt x="341" y="549" on="1"/>
        <pt x="341" y="265" on="0"/>
        <pt x="524" y="157" on="1"/>
        <pt x="584" y="121" on="0"/>
        <pt x="658" y="121" on="1"/>
        <pt x="708" y="121" on="1"/>
        <pt x="798" y="121" on="0"/>
        <pt x="983" y="227" on="0"/>
        <pt x="1132" y="428" on="0"/>
        <pt x="1221" y="703" on="0"/>
      </contour>
      <contour>
        <pt x="1430" y="881" on="1"/>
        <pt x="1430" y="836" on="1"/>
        <pt x="1430" y="674" on="0"/>
        <pt x="1370" y="512" on="1"/>
        <pt x="1250" y="191" on="0"/>
        <pt x="968" y="50" on="1"/>
        <pt x="828" y="-20" on="0"/>
        <pt x="674" y="-20" on="1"/>
        <pt x="652" y="-20" on="1"/>
        <pt x="523" y="-20" on="0"/>
        <pt x="327" y="72" on="0"/>
        <pt x="265" y="144" on="1"/>
        <pt x="132" y="297" on="0"/>
        <pt x="132" y="545" on="1"/>
        <pt x="132" y="567" on="1"/>
        <pt x="132" y="725" on="0"/>
        <pt x="253" y="1056" on="0"/>
        <pt x="366" y="1180" on="1"/>
        <pt x="588" y="1424" on="0"/>
        <pt x="911" y="1425" on="1"/>
        <pt x="1138" y="1425" on="0"/>
        <pt x="1283" y="1276" on="1"/>
        <pt x="1346" y="1211" on="0"/>
        <pt x="1430" y="1001" on="0"/>
      </contour>
    </TTGlyph>
    <TTGlyph name="OE" xMin="171" yMin="-4" xMax="1912" yMax="1410">
      <contour>
        <pt x="1072" y="1102" on="1"/>
        <pt x="1072" y="1191" on="0"/>
        <pt x="1041" y="1224" on="1"/>
        <pt x="987" y="1281" on="0"/>
        <pt x="883" y="1281" on="1"/>
        <pt x="853" y="1281" on="1"/>
        <pt x="751" y="1281" on="0"/>
        <pt x="592" y="1182" on="0"/>
        <pt x="444" y="975" on="0"/>
        <pt x="357" y="707" on="0"/>
        <pt x="357" y="581" on="1"/>
        <pt x="357" y="532" on="1"/>
        <pt x="357" y="367" on="0"/>
        <pt x="444" y="251" on="1"/>
        <pt x="484" y="197" on="0"/>
        <pt x="603" y="140" on="0"/>
        <pt x="664" y="140" on="1"/>
        <pt x="696" y="140" on="1"/>
        <pt x="781" y="140" on="0"/>
        <pt x="851" y="181" on="1"/>
        <pt x="896" y="207" on="0"/>
        <pt x="973" y="356" on="0"/>
        <pt x="1068" y="749" on="0"/>
        <pt x="1068" y="931" on="1"/>
        <pt x="1070" y="963" on="0"/>
        <pt x="1070" y="978" on="1"/>
        <pt x="1072" y="1040" on="1"/>
      </contour>
      <contour>
        <pt x="1744" y="163" on="1"/>
        <pt x="1744" y="120" on="0"/>
        <pt x="1600" y="58" on="1"/>
        <pt x="1516" y="22" on="0"/>
        <pt x="1334" y="22" on="0"/>
        <pt x="1257" y="36" on="0"/>
        <pt x="1158" y="67" on="0"/>
        <pt x="1136" y="67" on="1"/>
        <pt x="1136" y="67" on="0"/>
        <pt x="1135" y="67" on="1"/>
        <pt x="1110" y="67" on="0"/>
        <pt x="948" y="32" on="1"/>
        <pt x="782" y="-4" on="0"/>
        <pt x="666" y="-4" on="1"/>
        <pt x="434" y="-4" on="0"/>
        <pt x="171" y="294" on="0"/>
        <pt x="171" y="532" on="1"/>
        <pt x="171" y="915" on="0"/>
        <pt x="397" y="1172" on="1"/>
        <pt x="498" y="1287" on="0"/>
        <pt x="765" y="1410" on="0"/>
        <pt x="997" y="1410" on="0"/>
        <pt x="1263" y="1346" on="0"/>
        <pt x="1317" y="1346" on="0"/>
        <pt x="1439" y="1385" on="0"/>
        <pt x="1534" y="1402" on="0"/>
        <pt x="1748" y="1402" on="0"/>
        <pt x="1912" y="1313" on="0"/>
        <pt x="1912" y="1270" on="1"/>
        <pt x="1912" y="1244" on="0"/>
        <pt x="1814" y="1244" on="1"/>
        <pt x="1810" y="1244" on="0"/>
        <pt x="1652" y="1262" on="0"/>
        <pt x="1581" y="1262" on="1"/>
        <pt x="1448" y="1262" on="0"/>
        <pt x="1320" y="1102" on="0"/>
        <pt x="1320" y="931" on="1"/>
        <pt x="1320" y="873" on="0"/>
        <pt x="1373" y="810" on="0"/>
        <pt x="1465" y="810" on="1"/>
        <pt x="1491" y="810" on="0"/>
        <pt x="1619" y="836" on="0"/>
        <pt x="1704" y="836" on="0"/>
        <pt x="1734" y="786" on="0"/>
        <pt x="1734" y="680" on="0"/>
        <pt x="1666" y="619" on="0"/>
        <pt x="1611" y="619" on="0"/>
        <pt x="1464" y="652" on="0"/>
        <pt x="1418" y="652" on="1"/>
        <pt x="1305" y="652" on="0"/>
        <pt x="1266" y="585" on="1"/>
        <pt x="1211" y="490" on="0"/>
        <pt x="1211" y="314" on="1"/>
        <pt x="1211" y="224" on="0"/>
        <pt x="1280" y="153" on="0"/>
        <pt x="1407" y="153" on="1"/>
        <pt x="1444" y="153" on="0"/>
        <pt x="1574" y="163" on="1"/>
        <pt x="1611" y="166" on="1"/>
        <pt x="1646" y="170" on="1"/>
        <pt x="1679" y="173" on="0"/>
        <pt x="1744" y="173" on="0"/>
      </contour>
    </TTGlyph>
    <TTGlyph name="Oacute" xMin="132" yMin="0" xMax="1447" yMax="1858">
      <contour>
        <pt x="1247" y="861" on="1"/>
        <pt x="1247" y="895" on="1"/>
        <pt x="1246" y="912" on="1"/>
        <pt x="1246" y="1085" on="0"/>
        <pt x="1058" y="1331" on="0"/>
        <pt x="917" y="1331" on="1"/>
        <pt x="865" y="1331" on="1"/>
        <pt x="780" y="1331" on="0"/>
        <pt x="574" y="1218" on="0"/>
        <pt x="413" y="989" on="0"/>
        <pt x="339" y="725" on="0"/>
        <pt x="339" y="618" on="1"/>
        <pt x="339" y="584" on="1"/>
        <pt x="339" y="396" on="0"/>
        <pt x="529" y="148" on="0"/>
        <pt x="670" y="148" on="1"/>
        <pt x="704" y="148" on="1"/>
        <pt x="923" y="148" on="0"/>
        <pt x="1089" y="373" on="1"/>
        <pt x="1161" y="470" on="0"/>
        <pt x="1247" y="738" on="0"/>
      </contour>
      <contour>
        <pt x="1148" y="1858" on="1"/>
        <pt x="1169" y="1858" on="1"/>
        <pt x="1230" y="1858" on="0"/>
        <pt x="1230" y="1834" on="1"/>
        <pt x="1230" y="1830" on="1"/>
        <pt x="1230" y="1793" on="0"/>
        <pt x="1112" y="1701" on="1"/>
        <pt x="904" y="1539" on="0"/>
        <pt x="854" y="1539" on="1"/>
        <pt x="839" y="1539" on="1"/>
        <pt x="815" y="1539" on="0"/>
        <pt x="815" y="1555" on="1"/>
        <pt x="815" y="1563" on="1"/>
        <pt x="815" y="1620" on="0"/>
        <pt x="1022" y="1801" on="1"/>
        <pt x="1087" y="1858" on="0"/>
      </contour>
      <contour>
        <pt x="1446" y="826" on="1"/>
        <pt x="1446" y="674" on="0"/>
        <pt x="1381" y="518" on="1"/>
        <pt x="1248" y="199" on="0"/>
        <pt x="968" y="65" on="1"/>
        <pt x="831" y="0" on="0"/>
        <pt x="693" y="0" on="1"/>
        <pt x="647" y="0" on="1"/>
        <pt x="538" y="0" on="0"/>
        <pt x="440" y="45" on="1"/>
        <pt x="252" y="132" on="0"/>
        <pt x="178" y="322" on="1"/>
        <pt x="132" y="440" on="0"/>
        <pt x="132" y="560" on="1"/>
        <pt x="132" y="605" on="1"/>
        <pt x="132" y="755" on="0"/>
        <pt x="192" y="918" on="1"/>
        <pt x="250" y="1081" on="0"/>
        <pt x="362" y="1204" on="1"/>
        <pt x="590" y="1455" on="0"/>
        <pt x="909" y="1455" on="1"/>
        <pt x="1151" y="1455" on="0"/>
        <pt x="1301" y="1294" on="1"/>
        <pt x="1376" y="1214" on="0"/>
        <pt x="1447" y="989" on="0"/>
        <pt x="1447" y="871" on="1"/>
        <pt x="1446" y="848" on="1"/>
      </contour>
    </TTGlyph>
    <TTGlyph name="Ocircumflex" xMin="135" yMin="-7" xMax="1449" yMax="1849">
      <contour>
        <pt x="714" y="143" on="1"/>
        <pt x="802" y="143" on="0"/>
        <pt x="902" y="195" on="1"/>
        <pt x="1002" y="248" on="0"/>
        <pt x="1080" y="352" on="1"/>
        <pt x="1248" y="579" on="0"/>
        <pt x="1248" y="860" on="1"/>
        <pt x="1248" y="877" on="1"/>
        <pt x="1248" y="977" on="0"/>
        <pt x="1220" y="1063" on="1"/>
        <pt x="1136" y="1322" on="0"/>
        <pt x="891" y="1322" on="1"/>
        <pt x="874" y="1322" on="1"/>
        <pt x="774" y="1322" on="0"/>
        <pt x="578" y="1207" on="0"/>
        <pt x="430" y="1008" on="0"/>
        <pt x="339" y="742" on="0"/>
        <pt x="339" y="602" on="1"/>
        <pt x="340" y="585" on="1"/>
        <pt x="340" y="390" on="0"/>
        <pt x="527" y="143" on="0"/>
        <pt x="679" y="143" on="1"/>
      </contour>
      <contour>
        <pt x="649" y="1561" on="1"/>
        <pt x="649" y="1574" on="0"/>
        <pt x="949" y="1849" on="0"/>
        <pt x="1036" y="1849" on="0"/>
        <pt x="1069" y="1813" on="1"/>
        <pt x="1223" y="1644" on="0"/>
        <pt x="1223" y="1577" on="1"/>
        <pt x="1223" y="1550" on="0"/>
        <pt x="1129" y="1550" on="0"/>
        <pt x="968" y="1711" on="0"/>
        <pt x="953" y="1711" on="0"/>
        <pt x="729" y="1539" on="0"/>
        <pt x="678" y="1539" on="1"/>
        <pt x="649" y="1539" on="0"/>
        <pt x="649" y="1556" on="1"/>
      </contour>
      <contour>
        <pt x="1449" y="886" on="1"/>
        <pt x="1449" y="840" on="1"/>
        <pt x="1449" y="691" on="0"/>
        <pt x="1330" y="366" on="0"/>
        <pt x="1112" y="126" on="0"/>
        <pt x="833" y="-7" on="0"/>
        <pt x="696" y="-7" on="1"/>
        <pt x="649" y="-7" on="1"/>
        <pt x="540" y="-6" on="0"/>
        <pt x="444" y="38" on="1"/>
        <pt x="250" y="128" on="0"/>
        <pt x="173" y="336" on="1"/>
        <pt x="135" y="440" on="0"/>
        <pt x="135" y="553" on="1"/>
        <pt x="135" y="598" on="1"/>
        <pt x="135" y="749" on="0"/>
        <pt x="251" y="1067" on="0"/>
        <pt x="470" y="1315" on="0"/>
        <pt x="753" y="1446" on="0"/>
        <pt x="888" y="1446" on="1"/>
        <pt x="935" y="1446" on="1"/>
        <pt x="1032" y="1446" on="0"/>
        <pt x="1132" y="1406" on="1"/>
        <pt x="1329" y="1327" on="0"/>
        <pt x="1411" y="1102" on="1"/>
        <pt x="1449" y="998" on="0"/>
      </contour>
    </TTGlyph>
    <TTGlyph name="Odieresis" xMin="135" yMin="-6" xMax="1449" yMax="1794">
      <contour>
        <pt x="1243" y="844" on="1"/>
        <pt x="1243" y="895" on="1"/>
        <pt x="1243" y="1076" on="0"/>
        <pt x="1147" y="1202" on="1"/>
        <pt x="1101" y="1262" on="0"/>
        <pt x="970" y="1321" on="0"/>
        <pt x="907" y="1321" on="1"/>
        <pt x="872" y="1321" on="1"/>
        <pt x="780" y="1321" on="0"/>
        <pt x="681" y="1268" on="1"/>
        <pt x="484" y="1162" on="0"/>
        <pt x="383" y="870" on="1"/>
        <pt x="340" y="745" on="0"/>
        <pt x="340" y="604" on="1"/>
        <pt x="341" y="587" on="1"/>
        <pt x="341" y="382" on="0"/>
        <pt x="535" y="142" on="0"/>
        <pt x="695" y="142" on="1"/>
        <pt x="908" y="142" on="0"/>
        <pt x="1062" y="333" on="1"/>
        <pt x="1145" y="436" on="0"/>
        <pt x="1243" y="711" on="0"/>
      </contour>
      <contour>
        <pt x="767" y="1794" on="1"/>
        <pt x="792" y="1794" on="1"/>
        <pt x="869" y="1794" on="0"/>
        <pt x="869" y="1730" on="1"/>
        <pt x="872" y="1713" on="1"/>
        <pt x="872" y="1693" on="1"/>
        <pt x="869" y="1681" on="0"/>
        <pt x="869" y="1646" on="0"/>
        <pt x="807" y="1584" on="0"/>
        <pt x="781" y="1584" on="1"/>
        <pt x="775" y="1582" on="0"/>
        <pt x="771" y="1582" on="1"/>
        <pt x="754" y="1580" on="1"/>
        <pt x="747" y="1580" on="1"/>
        <pt x="712" y="1580" on="0"/>
        <pt x="660" y="1622" on="0"/>
        <pt x="660" y="1661" on="1"/>
        <pt x="660" y="1675" on="1"/>
        <pt x="664" y="1702" on="1"/>
        <pt x="664" y="1730" on="0"/>
        <pt x="728" y="1794" on="0"/>
      </contour>
      <contour>
        <pt x="1148" y="1789" on="1"/>
        <pt x="1165" y="1789" on="1"/>
        <pt x="1235" y="1789" on="0"/>
        <pt x="1235" y="1719" on="1"/>
        <pt x="1235" y="1695" on="1"/>
        <pt x="1235" y="1651" on="0"/>
        <pt x="1163" y="1564" on="0"/>
        <pt x="1106" y="1564" on="1"/>
        <pt x="1103" y="1564" on="1"/>
        <pt x="1099" y="1565" on="1"/>
        <pt x="1092" y="1565" on="1"/>
        <pt x="1080" y="1567" on="1"/>
        <pt x="1027" y="1567" on="0"/>
        <pt x="1027" y="1634" on="1"/>
        <pt x="1027" y="1655" on="1"/>
        <pt x="1031" y="1680" on="1"/>
        <pt x="1031" y="1708" on="0"/>
        <pt x="1099" y="1789" on="0"/>
      </contour>
      <contour>
        <pt x="1449" y="886" on="1"/>
        <pt x="1449" y="841" on="1"/>
        <pt x="1449" y="690" on="0"/>
        <pt x="1333" y="373" on="0"/>
        <pt x="1121" y="132" on="0"/>
        <pt x="838" y="-6" on="0"/>
        <pt x="696" y="-6" on="1"/>
        <pt x="650" y="-6" on="1"/>
        <pt x="550" y="-6" on="0"/>
        <pt x="353" y="75" on="0"/>
        <pt x="207" y="235" on="0"/>
        <pt x="135" y="447" on="0"/>
        <pt x="135" y="553" on="1"/>
        <pt x="135" y="599" on="1"/>
        <pt x="135" y="760" on="0"/>
        <pt x="260" y="1080" on="0"/>
        <pt x="468" y="1309" on="0"/>
        <pt x="743" y="1447" on="0"/>
        <pt x="889" y="1447" on="1"/>
        <pt x="935" y="1447" on="1"/>
        <pt x="1040" y="1447" on="0"/>
        <pt x="1138" y="1404" on="1"/>
        <pt x="1332" y="1319" on="0"/>
        <pt x="1411" y="1103" on="1"/>
        <pt x="1449" y="999" on="0"/>
      </contour>
    </TTGlyph>
    <TTGlyph name="Ograve" xMin="135" yMin="0" xMax="1449" yMax="1858">
      <contour>
        <pt x="1243" y="841" on="1"/>
        <pt x="1243" y="909" on="1"/>
        <pt x="1243" y="1087" on="0"/>
        <pt x="1047" y="1329" on="0"/>
        <pt x="898" y="1329" on="1"/>
        <pt x="881" y="1329" on="1"/>
        <pt x="672" y="1329" on="0"/>
        <pt x="516" y="1135" on="1"/>
        <pt x="437" y="1037" on="0"/>
        <pt x="340" y="764" on="0"/>
        <pt x="340" y="638" on="1"/>
        <pt x="340" y="587" on="1"/>
        <pt x="340" y="393" on="0"/>
        <pt x="534" y="149" on="0"/>
        <pt x="703" y="149" on="1"/>
        <pt x="910" y="149" on="0"/>
        <pt x="1068" y="345" on="1"/>
        <pt x="1149" y="445" on="0"/>
        <pt x="1243" y="720" on="0"/>
      </contour>
      <contour>
        <pt x="1015" y="1542" on="1"/>
        <pt x="1006" y="1542" on="1"/>
        <pt x="957" y="1542" on="0"/>
        <pt x="895" y="1596" on="1"/>
        <pt x="683" y="1782" on="0"/>
        <pt x="683" y="1822" on="1"/>
        <pt x="684" y="1826" on="1"/>
        <pt x="684" y="1858" on="0"/>
        <pt x="744" y="1858" on="1"/>
        <pt x="774" y="1858" on="1"/>
        <pt x="827" y="1858" on="0"/>
        <pt x="923" y="1762" on="0"/>
        <pt x="1042" y="1583" on="0"/>
        <pt x="1042" y="1568" on="1"/>
        <pt x="1041" y="1563" on="1"/>
        <pt x="1041" y="1559" on="1"/>
        <pt x="1041" y="1542" on="0"/>
      </contour>
      <contour>
        <pt x="1449" y="893" on="1"/>
        <pt x="1449" y="848" on="1"/>
        <pt x="1449" y="701" on="0"/>
        <pt x="1336" y="383" on="0"/>
        <pt x="1115" y="133" on="0"/>
        <pt x="828" y="0" on="0"/>
        <pt x="690" y="0" on="1"/>
        <pt x="441" y="0" on="0"/>
        <pt x="296" y="145" on="1"/>
        <pt x="219" y="222" on="0"/>
        <pt x="135" y="446" on="0"/>
        <pt x="135" y="560" on="1"/>
        <pt x="135" y="606" on="1"/>
        <pt x="135" y="756" on="0"/>
        <pt x="192" y="912" on="1"/>
        <pt x="311" y="1240" on="0"/>
        <pt x="595" y="1380" on="1"/>
        <pt x="743" y="1454" on="0"/>
        <pt x="889" y="1454" on="1"/>
        <pt x="935" y="1454" on="1"/>
        <pt x="1045" y="1454" on="0"/>
        <pt x="1142" y="1409" on="1"/>
        <pt x="1326" y="1324" on="0"/>
        <pt x="1404" y="1130" on="1"/>
        <pt x="1449" y="1017" on="0"/>
      </contour>
    </TTGlyph>
    <TTGlyph name="Oslash" xMin="180" yMin="-9" xMax="1431" yMax="1436">
      <contour>
        <pt x="348" y="623" on="1"/>
        <pt x="348" y="552" on="1"/>
        <pt x="348" y="416" on="0"/>
        <pt x="399" y="327" on="1"/>
        <pt x="416" y="298" on="0"/>
        <pt x="429" y="298" on="1"/>
        <pt x="474" y="298" on="0"/>
        <pt x="748" y="653" on="1"/>
        <pt x="922" y="879" on="0"/>
        <pt x="1052" y="1108" on="1"/>
        <pt x="1084" y="1165" on="0"/>
        <pt x="1084" y="1177" on="1"/>
        <pt x="1084" y="1189" on="1"/>
        <pt x="1084" y="1239" on="0"/>
        <pt x="988" y="1309" on="0"/>
        <pt x="926" y="1309" on="1"/>
        <pt x="899" y="1309" on="1"/>
        <pt x="792" y="1309" on="0"/>
        <pt x="586" y="1198" on="0"/>
        <pt x="440" y="1000" on="0"/>
        <pt x="348" y="735" on="0"/>
      </contour>
      <contour>
        <pt x="618" y="124" on="1"/>
        <pt x="653" y="124" on="1"/>
        <pt x="754" y="124" on="0"/>
        <pt x="860" y="200" on="1"/>
        <pt x="1060" y="343" on="0"/>
        <pt x="1162" y="636" on="1"/>
        <pt x="1222" y="809" on="0"/>
        <pt x="1222" y="954" on="1"/>
        <pt x="1222" y="967" on="1"/>
        <pt x="1222" y="1131" on="0"/>
        <pt x="1178" y="1131" on="1"/>
        <pt x="1160" y="1131" on="0"/>
        <pt x="892" y="721" on="0"/>
        <pt x="525" y="215" on="0"/>
        <pt x="525" y="211" on="1"/>
        <pt x="525" y="201" on="1"/>
        <pt x="525" y="180" on="0"/>
        <pt x="577" y="124" on="0"/>
      </contour>
      <contour>
        <pt x="623" y="-9" on="1"/>
        <pt x="419" y="9" on="1"/>
        <pt x="365" y="9" on="0"/>
        <pt x="299" y="-9" on="0"/>
        <pt x="288" y="-9" on="1"/>
        <pt x="214" y="-9" on="0"/>
        <pt x="214" y="63" on="1"/>
        <pt x="214" y="74" on="0"/>
        <pt x="248" y="176" on="0"/>
        <pt x="248" y="235" on="0"/>
        <pt x="228" y="288" on="1"/>
        <pt x="180" y="416" on="0"/>
        <pt x="180" y="564" on="1"/>
        <pt x="180" y="716" on="0"/>
        <pt x="234" y="884" on="1"/>
        <pt x="287" y="1050" on="0"/>
        <pt x="500" y="1291" on="0"/>
        <pt x="816" y="1427" on="0"/>
        <pt x="971" y="1427" on="1"/>
        <pt x="1167" y="1412" on="1"/>
        <pt x="1213" y="1412" on="0"/>
        <pt x="1278" y="1436" on="0"/>
        <pt x="1290" y="1436" on="1"/>
        <pt x="1304" y="1436" on="1"/>
        <pt x="1369" y="1436" on="0"/>
        <pt x="1369" y="1372" on="1"/>
        <pt x="1368" y="1356" on="1"/>
        <pt x="1360" y="1320" on="1"/>
        <pt x="1353" y="1277" on="0"/>
        <pt x="1353" y="1250" on="1"/>
        <pt x="1353" y="1222" on="0"/>
        <pt x="1372" y="1170" on="1"/>
        <pt x="1431" y="1007" on="0"/>
        <pt x="1431" y="889" on="1"/>
        <pt x="1431" y="863" on="1"/>
        <pt x="1431" y="695" on="0"/>
        <pt x="1309" y="368" on="0"/>
        <pt x="1100" y="135" on="0"/>
        <pt x="818" y="-9" on="0"/>
        <pt x="673" y="-9" on="1"/>
      </contour>
    </TTGlyph>
    <TTGlyph name="Otilde" xMin="134" yMin="-12" xMax="1448" yMax="1776">
      <contour>
        <pt x="1247" y="847" on="1"/>
        <pt x="1247" y="899" on="1"/>
        <pt x="1247" y="986" on="0"/>
        <pt x="1216" y="1070" on="1"/>
        <pt x="1126" y="1314" on="0"/>
        <pt x="899" y="1315" on="1"/>
        <pt x="882" y="1315" on="1"/>
        <pt x="768" y="1315" on="0"/>
        <pt x="670" y="1255" on="1"/>
        <pt x="473" y="1135" on="0"/>
        <pt x="390" y="888" on="1"/>
        <pt x="339" y="740" on="0"/>
        <pt x="339" y="606" on="1"/>
        <pt x="339" y="572" on="1"/>
        <pt x="339" y="387" on="0"/>
        <pt x="434" y="262" on="1"/>
        <pt x="476" y="206" on="0"/>
        <pt x="604" y="138" on="0"/>
        <pt x="671" y="138" on="1"/>
        <pt x="722" y="138" on="1"/>
        <pt x="828" y="138" on="0"/>
        <pt x="924" y="202" on="1"/>
        <pt x="1122" y="333" on="0"/>
        <pt x="1207" y="597" on="1"/>
        <pt x="1247" y="721" on="0"/>
      </contour>
      <contour>
        <pt x="1067" y="1572" on="1"/>
        <pt x="1059" y="1572" on="1"/>
        <pt x="1051" y="1573" on="1"/>
        <pt x="1001" y="1573" on="0"/>
        <pt x="848" y="1659" on="0"/>
        <pt x="768" y="1659" on="0"/>
        <pt x="665" y="1573" on="0"/>
        <pt x="613" y="1573" on="0"/>
        <pt x="613" y="1598" on="1"/>
        <pt x="613" y="1660" on="0"/>
        <pt x="761" y="1774" on="0"/>
        <pt x="842" y="1774" on="1"/>
        <pt x="887" y="1774" on="0"/>
        <pt x="1057" y="1689" on="0"/>
        <pt x="1121" y="1689" on="0"/>
        <pt x="1226" y="1776" on="0"/>
        <pt x="1244" y="1776" on="1"/>
        <pt x="1277" y="1776" on="0"/>
        <pt x="1277" y="1750" on="1"/>
        <pt x="1277" y="1683" on="0"/>
        <pt x="1132" y="1572" on="0"/>
      </contour>
      <contour>
        <pt x="1448" y="880" on="1"/>
        <pt x="1448" y="835" on="1"/>
        <pt x="1448" y="684" on="0"/>
        <pt x="1332" y="367" on="0"/>
        <pt x="1122" y="129" on="0"/>
        <pt x="841" y="-12" on="0"/>
        <pt x="695" y="-12" on="1"/>
        <pt x="649" y="-12" on="1"/>
        <pt x="428" y="-12" on="0"/>
        <pt x="280" y="148" on="1"/>
        <pt x="208" y="225" on="0"/>
        <pt x="134" y="441" on="0"/>
        <pt x="134" y="547" on="1"/>
        <pt x="134" y="593" on="1"/>
        <pt x="134" y="755" on="0"/>
        <pt x="261" y="1081" on="0"/>
        <pt x="480" y="1315" on="0"/>
        <pt x="754" y="1441" on="0"/>
        <pt x="888" y="1441" on="1"/>
        <pt x="934" y="1441" on="1"/>
        <pt x="1038" y="1441" on="0"/>
        <pt x="1136" y="1398" on="1"/>
        <pt x="1330" y="1313" on="0"/>
        <pt x="1410" y="1097" on="1"/>
        <pt x="1448" y="993" on="0"/>
      </contour>
    </TTGlyph>
    <TTGlyph name="P" xMin="99" yMin="1" xMax="1225" yMax="1414">
      <contour>
        <pt x="514" y="709" on="1"/>
        <pt x="602" y="709" on="1"/>
        <pt x="904" y="709" on="0"/>
        <pt x="991" y="896" on="1"/>
        <pt x="1027" y="973" on="0"/>
        <pt x="1027" y="1049" on="1"/>
        <pt x="1027" y="1059" on="1"/>
        <pt x="1027" y="1155" on="0"/>
        <pt x="904" y="1278" on="0"/>
        <pt x="796" y="1278" on="1"/>
        <pt x="776" y="1280" on="1"/>
        <pt x="696" y="1280" on="1"/>
        <pt x="581" y="1280" on="0"/>
        <pt x="562" y="1237" on="1"/>
        <pt x="552" y="1214" on="0"/>
        <pt x="528" y="1065" on="0"/>
        <pt x="469" y="783" on="0"/>
        <pt x="469" y="745" on="1"/>
        <pt x="469" y="737" on="1"/>
        <pt x="469" y="709" on="0"/>
      </contour>
      <contour>
        <pt x="191" y="1" on="1"/>
        <pt x="99" y="1" on="0"/>
        <pt x="99" y="76" on="1"/>
        <pt x="99" y="110" on="0"/>
        <pt x="182" y="267" on="0"/>
        <pt x="200" y="353" on="1"/>
        <pt x="348" y="1049" on="0"/>
        <pt x="348" y="1244" on="1"/>
        <pt x="348" y="1266" on="0"/>
        <pt x="332" y="1328" on="0"/>
        <pt x="332" y="1336" on="1"/>
        <pt x="332" y="1375" on="0"/>
        <pt x="375" y="1388" on="1"/>
        <pt x="454" y="1412" on="0"/>
        <pt x="665" y="1412" on="1"/>
        <pt x="713" y="1414" on="1"/>
        <pt x="786" y="1414" on="1"/>
        <pt x="1105" y="1414" on="0"/>
        <pt x="1197" y="1215" on="1"/>
        <pt x="1225" y="1155" on="0"/>
        <pt x="1225" y="972" on="0"/>
        <pt x="1189" y="886" on="1"/>
        <pt x="1076" y="614" on="0"/>
        <pt x="707" y="582" on="1"/>
        <pt x="588" y="572" on="0"/>
        <pt x="442" y="485" on="0"/>
        <pt x="403" y="402" on="0"/>
        <pt x="403" y="313" on="1"/>
        <pt x="410" y="241" on="1"/>
        <pt x="414" y="172" on="1"/>
        <pt x="414" y="82" on="0"/>
        <pt x="346" y="34" on="1"/>
        <pt x="299" y="1" on="0"/>
        <pt x="212" y="1" on="1"/>
      </contour>
    </TTGlyph>
    <TTGlyph name="Q" xMin="144" yMin="-220" xMax="1439" yMax="1423">
      <contour>
        <pt x="337" y="605" on="1"/>
        <pt x="337" y="553" on="1"/>
        <pt x="338" y="470" on="0"/>
        <pt x="366" y="382" on="1"/>
        <pt x="420" y="215" on="0"/>
        <pt x="552" y="157" on="1"/>
        <pt x="621" y="127" on="0"/>
        <pt x="696" y="127" on="1"/>
        <pt x="712" y="127" on="1"/>
        <pt x="791" y="127" on="0"/>
        <pt x="878" y="186" on="1"/>
        <pt x="1039" y="296" on="0"/>
        <pt x="1131" y="422" on="1"/>
        <pt x="1177" y="486" on="0"/>
        <pt x="1243" y="696" on="0"/>
        <pt x="1243" y="807" on="1"/>
        <pt x="1243" y="859" on="1"/>
        <pt x="1242" y="938" on="0"/>
        <pt x="1216" y="1023" on="1"/>
        <pt x="1161" y="1199" on="0"/>
        <pt x="1022" y="1254" on="1"/>
        <pt x="957" y="1280" on="0"/>
        <pt x="888" y="1280" on="1"/>
        <pt x="853" y="1280" on="1"/>
        <pt x="761" y="1280" on="0"/>
        <pt x="574" y="1177" on="0"/>
        <pt x="429" y="990" on="0"/>
        <pt x="337" y="724" on="0"/>
      </contour>
      <contour>
        <pt x="1439" y="844" on="1"/>
        <pt x="1439" y="640" on="0"/>
        <pt x="1336" y="425" on="1"/>
        <pt x="1276" y="299" on="0"/>
        <pt x="1054" y="71" on="0"/>
        <pt x="1054" y="55" on="1"/>
        <pt x="1054" y="19" on="0"/>
        <pt x="1158" y="-77" on="1"/>
        <pt x="1194" y="-111" on="0"/>
        <pt x="1269" y="-138" on="0"/>
        <pt x="1269" y="-144" on="1"/>
        <pt x="1269" y="-160" on="0"/>
        <pt x="1238" y="-177" on="1"/>
        <pt x="1159" y="-220" on="0"/>
        <pt x="1085" y="-220" on="1"/>
        <pt x="1061" y="-220" on="1"/>
        <pt x="944" y="-220" on="0"/>
        <pt x="751" y="-130" on="1"/>
        <pt x="426" y="22" on="0"/>
        <pt x="248" y="180" on="0"/>
        <pt x="144" y="422" on="0"/>
        <pt x="144" y="567" on="1"/>
        <pt x="144" y="595" on="1"/>
        <pt x="144" y="738" on="0"/>
        <pt x="253" y="1052" on="0"/>
        <pt x="465" y="1294" on="0"/>
        <pt x="734" y="1423" on="0"/>
        <pt x="880" y="1423" on="1"/>
        <pt x="937" y="1423" on="1"/>
        <pt x="1040" y="1423" on="0"/>
        <pt x="1136" y="1379" on="1"/>
        <pt x="1334" y="1288" on="0"/>
        <pt x="1403" y="1084" on="1"/>
        <pt x="1439" y="978" on="0"/>
        <pt x="1439" y="872" on="1"/>
      </contour>
    </TTGlyph>
    <TTGlyph name="R" xMin="78" yMin="2" xMax="1186" yMax="1406">
      <contour>
        <pt x="526" y="749" on="1"/>
        <pt x="609" y="749" on="1"/>
        <pt x="786" y="749" on="0"/>
        <pt x="875" y="819" on="1"/>
        <pt x="993" y="913" on="0"/>
        <pt x="993" y="1051" on="1"/>
        <pt x="993" y="1080" on="1"/>
        <pt x="993" y="1171" on="0"/>
        <pt x="854" y="1278" on="0"/>
        <pt x="736" y="1278" on="1"/>
        <pt x="679" y="1278" on="1"/>
        <pt x="670" y="1277" on="1"/>
        <pt x="652" y="1277" on="1"/>
        <pt x="634" y="1275" on="0"/>
        <pt x="625" y="1275" on="1"/>
        <pt x="558" y="1275" on="0"/>
        <pt x="541" y="1219" on="1"/>
        <pt x="464" y="973" on="0"/>
        <pt x="464" y="793" on="1"/>
        <pt x="464" y="777" on="1"/>
        <pt x="464" y="749" on="0"/>
      </contour>
      <contour>
        <pt x="164" y="10" on="1"/>
        <pt x="78" y="10" on="0"/>
        <pt x="78" y="93" on="1"/>
        <pt x="78" y="107" on="0"/>
        <pt x="161" y="241" on="0"/>
        <pt x="215" y="466" on="0"/>
        <pt x="335" y="1199" on="0"/>
        <pt x="335" y="1271" on="0"/>
        <pt x="319" y="1349" on="0"/>
        <pt x="319" y="1351" on="1"/>
        <pt x="319" y="1388" on="0"/>
        <pt x="445" y="1406" on="0"/>
        <pt x="612" y="1406" on="1"/>
        <pt x="738" y="1406" on="1"/>
        <pt x="1069" y="1406" on="0"/>
        <pt x="1157" y="1221" on="1"/>
        <pt x="1186" y="1160" on="0"/>
        <pt x="1186" y="953" on="0"/>
        <pt x="1069" y="776" on="0"/>
        <pt x="883" y="642" on="0"/>
        <pt x="883" y="605" on="1"/>
        <pt x="883" y="528" on="0"/>
        <pt x="1000" y="289" on="1"/>
        <pt x="1034" y="220" on="0"/>
        <pt x="1137" y="117" on="0"/>
        <pt x="1137" y="42" on="0"/>
        <pt x="1089" y="2" on="0"/>
        <pt x="922" y="2" on="0"/>
        <pt x="839" y="113" on="0"/>
        <pt x="725" y="466" on="0"/>
        <pt x="695" y="514" on="1"/>
        <pt x="642" y="598" on="0"/>
        <pt x="544" y="598" on="1"/>
        <pt x="469" y="598" on="0"/>
        <pt x="421" y="501" on="1"/>
        <pt x="386" y="431" on="0"/>
        <pt x="386" y="278" on="1"/>
        <pt x="397" y="158" on="1"/>
        <pt x="397" y="10" on="0"/>
      </contour>
    </TTGlyph>
    <TTGlyph name="S" xMin="78" yMin="-14" xMax="1096" yMax="1421">
      <contour>
        <pt x="1096" y="1251" on="1"/>
        <pt x="1096" y="1192" on="0"/>
        <pt x="1039" y="1126" on="0"/>
        <pt x="997" y="1126" on="0"/>
        <pt x="797" y="1280" on="0"/>
        <pt x="599" y="1280" on="0"/>
        <pt x="448" y="1166" on="0"/>
        <pt x="448" y="979" on="0"/>
        <pt x="530" y="911" on="1"/>
        <pt x="567" y="880" on="0"/>
        <pt x="724" y="798" on="1"/>
        <pt x="880" y="716" on="0"/>
        <pt x="1020" y="552" on="0"/>
        <pt x="1020" y="450" on="1"/>
        <pt x="1020" y="242" on="0"/>
        <pt x="734" y="-14" on="0"/>
        <pt x="486" y="-14" on="1"/>
        <pt x="438" y="-14" on="0"/>
        <pt x="190" y="33" on="0"/>
        <pt x="154" y="56" on="1"/>
        <pt x="78" y="105" on="0"/>
        <pt x="78" y="195" on="1"/>
        <pt x="78" y="252" on="0"/>
        <pt x="116" y="297" on="1"/>
        <pt x="135" y="320" on="0"/>
        <pt x="174" y="320" on="1"/>
        <pt x="193" y="320" on="0"/>
        <pt x="319" y="200" on="0"/>
        <pt x="439" y="133" on="0"/>
        <pt x="658" y="133" on="0"/>
        <pt x="814" y="272" on="0"/>
        <pt x="814" y="459" on="0"/>
        <pt x="740" y="530" on="1"/>
        <pt x="698" y="570" on="0"/>
        <pt x="395" y="732" on="0"/>
        <pt x="335" y="801" on="1"/>
        <pt x="254" y="894" on="0"/>
        <pt x="254" y="1037" on="1"/>
        <pt x="254" y="1108" on="0"/>
        <pt x="334" y="1260" on="0"/>
        <pt x="401" y="1314" on="1"/>
        <pt x="535" y="1421" on="0"/>
        <pt x="704" y="1421" on="1"/>
        <pt x="737" y="1421" on="1"/>
        <pt x="937" y="1421" on="0"/>
        <pt x="1096" y="1338" on="0"/>
      </contour>
    </TTGlyph>
    <TTGlyph name="Scaron" xMin="122" yMin="67" xMax="1107" yMax="1850">
      <contour>
        <pt x="1107" y="1843" on="1"/>
        <pt x="1107" y="1834" on="1"/>
        <pt x="1107" y="1828" on="0"/>
        <pt x="967" y="1699" on="0"/>
        <pt x="926" y="1650" on="0"/>
        <pt x="851" y="1550" on="0"/>
        <pt x="842" y="1543" on="1"/>
        <pt x="798" y="1507" on="0"/>
        <pt x="753" y="1507" on="1"/>
        <pt x="737" y="1507" on="1"/>
        <pt x="707" y="1507" on="0"/>
        <pt x="541" y="1701" on="0"/>
        <pt x="541" y="1746" on="1"/>
        <pt x="541" y="1759" on="1"/>
        <pt x="541" y="1797" on="0"/>
        <pt x="684" y="1797" on="0"/>
        <pt x="751" y="1712" on="1"/>
        <pt x="778" y="1678" on="0"/>
        <pt x="790" y="1678" on="0"/>
        <pt x="852" y="1740" on="0"/>
        <pt x="1016" y="1850" on="0"/>
        <pt x="1089" y="1850" on="1"/>
        <pt x="1095" y="1850" on="1"/>
        <pt x="1107" y="1850" on="0"/>
      </contour>
      <contour>
        <pt x="1038" y="1176" on="0"/>
        <pt x="991" y="1176" on="0"/>
        <pt x="885" y="1282" on="0"/>
        <pt x="781" y="1332" on="0"/>
        <pt x="606" y="1332" on="0"/>
        <pt x="544" y="1258" on="1"/>
        <pt x="501" y="1207" on="0"/>
        <pt x="501" y="1057" on="0"/>
        <pt x="566" y="992" on="1"/>
        <pt x="601" y="957" on="0"/>
        <pt x="884" y="786" on="0"/>
        <pt x="1020" y="626" on="0"/>
        <pt x="1020" y="491" on="1"/>
        <pt x="1020" y="402" on="0"/>
        <pt x="980" y="322" on="1"/>
        <pt x="898" y="161" on="0"/>
        <pt x="716" y="99" on="1"/>
        <pt x="622" y="67" on="0"/>
        <pt x="532" y="67" on="1"/>
        <pt x="321" y="67" on="0"/>
        <pt x="205" y="125" on="1"/>
        <pt x="122" y="167" on="0"/>
        <pt x="122" y="252" on="1"/>
        <pt x="122" y="278" on="1"/>
        <pt x="122" y="331" on="0"/>
        <pt x="162" y="382" on="1"/>
        <pt x="178" y="402" on="0"/>
        <pt x="220" y="402" on="0"/>
        <pt x="364" y="266" on="0"/>
        <pt x="473" y="218" on="0"/>
        <pt x="646" y="218" on="0"/>
        <pt x="791" y="340" on="0"/>
        <pt x="791" y="516" on="0"/>
        <pt x="689" y="628" on="0"/>
        <pt x="421" y="793" on="0"/>
        <pt x="367" y="858" on="1"/>
        <pt x="288" y="953" on="0"/>
        <pt x="288" y="1084" on="1"/>
        <pt x="288" y="1160" on="0"/>
        <pt x="322" y="1232" on="1"/>
        <pt x="391" y="1376" on="0"/>
        <pt x="549" y="1436" on="1"/>
        <pt x="644" y="1472" on="0"/>
        <pt x="733" y="1472" on="1"/>
        <pt x="910" y="1472" on="0"/>
        <pt x="1004" y="1442" on="1"/>
        <pt x="1036" y="1432" on="0"/>
        <pt x="1095" y="1350" on="0"/>
        <pt x="1095" y="1325" on="1"/>
        <pt x="1095" y="1240" on="0"/>
        <pt x="1052" y="1192" on="1"/>
      </contour>
    </TTGlyph>
    <TTGlyph name="T" xMin="186" yMin="-1" xMax="1302" yMax="1411">
      <contour>
        <pt x="618" y="1162" on="1"/>
        <pt x="618" y="1253" on="0"/>
        <pt x="507" y="1253" on="1"/>
        <pt x="434" y="1253" on="0"/>
        <pt x="362" y="1221" on="1"/>
        <pt x="350" y="1216" on="0"/>
        <pt x="248" y="1158" on="0"/>
        <pt x="225" y="1158" on="1"/>
        <pt x="186" y="1158" on="0"/>
        <pt x="186" y="1211" on="1"/>
        <pt x="186" y="1344" on="0"/>
        <pt x="262" y="1386" on="1"/>
        <pt x="307" y="1411" on="0"/>
        <pt x="589" y="1411" on="1"/>
        <pt x="1169" y="1411" on="1"/>
        <pt x="1239" y="1411" on="0"/>
        <pt x="1302" y="1377" on="0"/>
        <pt x="1302" y="1333" on="1"/>
        <pt x="1302" y="1236" on="0"/>
        <pt x="1269" y="1199" on="1"/>
        <pt x="1253" y="1181" on="0"/>
        <pt x="1222" y="1181" on="0"/>
        <pt x="1068" y="1258" on="0"/>
        <pt x="927" y="1258" on="0"/>
        <pt x="852" y="1216" on="0"/>
        <pt x="802" y="1037" on="0"/>
        <pt x="676" y="295" on="0"/>
        <pt x="676" y="227" on="0"/>
        <pt x="711" y="119" on="0"/>
        <pt x="711" y="113" on="1"/>
        <pt x="711" y="64" on="0"/>
        <pt x="627" y="-1" on="0"/>
        <pt x="533" y="-1" on="1"/>
        <pt x="505" y="-1" on="1"/>
        <pt x="358" y="-1" on="0"/>
        <pt x="358" y="69" on="1"/>
        <pt x="358" y="103" on="0"/>
        <pt x="458" y="253" on="0"/>
        <pt x="484" y="369" on="1"/>
        <pt x="618" y="967" on="0"/>
      </contour>
    </TTGlyph>
    <TTGlyph name="Thorn" xMin="103" yMin="14" xMax="1163" yMax="1411">
      <contour>
        <pt x="968" y="808" on="1"/>
        <pt x="968" y="839" on="1"/>
        <pt x="968" y="944" on="0"/>
        <pt x="814" y="1065" on="0"/>
        <pt x="701" y="1065" on="1"/>
        <pt x="682" y="1065" on="1"/>
        <pt x="562" y="1065" on="0"/>
        <pt x="539" y="1012" on="1"/>
        <pt x="525" y="981" on="0"/>
        <pt x="506" y="849" on="0"/>
        <pt x="438" y="528" on="0"/>
        <pt x="438" y="480" on="1"/>
        <pt x="438" y="471" on="1"/>
        <pt x="438" y="441" on="0"/>
        <pt x="511" y="441" on="1"/>
        <pt x="549" y="441" on="1"/>
        <pt x="641" y="441" on="0"/>
        <pt x="810" y="503" on="0"/>
        <pt x="859" y="552" on="1"/>
        <pt x="968" y="661" on="0"/>
      </contour>
      <contour>
        <pt x="251" y="14" on="1"/>
        <pt x="103" y="14" on="0"/>
        <pt x="103" y="68" on="1"/>
        <pt x="103" y="99" on="0"/>
        <pt x="202" y="222" on="0"/>
        <pt x="241" y="387" on="0"/>
        <pt x="344" y="968" on="1"/>
        <pt x="373" y="1131" on="0"/>
        <pt x="373" y="1208" on="1"/>
        <pt x="373" y="1234" on="0"/>
        <pt x="324" y="1323" on="0"/>
        <pt x="324" y="1353" on="1"/>
        <pt x="324" y="1411" on="0"/>
        <pt x="441" y="1411" on="1"/>
        <pt x="463" y="1411" on="1"/>
        <pt x="547" y="1411" on="0"/>
        <pt x="622" y="1371" on="1"/>
        <pt x="668" y="1346" on="0"/>
        <pt x="668" y="1223" on="0"/>
        <pt x="724" y="1192" on="1"/>
        <pt x="725" y="1192" on="0"/>
        <pt x="867" y="1149" on="1"/>
        <pt x="1010" y="1106" on="0"/>
        <pt x="1058" y="1063" on="1"/>
        <pt x="1163" y="970" on="0"/>
        <pt x="1163" y="830" on="1"/>
        <pt x="1163" y="827" on="1"/>
        <pt x="1163" y="802" on="1"/>
        <pt x="1163" y="706" on="0"/>
        <pt x="1117" y="616" on="1"/>
        <pt x="988" y="366" on="0"/>
        <pt x="611" y="344" on="1"/>
        <pt x="550" y="340" on="0"/>
        <pt x="503" y="326" on="0"/>
        <pt x="425" y="245" on="0"/>
        <pt x="425" y="211" on="1"/>
        <pt x="440" y="143" on="1"/>
        <pt x="440" y="86" on="0"/>
        <pt x="328" y="14" on="0"/>
      </contour>
    </TTGlyph>
    <TTGlyph name="U" xMin="211" yMin="-4" xMax="1442" yMax="1394">
      <contour>
        <pt x="663" y="-4" on="1"/>
        <pt x="211" y="-4" on="0"/>
        <pt x="211" y="417" on="1"/>
        <pt x="211" y="454" on="1"/>
        <pt x="211" y="554" on="0"/>
        <pt x="306" y="1076" on="0"/>
        <pt x="306" y="1140" on="0"/>
        <pt x="273" y="1235" on="0"/>
        <pt x="273" y="1254" on="1"/>
        <pt x="273" y="1316" on="0"/>
        <pt x="337" y="1368" on="1"/>
        <pt x="363" y="1389" on="0"/>
        <pt x="530" y="1389" on="0"/>
        <pt x="586" y="1351" on="0"/>
        <pt x="586" y="1309" on="1"/>
        <pt x="586" y="1301" on="0"/>
        <pt x="539" y="1193" on="0"/>
        <pt x="520" y="1109" on="0"/>
        <pt x="410" y="460" on="0"/>
        <pt x="410" y="425" on="1"/>
        <pt x="410" y="273" on="0"/>
        <pt x="562" y="134" on="0"/>
        <pt x="803" y="134" on="0"/>
        <pt x="975" y="256" on="0"/>
        <pt x="1066" y="444" on="0"/>
        <pt x="1193" y="1069" on="0"/>
        <pt x="1193" y="1160" on="1"/>
        <pt x="1177" y="1299" on="1"/>
        <pt x="1177" y="1394" on="0"/>
        <pt x="1312" y="1394" on="1"/>
        <pt x="1346" y="1394" on="1"/>
        <pt x="1382" y="1394" on="0"/>
        <pt x="1401" y="1380" on="1"/>
        <pt x="1442" y="1350" on="0"/>
        <pt x="1442" y="1248" on="0"/>
        <pt x="1364" y="1110" on="0"/>
        <pt x="1352" y="1069" on="0"/>
        <pt x="1229" y="398" on="0"/>
        <pt x="1090" y="139" on="0"/>
        <pt x="841" y="-4" on="0"/>
        <pt x="701" y="-4" on="1"/>
      </contour>
    </TTGlyph>
    <TTGlyph name="Uacute" xMin="225" yMin="11" xMax="1467" yMax="1865">
      <contour>
        <pt x="1235" y="1839" on="1"/>
        <pt x="1235" y="1831" on="1"/>
        <pt x="1235" y="1793" on="0"/>
        <pt x="926" y="1552" on="0"/>
        <pt x="864" y="1552" on="1"/>
        <pt x="854" y="1552" on="1"/>
        <pt x="827" y="1552" on="0"/>
        <pt x="827" y="1570" on="1"/>
        <pt x="827" y="1578" on="1"/>
        <pt x="827" y="1641" on="0"/>
        <pt x="1026" y="1815" on="1"/>
        <pt x="1083" y="1865" on="0"/>
        <pt x="1148" y="1865" on="1"/>
        <pt x="1170" y="1865" on="1"/>
        <pt x="1235" y="1865" on="0"/>
      </contour>
      <contour>
        <pt x="1373" y="1416" on="1"/>
        <pt x="1415" y="1416" on="0"/>
        <pt x="1467" y="1356" on="0"/>
        <pt x="1467" y="1278" on="0"/>
        <pt x="1382" y="1145" on="0"/>
        <pt x="1358" y="1052" on="0"/>
        <pt x="1291" y="636" on="0"/>
        <pt x="1237" y="392" on="0"/>
        <pt x="1103" y="151" on="0"/>
        <pt x="855" y="11" on="0"/>
        <pt x="704" y="11" on="1"/>
        <pt x="667" y="11" on="1"/>
        <pt x="474" y="11" on="0"/>
        <pt x="360" y="104" on="1"/>
        <pt x="293" y="159" on="0"/>
        <pt x="225" y="326" on="0"/>
        <pt x="225" y="419" on="1"/>
        <pt x="225" y="455" on="1"/>
        <pt x="225" y="457" on="0"/>
        <pt x="225" y="459" on="1"/>
        <pt x="225" y="608" on="0"/>
        <pt x="302" y="1022" on="1"/>
        <pt x="323" y="1136" on="0"/>
        <pt x="323" y="1182" on="0"/>
        <pt x="300" y="1220" on="1"/>
        <pt x="276" y="1262" on="0"/>
        <pt x="276" y="1293" on="1"/>
        <pt x="276" y="1357" on="0"/>
        <pt x="347" y="1396" on="1"/>
        <pt x="372" y="1410" on="0"/>
        <pt x="532" y="1410" on="0"/>
        <pt x="592" y="1367" on="0"/>
        <pt x="592" y="1321" on="0"/>
        <pt x="533" y="1206" on="0"/>
        <pt x="525" y="1163" on="1"/>
        <pt x="416" y="593" on="0"/>
        <pt x="416" y="280" on="0"/>
        <pt x="509" y="201" on="1"/>
        <pt x="581" y="140" on="0"/>
        <pt x="701" y="140" on="1"/>
        <pt x="934" y="140" on="0"/>
        <pt x="1052" y="374" on="1"/>
        <pt x="1099" y="466" on="0"/>
        <pt x="1222" y="1091" on="0"/>
        <pt x="1222" y="1186" on="1"/>
        <pt x="1200" y="1326" on="1"/>
        <pt x="1200" y="1381" on="0"/>
        <pt x="1285" y="1416" on="0"/>
      </contour>
    </TTGlyph>
    <TTGlyph name="Ucircumflex" xMin="223" yMin="8" xMax="1466" yMax="1865">
      <contour>
        <pt x="697" y="1553" on="1"/>
        <pt x="683" y="1553" on="1"/>
        <pt x="657" y="1553" on="0"/>
        <pt x="657" y="1574" on="1"/>
        <pt x="657" y="1581" on="0"/>
        <pt x="941" y="1865" on="0"/>
        <pt x="992" y="1865" on="1"/>
        <pt x="1007" y="1865" on="1"/>
        <pt x="1047" y="1865" on="0"/>
        <pt x="1107" y="1779" on="1"/>
        <pt x="1226" y="1607" on="0"/>
        <pt x="1226" y="1585" on="1"/>
        <pt x="1226" y="1579" on="1"/>
        <pt x="1226" y="1554" on="0"/>
        <pt x="1140" y="1554" on="0"/>
        <pt x="977" y="1717" on="0"/>
        <pt x="960" y="1717" on="0"/>
        <pt x="912" y="1680" on="1"/>
        <pt x="747" y="1553" on="0"/>
      </contour>
      <contour>
        <pt x="416" y="426" on="1"/>
        <pt x="416" y="282" on="0"/>
        <pt x="496" y="210" on="1"/>
        <pt x="578" y="138" on="0"/>
        <pt x="698" y="137" on="1"/>
        <pt x="935" y="137" on="0"/>
        <pt x="1048" y="368" on="1"/>
        <pt x="1098" y="469" on="0"/>
        <pt x="1223" y="1095" on="0"/>
        <pt x="1223" y="1180" on="1"/>
        <pt x="1223" y="1192" on="0"/>
        <pt x="1214" y="1239" on="1"/>
        <pt x="1208" y="1267" on="1"/>
        <pt x="1198" y="1308" on="0"/>
        <pt x="1198" y="1318" on="1"/>
        <pt x="1198" y="1375" on="0"/>
        <pt x="1285" y="1410" on="0"/>
        <pt x="1411" y="1410" on="0"/>
        <pt x="1466" y="1348" on="0"/>
        <pt x="1466" y="1270" on="0"/>
        <pt x="1382" y="1140" on="0"/>
        <pt x="1358" y="1056" on="0"/>
        <pt x="1254" y="420" on="0"/>
        <pt x="1106" y="154" on="0"/>
        <pt x="859" y="8" on="0"/>
        <pt x="708" y="8" on="1"/>
        <pt x="670" y="8" on="1"/>
        <pt x="454" y="8" on="0"/>
        <pt x="338" y="118" on="1"/>
        <pt x="223" y="228" on="0"/>
        <pt x="223" y="445" on="1"/>
        <pt x="223" y="527" on="0"/>
        <pt x="285" y="930" on="0"/>
        <pt x="320" y="1110" on="0"/>
        <pt x="320" y="1179" on="0"/>
        <pt x="276" y="1260" on="0"/>
        <pt x="276" y="1283" on="1"/>
        <pt x="276" y="1351" on="0"/>
        <pt x="341" y="1391" on="1"/>
        <pt x="366" y="1406" on="0"/>
        <pt x="530" y="1406" on="0"/>
        <pt x="590" y="1363" on="0"/>
        <pt x="590" y="1318" on="0"/>
        <pt x="538" y="1205" on="0"/>
        <pt x="526" y="1163" on="0"/>
        <pt x="416" y="444" on="0"/>
      </contour>
    </TTGlyph>
    <TTGlyph name="Udieresis" xMin="227" yMin="9" xMax="1470" yMax="1798">
      <contour>
        <pt x="746" y="1583" on="1"/>
        <pt x="670" y="1583" on="0"/>
        <pt x="670" y="1644" on="1"/>
        <pt x="667" y="1657" on="1"/>
        <pt x="667" y="1677" on="1"/>
        <pt x="667" y="1729" on="0"/>
        <pt x="735" y="1797" on="0"/>
        <pt x="773" y="1797" on="1"/>
        <pt x="801" y="1797" on="1"/>
        <pt x="832" y="1797" on="0"/>
        <pt x="879" y="1750" on="0"/>
        <pt x="879" y="1713" on="1"/>
        <pt x="879" y="1703" on="1"/>
        <pt x="875" y="1675" on="1"/>
        <pt x="875" y="1648" on="0"/>
        <pt x="813" y="1586" on="0"/>
        <pt x="784" y="1586" on="1"/>
        <pt x="764" y="1583" on="1"/>
      </contour>
      <contour>
        <pt x="1252" y="1704" on="1"/>
        <pt x="1252" y="1704" on="0"/>
        <pt x="1249" y="1677" on="1"/>
        <pt x="1249" y="1649" on="0"/>
        <pt x="1183" y="1583" on="0"/>
        <pt x="1139" y="1583" on="1"/>
        <pt x="1125" y="1583" on="1"/>
        <pt x="1087" y="1583" on="0"/>
        <pt x="1040" y="1630" on="0"/>
        <pt x="1040" y="1660" on="1"/>
        <pt x="1040" y="1684" on="1"/>
        <pt x="1040" y="1722" on="0"/>
        <pt x="1099" y="1793" on="0"/>
        <pt x="1125" y="1793" on="1"/>
        <pt x="1152" y="1798" on="1"/>
        <pt x="1170" y="1798" on="1"/>
        <pt x="1205" y="1798" on="0"/>
        <pt x="1253" y="1750" on="0"/>
        <pt x="1253" y="1711" on="1"/>
        <pt x="1253" y="1708" on="1"/>
      </contour>
      <contour>
        <pt x="419" y="427" on="1"/>
        <pt x="419" y="282" on="0"/>
        <pt x="582" y="139" on="0"/>
        <pt x="702" y="139" on="1"/>
        <pt x="936" y="139" on="0"/>
        <pt x="1052" y="369" on="1"/>
        <pt x="1099" y="464" on="0"/>
        <pt x="1226" y="1097" on="0"/>
        <pt x="1226" y="1181" on="1"/>
        <pt x="1226" y="1193" on="0"/>
        <pt x="1217" y="1240" on="1"/>
        <pt x="1212" y="1268" on="1"/>
        <pt x="1201" y="1317" on="0"/>
        <pt x="1201" y="1320" on="1"/>
        <pt x="1201" y="1375" on="0"/>
        <pt x="1288" y="1411" on="0"/>
        <pt x="1415" y="1411" on="0"/>
        <pt x="1470" y="1350" on="0"/>
        <pt x="1470" y="1271" on="0"/>
        <pt x="1386" y="1140" on="0"/>
        <pt x="1363" y="1059" on="0"/>
        <pt x="1283" y="576" on="0"/>
        <pt x="1223" y="348" on="0"/>
        <pt x="1081" y="126" on="0"/>
        <pt x="840" y="9" on="0"/>
        <pt x="712" y="9" on="1"/>
        <pt x="674" y="9" on="1"/>
        <pt x="358" y="9" on="0"/>
        <pt x="263" y="234" on="1"/>
        <pt x="227" y="319" on="0"/>
        <pt x="227" y="410" on="1"/>
        <pt x="227" y="483" on="1"/>
        <pt x="227" y="505" on="0"/>
        <pt x="284" y="907" on="0"/>
        <pt x="324" y="1112" on="0"/>
        <pt x="324" y="1179" on="0"/>
        <pt x="279" y="1267" on="0"/>
        <pt x="279" y="1284" on="1"/>
        <pt x="279" y="1352" on="0"/>
        <pt x="345" y="1392" on="1"/>
        <pt x="370" y="1407" on="0"/>
        <pt x="535" y="1407" on="0"/>
        <pt x="594" y="1364" on="0"/>
        <pt x="594" y="1322" on="0"/>
        <pt x="541" y="1207" on="0"/>
        <pt x="528" y="1162" on="0"/>
        <pt x="419" y="439" on="0"/>
      </contour>
    </TTGlyph>
    <TTGlyph name="Ugrave" xMin="223" yMin="12" xMax="1466" yMax="1869">
      <contour>
        <pt x="992" y="1553" on="1"/>
        <pt x="978" y="1553" on="1"/>
        <pt x="925" y="1553" on="0"/>
        <pt x="829" y="1637" on="1"/>
        <pt x="669" y="1777" on="0"/>
        <pt x="669" y="1826" on="1"/>
        <pt x="669" y="1830" on="1"/>
        <pt x="669" y="1869" on="0"/>
        <pt x="742" y="1869" on="1"/>
        <pt x="767" y="1869" on="1"/>
        <pt x="777" y="1867" on="0"/>
        <pt x="782" y="1867" on="1"/>
        <pt x="828" y="1867" on="0"/>
        <pt x="881" y="1806" on="1"/>
        <pt x="1018" y="1649" on="0"/>
        <pt x="1018" y="1588" on="1"/>
        <pt x="1018" y="1571" on="1"/>
        <pt x="1018" y="1553" on="0"/>
      </contour>
      <contour>
        <pt x="431" y="1410" on="1"/>
        <pt x="590" y="1410" on="0"/>
        <pt x="590" y="1348" on="1"/>
        <pt x="590" y="1323" on="0"/>
        <pt x="538" y="1210" on="0"/>
        <pt x="525" y="1165" on="0"/>
        <pt x="416" y="442" on="0"/>
        <pt x="416" y="430" on="1"/>
        <pt x="416" y="286" on="0"/>
        <pt x="576" y="142" on="0"/>
        <pt x="820" y="142" on="0"/>
        <pt x="997" y="267" on="0"/>
        <pt x="1098" y="475" on="0"/>
        <pt x="1223" y="1100" on="0"/>
        <pt x="1223" y="1184" on="1"/>
        <pt x="1223" y="1196" on="0"/>
        <pt x="1214" y="1243" on="1"/>
        <pt x="1208" y="1271" on="1"/>
        <pt x="1198" y="1312" on="0"/>
        <pt x="1198" y="1323" on="1"/>
        <pt x="1198" y="1379" on="0"/>
        <pt x="1285" y="1414" on="0"/>
        <pt x="1411" y="1414" on="0"/>
        <pt x="1466" y="1352" on="0"/>
        <pt x="1466" y="1274" on="0"/>
        <pt x="1382" y="1143" on="0"/>
        <pt x="1358" y="1057" on="0"/>
        <pt x="1254" y="424" on="0"/>
        <pt x="1104" y="155" on="0"/>
        <pt x="856" y="12" on="0"/>
        <pt x="708" y="12" on="1"/>
        <pt x="671" y="12" on="1"/>
        <pt x="453" y="12" on="0"/>
        <pt x="223" y="234" on="0"/>
        <pt x="223" y="449" on="1"/>
        <pt x="223" y="532" on="0"/>
        <pt x="285" y="935" on="0"/>
        <pt x="320" y="1115" on="0"/>
        <pt x="320" y="1183" on="0"/>
        <pt x="276" y="1266" on="0"/>
        <pt x="276" y="1287" on="1"/>
        <pt x="276" y="1355" on="0"/>
        <pt x="341" y="1395" on="1"/>
        <pt x="366" y="1410" on="0"/>
      </contour>
    </TTGlyph>
    <TTGlyph name="V" xMin="213" yMin="4" xMax="1430" yMax="1401">
      <contour>
        <pt x="525" y="1259" on="1"/>
        <pt x="516" y="1140" on="1"/>
        <pt x="516" y="1100" on="0"/>
        <pt x="623" y="317" on="0"/>
        <pt x="632" y="285" on="0"/>
        <pt x="643" y="285" on="1"/>
        <pt x="657" y="301" on="1"/>
        <pt x="780" y="468" on="0"/>
        <pt x="1062" y="1032" on="1"/>
        <pt x="1121" y="1148" on="0"/>
        <pt x="1146" y="1296" on="0"/>
        <pt x="1155" y="1314" on="1"/>
        <pt x="1197" y="1401" on="0"/>
        <pt x="1364" y="1401" on="1"/>
        <pt x="1430" y="1401" on="0"/>
        <pt x="1430" y="1339" on="1"/>
        <pt x="1430" y="1295" on="0"/>
        <pt x="1288" y="1136" on="0"/>
        <pt x="799" y="249" on="0"/>
        <pt x="701" y="103" on="1"/>
        <pt x="634" y="4" on="0"/>
        <pt x="564" y="4" on="1"/>
        <pt x="537" y="4" on="1"/>
        <pt x="478" y="4" on="0"/>
        <pt x="447" y="127" on="1"/>
        <pt x="434" y="178" on="0"/>
        <pt x="341" y="851" on="0"/>
        <pt x="298" y="1082" on="1"/>
        <pt x="286" y="1148" on="0"/>
        <pt x="213" y="1282" on="0"/>
        <pt x="213" y="1310" on="1"/>
        <pt x="213" y="1390" on="0"/>
        <pt x="431" y="1390" on="0"/>
        <pt x="525" y="1328" on="0"/>
      </contour>
    </TTGlyph>
    <TTGlyph name="W" xMin="277" yMin="98" xMax="1936" yMax="1345">
      <contour>
        <pt x="1148" y="1311" on="1"/>
        <pt x="1148" y="1311" on="0"/>
        <pt x="1149" y="1311" on="1"/>
        <pt x="1231" y="1311" on="0"/>
        <pt x="1231" y="1146" on="1"/>
        <pt x="1231" y="1058" on="0"/>
        <pt x="1279" y="787" on="0"/>
        <pt x="1312" y="452" on="0"/>
        <pt x="1319" y="428" on="0"/>
        <pt x="1332" y="428" on="1"/>
        <pt x="1365" y="428" on="0"/>
        <pt x="1534" y="770" on="1"/>
        <pt x="1592" y="888" on="0"/>
        <pt x="1713" y="1204" on="0"/>
        <pt x="1729" y="1229" on="1"/>
        <pt x="1803" y="1345" on="0"/>
        <pt x="1909" y="1345" on="1"/>
        <pt x="1936" y="1345" on="0"/>
        <pt x="1936" y="1282" on="0"/>
        <pt x="1892" y="1166" on="1"/>
        <pt x="1743" y="772" on="0"/>
        <pt x="1496" y="302" on="1"/>
        <pt x="1455" y="225" on="0"/>
        <pt x="1327" y="98" on="0"/>
        <pt x="1227" y="98" on="0"/>
        <pt x="1173" y="164" on="0"/>
        <pt x="1107" y="373" on="0"/>
        <pt x="1032" y="874" on="0"/>
        <pt x="1024" y="874" on="1"/>
        <pt x="1018" y="874" on="0"/>
        <pt x="888" y="637" on="1"/>
        <pt x="596" y="103" on="0"/>
        <pt x="505" y="103" on="1"/>
        <pt x="455" y="103" on="0"/>
        <pt x="389" y="197" on="0"/>
        <pt x="373" y="261" on="1"/>
        <pt x="364" y="311" on="1"/>
        <pt x="361" y="335" on="0"/>
        <pt x="349" y="476" on="1"/>
        <pt x="331" y="639" on="1"/>
        <pt x="277" y="1130" on="0"/>
        <pt x="277" y="1294" on="0"/>
        <pt x="306" y="1319" on="1"/>
        <pt x="321" y="1332" on="0"/>
        <pt x="415" y="1332" on="0"/>
        <pt x="496" y="1248" on="0"/>
        <pt x="520" y="1155" on="0"/>
        <pt x="529" y="929" on="0"/>
        <pt x="581" y="443" on="0"/>
        <pt x="601" y="443" on="1"/>
        <pt x="612" y="443" on="0"/>
        <pt x="630" y="467" on="1"/>
        <pt x="734" y="605" on="0"/>
        <pt x="851" y="867" on="1"/>
        <pt x="886" y="944" on="0"/>
        <pt x="970" y="1232" on="0"/>
        <pt x="983" y="1248" on="1"/>
        <pt x="1032" y="1311" on="0"/>
      </contour>
    </TTGlyph>
    <TTGlyph name="X" xMin="43" yMin="1" xMax="1373" yMax="1390">
      <contour>
        <pt x="861" y="694" on="1"/>
        <pt x="861" y="661" on="0"/>
        <pt x="1012" y="335" on="1"/>
        <pt x="1065" y="220" on="0"/>
        <pt x="1105" y="178" on="1"/>
        <pt x="1184" y="94" on="0"/>
        <pt x="1184" y="54" on="1"/>
        <pt x="1184" y="1" on="0"/>
        <pt x="913" y="1" on="0"/>
        <pt x="836" y="71" on="0"/>
        <pt x="836" y="255" on="0"/>
        <pt x="730" y="477" on="1"/>
        <pt x="695" y="551" on="0"/>
        <pt x="679" y="551" on="1"/>
        <pt x="637" y="551" on="0"/>
        <pt x="439" y="270" on="1"/>
        <pt x="389" y="199" on="0"/>
        <pt x="325" y="51" on="0"/>
        <pt x="317" y="44" on="1"/>
        <pt x="276" y="9" on="0"/>
        <pt x="43" y="9" on="0"/>
        <pt x="43" y="87" on="0"/>
        <pt x="198" y="216" on="0"/>
        <pt x="344" y="382" on="0"/>
        <pt x="584" y="700" on="0"/>
        <pt x="584" y="788" on="0"/>
        <pt x="397" y="1163" on="0"/>
        <pt x="359" y="1203" on="1"/>
        <pt x="282" y="1286" on="0"/>
        <pt x="282" y="1355" on="0"/>
        <pt x="350" y="1386" on="0"/>
        <pt x="533" y="1386" on="0"/>
        <pt x="609" y="1336" on="0"/>
        <pt x="609" y="1160" on="0"/>
        <pt x="722" y="947" on="1"/>
        <pt x="748" y="898" on="0"/>
        <pt x="758" y="898" on="1"/>
        <pt x="814" y="898" on="0"/>
        <pt x="991" y="1142" on="1"/>
        <pt x="1038" y="1207" on="0"/>
        <pt x="1075" y="1327" on="0"/>
        <pt x="1093" y="1344" on="1"/>
        <pt x="1143" y="1390" on="0"/>
        <pt x="1284" y="1390" on="1"/>
        <pt x="1373" y="1390" on="0"/>
        <pt x="1373" y="1343" on="1"/>
        <pt x="1373" y="1312" on="0"/>
        <pt x="1229" y="1209" on="0"/>
        <pt x="1160" y="1126" on="1"/>
        <pt x="965" y="892" on="0"/>
        <pt x="933" y="852" on="1"/>
        <pt x="861" y="762" on="0"/>
      </contour>
    </TTGlyph>
    <TTGlyph name="Y" xMin="214" yMin="7" xMax="1322" yMax="1373">
      <contour>
        <pt x="510" y="8" on="1"/>
        <pt x="388" y="8" on="0"/>
        <pt x="388" y="75" on="1"/>
        <pt x="388" y="110" on="0"/>
        <pt x="424" y="167" on="1"/>
        <pt x="519" y="317" on="0"/>
        <pt x="519" y="527" on="1"/>
        <pt x="519" y="674" on="0"/>
        <pt x="403" y="967" on="1"/>
        <pt x="340" y="1126" on="0"/>
        <pt x="301" y="1187" on="0"/>
        <pt x="256" y="1236" on="0"/>
        <pt x="214" y="1287" on="0"/>
        <pt x="214" y="1317" on="1"/>
        <pt x="214" y="1362" on="0"/>
        <pt x="466" y="1362" on="0"/>
        <pt x="500" y="1307" on="1"/>
        <pt x="506" y="1298" on="0"/>
        <pt x="527" y="1163" on="0"/>
        <pt x="560" y="1081" on="1"/>
        <pt x="673" y="803" on="0"/>
        <pt x="697" y="803" on="1"/>
        <pt x="707" y="803" on="0"/>
        <pt x="728" y="823" on="1"/>
        <pt x="834" y="922" on="0"/>
        <pt x="986" y="1148" on="1"/>
        <pt x="1014" y="1189" on="0"/>
        <pt x="1060" y="1309" on="0"/>
        <pt x="1066" y="1316" on="1"/>
        <pt x="1117" y="1373" on="0"/>
        <pt x="1254" y="1373" on="1"/>
        <pt x="1276" y="1373" on="1"/>
        <pt x="1322" y="1373" on="0"/>
        <pt x="1322" y="1312" on="0"/>
        <pt x="1226" y="1230" on="1"/>
        <pt x="1177" y="1189" on="0"/>
        <pt x="867" y="754" on="0"/>
        <pt x="767" y="585" on="0"/>
        <pt x="703" y="340" on="0"/>
        <pt x="703" y="218" on="0"/>
        <pt x="734" y="127" on="0"/>
        <pt x="734" y="62" on="0"/>
        <pt x="641" y="7" on="0"/>
        <pt x="566" y="7" on="1"/>
        <pt x="538" y="8" on="1"/>
      </contour>
    </TTGlyph>
    <TTGlyph name="Yacute" xMin="215" yMin="16" xMax="1316" yMax="1858">
      <contour>
        <pt x="1131" y="1832" on="1"/>
        <pt x="1131" y="1819" on="1"/>
        <pt x="1131" y="1782" on="0"/>
        <pt x="821" y="1541" on="0"/>
        <pt x="764" y="1541" on="1"/>
        <pt x="749" y="1541" on="1"/>
        <pt x="725" y="1541" on="0"/>
        <pt x="725" y="1557" on="1"/>
        <pt x="725" y="1565" on="1"/>
        <pt x="725" y="1575" on="0"/>
        <pt x="749" y="1611" on="1"/>
        <pt x="816" y="1712" on="0"/>
        <pt x="983" y="1858" on="0"/>
        <pt x="1041" y="1858" on="1"/>
        <pt x="1058" y="1858" on="1"/>
        <pt x="1131" y="1858" on="0"/>
      </contour>
      <contour>
        <pt x="516" y="17" on="1"/>
        <pt x="514" y="17" on="0"/>
        <pt x="513" y="17" on="1"/>
        <pt x="391" y="17" on="0"/>
        <pt x="391" y="94" on="1"/>
        <pt x="391" y="122" on="0"/>
        <pt x="431" y="178" on="1"/>
        <pt x="521" y="302" on="0"/>
        <pt x="521" y="565" on="1"/>
        <pt x="521" y="712" on="0"/>
        <pt x="399" y="1026" on="1"/>
        <pt x="347" y="1161" on="0"/>
        <pt x="303" y="1222" on="0"/>
        <pt x="282" y="1243" on="1"/>
        <pt x="250" y="1276" on="1"/>
        <pt x="215" y="1316" on="0"/>
        <pt x="215" y="1341" on="1"/>
        <pt x="215" y="1377" on="0"/>
        <pt x="426" y="1377" on="0"/>
        <pt x="514" y="1329" on="0"/>
        <pt x="514" y="1202" on="0"/>
        <pt x="663" y="872" on="1"/>
        <pt x="686" y="821" on="0"/>
        <pt x="698" y="821" on="1"/>
        <pt x="742" y="821" on="0"/>
        <pt x="988" y="1159" on="1"/>
        <pt x="1028" y="1213" on="0"/>
        <pt x="1055" y="1323" on="0"/>
        <pt x="1075" y="1343" on="1"/>
        <pt x="1123" y="1391" on="0"/>
        <pt x="1259" y="1391" on="1"/>
        <pt x="1316" y="1391" on="0"/>
        <pt x="1316" y="1370" on="1"/>
        <pt x="1316" y="1357" on="1"/>
        <pt x="1316" y="1349" on="0"/>
        <pt x="1208" y="1247" on="1"/>
        <pt x="1161" y="1203" on="0"/>
        <pt x="850" y="749" on="0"/>
        <pt x="763" y="597" on="0"/>
        <pt x="698" y="339" on="0"/>
        <pt x="698" y="215" on="0"/>
        <pt x="739" y="121" on="0"/>
        <pt x="739" y="104" on="1"/>
        <pt x="739" y="67" on="0"/>
        <pt x="649" y="16" on="0"/>
        <pt x="571" y="16" on="1"/>
        <pt x="544" y="17" on="1"/>
      </contour>
    </TTGlyph>
    <TTGlyph name="Ydieresis" xMin="224" yMin="15" xMax="1285" yMax="1782">
      <contour>
        <pt x="746" y="1687" on="1"/>
        <pt x="746" y="1639" on="0"/>
        <pt x="683" y="1563" on="0"/>
        <pt x="628" y="1563" on="1"/>
        <pt x="610" y="1563" on="1"/>
        <pt x="607" y="1564" on="1"/>
        <pt x="599" y="1564" on="1"/>
        <pt x="593" y="1566" on="0"/>
        <pt x="589" y="1566" on="1"/>
        <pt x="532" y="1566" on="0"/>
        <pt x="532" y="1633" on="1"/>
        <pt x="532" y="1657" on="1"/>
        <pt x="532" y="1714" on="0"/>
        <pt x="596" y="1778" on="0"/>
        <pt x="625" y="1778" on="1"/>
        <pt x="631" y="1780" on="0"/>
        <pt x="635" y="1780" on="1"/>
        <pt x="653" y="1782" on="1"/>
        <pt x="668" y="1782" on="1"/>
        <pt x="692" y="1778" on="1"/>
        <pt x="743" y="1778" on="0"/>
        <pt x="743" y="1725" on="1"/>
        <pt x="746" y="1705" on="1"/>
      </contour>
      <contour>
        <pt x="1128" y="1688" on="1"/>
        <pt x="1128" y="1631" on="0"/>
        <pt x="1060" y="1563" on="0"/>
        <pt x="1014" y="1563" on="1"/>
        <pt x="992" y="1563" on="1"/>
        <pt x="989" y="1564" on="1"/>
        <pt x="982" y="1564" on="1"/>
        <pt x="974" y="1566" on="0"/>
        <pt x="972" y="1566" on="1"/>
        <pt x="918" y="1566" on="0"/>
        <pt x="918" y="1612" on="1"/>
        <pt x="914" y="1629" on="1"/>
        <pt x="914" y="1657" on="1"/>
        <pt x="917" y="1679" on="1"/>
        <pt x="918" y="1683" on="0"/>
        <pt x="918" y="1686" on="1"/>
        <pt x="918" y="1719" on="0"/>
        <pt x="981" y="1782" on="0"/>
        <pt x="1027" y="1782" on="1"/>
        <pt x="1052" y="1782" on="1"/>
        <pt x="1124" y="1782" on="0"/>
        <pt x="1124" y="1730" on="1"/>
        <pt x="1126" y="1722" on="0"/>
        <pt x="1126" y="1719" on="1"/>
        <pt x="1128" y="1702" on="1"/>
      </contour>
      <contour>
        <pt x="679" y="830" on="1"/>
        <pt x="732" y="830" on="0"/>
        <pt x="959" y="1140" on="1"/>
        <pt x="1001" y="1197" on="0"/>
        <pt x="1042" y="1303" on="0"/>
        <pt x="1058" y="1320" on="1"/>
        <pt x="1108" y="1372" on="0"/>
        <pt x="1218" y="1372" on="1"/>
        <pt x="1239" y="1372" on="1"/>
        <pt x="1285" y="1372" on="0"/>
        <pt x="1285" y="1320" on="0"/>
        <pt x="1140" y="1184" on="0"/>
        <pt x="1058" y="1065" on="1"/>
        <pt x="855" y="772" on="0"/>
        <pt x="756" y="599" on="0"/>
        <pt x="690" y="331" on="0"/>
        <pt x="690" y="213" on="0"/>
        <pt x="720" y="133" on="0"/>
        <pt x="720" y="114" on="1"/>
        <pt x="720" y="73" on="0"/>
        <pt x="627" y="15" on="0"/>
        <pt x="463" y="15" on="0"/>
        <pt x="381" y="47" on="0"/>
        <pt x="381" y="91" on="1"/>
        <pt x="381" y="111" on="0"/>
        <pt x="418" y="172" on="1"/>
        <pt x="513" y="329" on="0"/>
        <pt x="513" y="572" on="1"/>
        <pt x="513" y="714" on="0"/>
        <pt x="385" y="1025" on="1"/>
        <pt x="337" y="1142" on="0"/>
        <pt x="224" y="1286" on="0"/>
        <pt x="224" y="1308" on="1"/>
        <pt x="224" y="1321" on="1"/>
        <pt x="224" y="1359" on="0"/>
        <pt x="372" y="1359" on="1"/>
        <pt x="445" y="1359" on="0"/>
        <pt x="508" y="1317" on="0"/>
        <pt x="508" y="1205" on="0"/>
        <pt x="646" y="891" on="1"/>
        <pt x="673" y="830" on="0"/>
      </contour>
    </TTGlyph>
    <TTGlyph name="Z" xMin="67" yMin="-10" xMax="1271" yMax="1403">
      <contour>
        <pt x="1271" y="1365" on="1"/>
        <pt x="1270" y="1316" on="0"/>
        <pt x="1206" y="1224" on="0"/>
        <pt x="1067" y="1056" on="1"/>
        <pt x="384" y="233" on="0"/>
        <pt x="384" y="176" on="1"/>
        <pt x="384" y="136" on="0"/>
        <pt x="732" y="136" on="0"/>
        <pt x="876" y="164" on="0"/>
        <pt x="1053" y="237" on="0"/>
        <pt x="1074" y="237" on="1"/>
        <pt x="1115" y="237" on="0"/>
        <pt x="1115" y="127" on="0"/>
        <pt x="1087" y="73" on="0"/>
        <pt x="965" y="-10" on="0"/>
        <pt x="840" y="-10" on="1"/>
        <pt x="764" y="-10" on="1"/>
        <pt x="689" y="-8" on="1"/>
        <pt x="613" y="-6" on="0"/>
        <pt x="575" y="-6" on="1"/>
        <pt x="538" y="-5" on="1"/>
        <pt x="500" y="-4" on="0"/>
        <pt x="462" y="-4" on="1"/>
        <pt x="311" y="-2" on="1"/>
        <pt x="125" y="-2" on="0"/>
        <pt x="67" y="24" on="0"/>
        <pt x="67" y="71" on="1"/>
        <pt x="67" y="133" on="0"/>
        <pt x="953" y="1208" on="0"/>
        <pt x="953" y="1230" on="1"/>
        <pt x="953" y="1263" on="0"/>
        <pt x="648" y="1263" on="0"/>
        <pt x="511" y="1227" on="0"/>
        <pt x="366" y="1168" on="0"/>
        <pt x="351" y="1168" on="1"/>
        <pt x="291" y="1168" on="0"/>
        <pt x="291" y="1330" on="0"/>
        <pt x="369" y="1373" on="1"/>
        <pt x="423" y="1403" on="0"/>
        <pt x="564" y="1403" on="1"/>
        <pt x="753" y="1403" on="1"/>
        <pt x="790" y="1402" on="1"/>
        <pt x="1094" y="1403" on="1"/>
        <pt x="1169" y="1403" on="1"/>
        <pt x="1271" y="1403" on="0"/>
      </contour>
    </TTGlyph>
    <TTGlyph name="Zcaron" xMin="64" yMin="-6" xMax="1264" yMax="1853">
      <contour>
        <pt x="1121" y="1853" on="1"/>
        <pt x="1135" y="1853" on="1"/>
        <pt x="1170" y="1853" on="0"/>
        <pt x="1170" y="1830" on="1"/>
        <pt x="1170" y="1773" on="0"/>
        <pt x="922" y="1582" on="1"/>
        <pt x="866" y="1539" on="0"/>
        <pt x="816" y="1539" on="1"/>
        <pt x="808" y="1539" on="1"/>
        <pt x="768" y="1539" on="0"/>
        <pt x="713" y="1619" on="1"/>
        <pt x="595" y="1789" on="0"/>
        <pt x="595" y="1816" on="1"/>
        <pt x="595" y="1822" on="1"/>
        <pt x="595" y="1853" on="0"/>
        <pt x="642" y="1853" on="1"/>
        <pt x="649" y="1852" on="1"/>
        <pt x="656" y="1852" on="1"/>
        <pt x="697" y="1852" on="0"/>
        <pt x="841" y="1695" on="0"/>
        <pt x="866" y="1695" on="0"/>
        <pt x="1071" y="1853" on="0"/>
      </contour>
      <contour>
        <pt x="267" y="5" on="1"/>
        <pt x="121" y="5" on="0"/>
        <pt x="64" y="30" on="0"/>
        <pt x="64" y="79" on="1"/>
        <pt x="64" y="148" on="0"/>
        <pt x="932" y="1201" on="0"/>
        <pt x="932" y="1270" on="0"/>
        <pt x="622" y="1270" on="0"/>
        <pt x="489" y="1232" on="0"/>
        <pt x="352" y="1158" on="0"/>
        <pt x="326" y="1158" on="1"/>
        <pt x="286" y="1158" on="0"/>
        <pt x="286" y="1208" on="1"/>
        <pt x="286" y="1313" on="0"/>
        <pt x="414" y="1413" on="0"/>
        <pt x="549" y="1413" on="1"/>
        <pt x="663" y="1413" on="1"/>
        <pt x="700" y="1412" on="1"/>
        <pt x="774" y="1411" on="1"/>
        <pt x="812" y="1410" on="1"/>
        <pt x="1001" y="1410" on="1"/>
        <pt x="1199" y="1410" on="0"/>
        <pt x="1217" y="1406" on="1"/>
        <pt x="1264" y="1395" on="0"/>
        <pt x="1264" y="1359" on="1"/>
        <pt x="384" y="194" on="1"/>
        <pt x="384" y="143" on="0"/>
        <pt x="631" y="143" on="1"/>
        <pt x="765" y="143" on="0"/>
        <pt x="900" y="176" on="0"/>
        <pt x="1042" y="251" on="0"/>
        <pt x="1065" y="251" on="1"/>
        <pt x="1107" y="251" on="0"/>
        <pt x="1107" y="202" on="1"/>
        <pt x="1107" y="100" on="0"/>
        <pt x="976" y="-6" on="0"/>
        <pt x="867" y="-6" on="1"/>
        <pt x="754" y="-6" on="1"/>
        <pt x="341" y="5" on="1"/>
      </contour>
    </TTGlyph>
    <TTGlyph name="a" xMin="78" yMin="24" xMax="969" yMax="958">
      <contour>
        <pt x="267" y="372" on="1"/>
        <pt x="267" y="352" on="1"/>
        <pt x="267" y="261" on="0"/>
        <pt x="337" y="136" on="0"/>
        <pt x="401" y="136" on="1"/>
        <pt x="419" y="136" on="1"/>
        <pt x="476" y="136" on="0"/>
        <pt x="614" y="237" on="0"/>
        <pt x="662" y="319" on="1"/>
        <pt x="759" y="484" on="0"/>
        <pt x="759" y="686" on="1"/>
        <pt x="759" y="733" on="1"/>
        <pt x="759" y="792" on="0"/>
        <pt x="695" y="846" on="0"/>
        <pt x="627" y="846" on="1"/>
        <pt x="617" y="846" on="1"/>
        <pt x="560" y="846" on="0"/>
        <pt x="430" y="777" on="0"/>
        <pt x="372" y="695" on="1"/>
        <pt x="267" y="546" on="0"/>
      </contour>
      <contour>
        <pt x="78" y="304" on="1"/>
        <pt x="78" y="344" on="1"/>
        <pt x="78" y="439" on="0"/>
        <pt x="161" y="668" on="0"/>
        <pt x="311" y="849" on="0"/>
        <pt x="512" y="958" on="0"/>
        <pt x="608" y="958" on="1"/>
        <pt x="626" y="958" on="1"/>
        <pt x="669" y="958" on="0"/>
        <pt x="840" y="914" on="0"/>
        <pt x="886" y="914" on="1"/>
        <pt x="969" y="914" on="0"/>
        <pt x="969" y="848" on="1"/>
        <pt x="969" y="820" on="1"/>
        <pt x="969" y="772" on="0"/>
        <pt x="887" y="392" on="0"/>
        <pt x="887" y="254" on="0"/>
        <pt x="957" y="174" on="0"/>
        <pt x="957" y="92" on="0"/>
        <pt x="879" y="36" on="0"/>
        <pt x="782" y="36" on="0"/>
        <pt x="675" y="136" on="0"/>
        <pt x="638" y="136" on="1"/>
        <pt x="629" y="136" on="0"/>
        <pt x="418" y="24" on="0"/>
        <pt x="340" y="24" on="1"/>
        <pt x="322" y="24" on="1"/>
        <pt x="220" y="24" on="0"/>
        <pt x="78" y="179" on="0"/>
      </contour>
    </TTGlyph>
    <TTGlyph name="aacute" xMin="86" yMin="48" xMax="971" yMax="1464">
      <contour>
        <pt x="276" y="414" on="1"/>
        <pt x="276" y="374" on="1"/>
        <pt x="276" y="288" on="0"/>
        <pt x="348" y="168" on="0"/>
        <pt x="409" y="168" on="1"/>
        <pt x="427" y="168" on="1"/>
        <pt x="478" y="168" on="0"/>
        <pt x="623" y="268" on="0"/>
        <pt x="666" y="344" on="1"/>
        <pt x="769" y="527" on="0"/>
        <pt x="769" y="727" on="1"/>
        <pt x="769" y="746" on="1"/>
        <pt x="769" y="822" on="0"/>
        <pt x="708" y="878" on="0"/>
        <pt x="646" y="878" on="1"/>
        <pt x="617" y="878" on="1"/>
        <pt x="548" y="878" on="0"/>
        <pt x="422" y="785" on="0"/>
        <pt x="381" y="726" on="1"/>
        <pt x="276" y="573" on="0"/>
      </contour>
      <contour>
        <pt x="624" y="1118" on="1"/>
        <pt x="614" y="1118" on="1"/>
        <pt x="583" y="1118" on="0"/>
        <pt x="583" y="1133" on="1"/>
        <pt x="583" y="1137" on="1"/>
        <pt x="583" y="1190" on="0"/>
        <pt x="777" y="1412" on="1"/>
        <pt x="823" y="1464" on="0"/>
        <pt x="896" y="1464" on="1"/>
        <pt x="901" y="1464" on="1"/>
        <pt x="969" y="1464" on="0"/>
        <pt x="969" y="1437" on="1"/>
        <pt x="969" y="1398" on="0"/>
        <pt x="654" y="1118" on="0"/>
      </contour>
      <contour>
        <pt x="971" y="870" on="1"/>
        <pt x="971" y="856" on="1"/>
        <pt x="971" y="833" on="0"/>
        <pt x="890" y="394" on="0"/>
        <pt x="890" y="283" on="0"/>
        <pt x="959" y="197" on="0"/>
        <pt x="959" y="118" on="0"/>
        <pt x="880" y="60" on="0"/>
        <pt x="777" y="60" on="0"/>
        <pt x="680" y="157" on="0"/>
        <pt x="640" y="157" on="1"/>
        <pt x="628" y="157" on="0"/>
        <pt x="423" y="48" on="0"/>
        <pt x="345" y="48" on="1"/>
        <pt x="328" y="48" on="1"/>
        <pt x="219" y="48" on="0"/>
        <pt x="86" y="211" on="0"/>
        <pt x="86" y="459" on="0"/>
        <pt x="170" y="690" on="0"/>
        <pt x="315" y="865" on="0"/>
        <pt x="513" y="979" on="0"/>
        <pt x="612" y="979" on="1"/>
        <pt x="630" y="979" on="1"/>
        <pt x="673" y="979" on="0"/>
        <pt x="845" y="936" on="0"/>
        <pt x="889" y="936" on="1"/>
        <pt x="971" y="936" on="0"/>
      </contour>
    </TTGlyph>
    <TTGlyph name="acircumflex" xMin="91" yMin="40" xMax="977" yMax="1466">
      <contour>
        <pt x="278" y="412" on="1"/>
        <pt x="278" y="363" on="1"/>
        <pt x="278" y="282" on="0"/>
        <pt x="350" y="163" on="0"/>
        <pt x="406" y="163" on="1"/>
        <pt x="433" y="163" on="1"/>
        <pt x="472" y="163" on="0"/>
        <pt x="536" y="199" on="1"/>
        <pt x="668" y="273" on="0"/>
        <pt x="732" y="477" on="1"/>
        <pt x="771" y="601" on="0"/>
        <pt x="771" y="700" on="1"/>
        <pt x="771" y="747" on="1"/>
        <pt x="771" y="814" on="0"/>
        <pt x="702" y="868" on="0"/>
        <pt x="636" y="868" on="1"/>
        <pt x="626" y="868" on="1"/>
        <pt x="511" y="868" on="0"/>
        <pt x="406" y="747" on="1"/>
        <pt x="352" y="684" on="0"/>
        <pt x="278" y="485" on="0"/>
      </contour>
      <contour>
        <pt x="746" y="1466" on="1"/>
        <pt x="788" y="1466" on="0"/>
        <pt x="816" y="1426" on="1"/>
        <pt x="958" y="1221" on="0"/>
        <pt x="958" y="1149" on="1"/>
        <pt x="958" y="1124" on="0"/>
        <pt x="876" y="1124" on="0"/>
        <pt x="728" y="1316" on="0"/>
        <pt x="721" y="1316" on="1"/>
        <pt x="708" y="1316" on="0"/>
        <pt x="497" y="1122" on="0"/>
        <pt x="451" y="1122" on="1"/>
        <pt x="443" y="1122" on="1"/>
        <pt x="414" y="1122" on="0"/>
        <pt x="414" y="1140" on="1"/>
        <pt x="414" y="1145" on="1"/>
        <pt x="414" y="1163" on="0"/>
        <pt x="717" y="1466" on="0"/>
      </contour>
      <contour>
        <pt x="91" y="320" on="1"/>
        <pt x="91" y="359" on="1"/>
        <pt x="91" y="470" on="0"/>
        <pt x="139" y="586" on="1"/>
        <pt x="238" y="824" on="0"/>
        <pt x="437" y="923" on="1"/>
        <pt x="531" y="970" on="0"/>
        <pt x="618" y="970" on="1"/>
        <pt x="636" y="970" on="1"/>
        <pt x="674" y="970" on="0"/>
        <pt x="850" y="926" on="0"/>
        <pt x="906" y="926" on="1"/>
        <pt x="977" y="926" on="0"/>
        <pt x="977" y="862" on="1"/>
        <pt x="977" y="848" on="1"/>
        <pt x="977" y="820" on="0"/>
        <pt x="895" y="387" on="0"/>
        <pt x="895" y="275" on="0"/>
        <pt x="964" y="189" on="0"/>
        <pt x="964" y="111" on="0"/>
        <pt x="886" y="52" on="0"/>
        <pt x="787" y="52" on="0"/>
        <pt x="683" y="149" on="0"/>
        <pt x="645" y="149" on="1"/>
        <pt x="629" y="149" on="0"/>
        <pt x="430" y="40" on="0"/>
        <pt x="224" y="40" on="0"/>
        <pt x="91" y="203" on="0"/>
      </contour>
    </TTGlyph>
    <TTGlyph name="acute" xMin="273" yMin="1082" xMax="659" yMax="1422">
      <contour>
        <pt x="566" y="1422" on="1"/>
        <pt x="604" y="1422" on="1"/>
        <pt x="659" y="1422" on="0"/>
        <pt x="659" y="1398" on="1"/>
        <pt x="659" y="1394" on="1"/>
        <pt x="659" y="1347" on="0"/>
        <pt x="465" y="1175" on="1"/>
        <pt x="360" y="1082" on="0"/>
        <pt x="314" y="1082" on="1"/>
        <pt x="309" y="1082" on="1"/>
        <pt x="273" y="1082" on="0"/>
        <pt x="273" y="1098" on="1"/>
        <pt x="273" y="1102" on="1"/>
        <pt x="273" y="1160" on="0"/>
        <pt x="458" y="1371" on="1"/>
        <pt x="503" y="1422" on="0"/>
      </contour>
    </TTGlyph>
    <TTGlyph name="adieresis" xMin="93" yMin="49" xMax="994" yMax="1389">
      <contour>
        <pt x="280" y="421" on="1"/>
        <pt x="280" y="372" on="1"/>
        <pt x="280" y="290" on="0"/>
        <pt x="352" y="170" on="0"/>
        <pt x="416" y="170" on="1"/>
        <pt x="434" y="170" on="1"/>
        <pt x="481" y="170" on="0"/>
        <pt x="622" y="264" on="0"/>
        <pt x="660" y="329" on="1"/>
        <pt x="769" y="514" on="0"/>
        <pt x="769" y="709" on="1"/>
        <pt x="769" y="765" on="1"/>
        <pt x="769" y="817" on="0"/>
        <pt x="711" y="875" on="0"/>
        <pt x="635" y="875" on="1"/>
        <pt x="625" y="875" on="1"/>
        <pt x="573" y="875" on="0"/>
        <pt x="451" y="810" on="0"/>
        <pt x="344" y="677" on="0"/>
        <pt x="280" y="485" on="0"/>
      </contour>
      <contour>
        <pt x="532" y="1389" on="1"/>
        <pt x="556" y="1389" on="1"/>
        <pt x="568" y="1386" on="0"/>
        <pt x="573" y="1386" on="1"/>
        <pt x="635" y="1386" on="0"/>
        <pt x="635" y="1310" on="1"/>
        <pt x="635" y="1286" on="1"/>
        <pt x="635" y="1250" on="0"/>
        <pt x="574" y="1174" on="0"/>
        <pt x="528" y="1174" on="1"/>
        <pt x="504" y="1174" on="1"/>
        <pt x="492" y="1177" on="0"/>
        <pt x="487" y="1177" on="1"/>
        <pt x="426" y="1177" on="0"/>
        <pt x="426" y="1259" on="1"/>
        <pt x="426" y="1269" on="1"/>
        <pt x="431" y="1300" on="1"/>
        <pt x="431" y="1326" on="0"/>
        <pt x="494" y="1389" on="0"/>
      </contour>
      <contour>
        <pt x="994" y="1307" on="1"/>
        <pt x="994" y="1296" on="1"/>
        <pt x="994" y="1235" on="0"/>
        <pt x="918" y="1159" on="0"/>
        <pt x="879" y="1159" on="1"/>
        <pt x="863" y="1159" on="1"/>
        <pt x="835" y="1159" on="0"/>
        <pt x="789" y="1205" on="0"/>
        <pt x="789" y="1245" on="1"/>
        <pt x="789" y="1261" on="1"/>
        <pt x="790" y="1264" on="1"/>
        <pt x="790" y="1271" on="1"/>
        <pt x="792" y="1277" on="0"/>
        <pt x="792" y="1305" on="0"/>
        <pt x="854" y="1380" on="0"/>
        <pt x="888" y="1380" on="1"/>
        <pt x="909" y="1383" on="1"/>
        <pt x="926" y="1383" on="1"/>
        <pt x="994" y="1383" on="0"/>
      </contour>
      <contour>
        <pt x="93" y="328" on="1"/>
        <pt x="93" y="368" on="1"/>
        <pt x="93" y="474" on="0"/>
        <pt x="139" y="589" on="1"/>
        <pt x="235" y="829" on="0"/>
        <pt x="439" y="931" on="1"/>
        <pt x="533" y="978" on="0"/>
        <pt x="619" y="978" on="1"/>
        <pt x="638" y="978" on="1"/>
        <pt x="666" y="978" on="0"/>
        <pt x="863" y="935" on="0"/>
        <pt x="945" y="935" on="0"/>
        <pt x="979" y="901" on="0"/>
        <pt x="979" y="800" on="0"/>
        <pt x="897" y="421" on="0"/>
        <pt x="897" y="283" on="0"/>
        <pt x="966" y="197" on="0"/>
        <pt x="966" y="120" on="0"/>
        <pt x="888" y="61" on="0"/>
        <pt x="821" y="61" on="1"/>
        <pt x="787" y="61" on="0"/>
        <pt x="684" y="158" on="0"/>
        <pt x="647" y="158" on="1"/>
        <pt x="634" y="158" on="0"/>
        <pt x="429" y="49" on="0"/>
        <pt x="351" y="49" on="1"/>
        <pt x="334" y="49" on="1"/>
        <pt x="234" y="49" on="0"/>
        <pt x="93" y="202" on="0"/>
      </contour>
    </TTGlyph>
    <TTGlyph name="ae" xMin="129" yMin="20" xMax="1450" yMax="969">
      <contour>
        <pt x="316" y="340" on="1"/>
        <pt x="316" y="331" on="1"/>
        <pt x="316" y="258" on="0"/>
        <pt x="374" y="161" on="0"/>
        <pt x="433" y="161" on="1"/>
        <pt x="442" y="161" on="1"/>
        <pt x="480" y="161" on="0"/>
        <pt x="610" y="242" on="0"/>
        <pt x="646" y="303" on="1"/>
        <pt x="661" y="328" on="0"/>
        <pt x="794" y="727" on="0"/>
        <pt x="794" y="776" on="1"/>
        <pt x="794" y="784" on="1"/>
        <pt x="794" y="802" on="0"/>
        <pt x="739" y="848" on="0"/>
        <pt x="673" y="848" on="1"/>
        <pt x="664" y="847" on="1"/>
        <pt x="537" y="847" on="0"/>
        <pt x="316" y="527" on="0"/>
      </contour>
      <contour>
        <pt x="918" y="569" on="1"/>
        <pt x="918" y="538" on="0"/>
        <pt x="953" y="538" on="1"/>
        <pt x="959" y="538" on="1"/>
        <pt x="974" y="540" on="1"/>
        <pt x="1087" y="540" on="0"/>
        <pt x="1279" y="689" on="0"/>
        <pt x="1279" y="767" on="1"/>
        <pt x="1279" y="801" on="1"/>
        <pt x="1279" y="875" on="0"/>
        <pt x="1195" y="875" on="1"/>
        <pt x="1171" y="875" on="1"/>
        <pt x="1096" y="875" on="0"/>
        <pt x="916" y="673" on="0"/>
        <pt x="916" y="584" on="1"/>
        <pt x="916" y="580" on="1"/>
        <pt x="918" y="574" on="0"/>
      </contour>
      <contour>
        <pt x="1357" y="209" on="1"/>
        <pt x="1357" y="152" on="0"/>
        <pt x="1119" y="20" on="0"/>
        <pt x="933" y="20" on="0"/>
        <pt x="824" y="74" on="0"/>
        <pt x="725" y="187" on="0"/>
        <pt x="691" y="187" on="0"/>
        <pt x="441" y="28" on="0"/>
        <pt x="250" y="28" on="0"/>
        <pt x="129" y="181" on="0"/>
        <pt x="129" y="292" on="1"/>
        <pt x="129" y="319" on="1"/>
        <pt x="129" y="431" on="0"/>
        <pt x="230" y="667" on="0"/>
        <pt x="314" y="756" on="1"/>
        <pt x="485" y="936" on="0"/>
        <pt x="723" y="936" on="1"/>
        <pt x="769" y="936" on="0"/>
        <pt x="864" y="949" on="0"/>
        <pt x="906" y="949" on="0"/>
        <pt x="976" y="914" on="0"/>
        <pt x="1005" y="914" on="0"/>
        <pt x="1148" y="969" on="0"/>
        <pt x="1220" y="969" on="1"/>
        <pt x="1246" y="969" on="1"/>
        <pt x="1343" y="969" on="0"/>
        <pt x="1450" y="858" on="0"/>
        <pt x="1450" y="782" on="1"/>
        <pt x="1450" y="757" on="1"/>
        <pt x="1450" y="645" on="0"/>
        <pt x="1372" y="586" on="1"/>
        <pt x="1271" y="510" on="0"/>
        <pt x="1057" y="457" on="1"/>
        <pt x="957" y="432" on="0"/>
        <pt x="944" y="425" on="1"/>
        <pt x="899" y="401" on="0"/>
        <pt x="899" y="262" on="0"/>
        <pt x="998" y="160" on="0"/>
        <pt x="1137" y="160" on="0"/>
        <pt x="1325" y="232" on="0"/>
        <pt x="1357" y="232" on="0"/>
      </contour>
    </TTGlyph>
    <TTGlyph name="agrave" xMin="90" yMin="47" xMax="976" yMax="1469">
      <contour>
        <pt x="277" y="416" on="1"/>
        <pt x="277" y="376" on="1"/>
        <pt x="277" y="284" on="0"/>
        <pt x="354" y="168" on="0"/>
        <pt x="418" y="168" on="1"/>
        <pt x="427" y="168" on="1"/>
        <pt x="488" y="168" on="0"/>
        <pt x="633" y="275" on="0"/>
        <pt x="676" y="355" on="1"/>
        <pt x="766" y="525" on="0"/>
        <pt x="766" y="711" on="1"/>
        <pt x="766" y="758" on="1"/>
        <pt x="766" y="874" on="0"/>
        <pt x="637" y="874" on="1"/>
        <pt x="618" y="874" on="1"/>
        <pt x="563" y="874" on="0"/>
        <pt x="432" y="800" on="0"/>
        <pt x="387" y="735" on="1"/>
        <pt x="277" y="575" on="0"/>
      </contour>
      <contour>
        <pt x="520" y="1469" on="1"/>
        <pt x="540" y="1469" on="1"/>
        <pt x="609" y="1469" on="0"/>
        <pt x="642" y="1419" on="1"/>
        <pt x="777" y="1216" on="0"/>
        <pt x="777" y="1145" on="1"/>
        <pt x="776" y="1140" on="1"/>
        <pt x="776" y="1136" on="1"/>
        <pt x="776" y="1116" on="0"/>
        <pt x="746" y="1116" on="1"/>
        <pt x="732" y="1116" on="1"/>
        <pt x="700" y="1116" on="0"/>
        <pt x="460" y="1391" on="0"/>
        <pt x="460" y="1430" on="1"/>
        <pt x="460" y="1438" on="1"/>
        <pt x="460" y="1469" on="0"/>
      </contour>
      <contour>
        <pt x="90" y="326" on="1"/>
        <pt x="90" y="366" on="1"/>
        <pt x="90" y="480" on="0"/>
        <pt x="139" y="594" on="1"/>
        <pt x="239" y="827" on="0"/>
        <pt x="436" y="929" on="1"/>
        <pt x="527" y="976" on="0"/>
        <pt x="617" y="976" on="1"/>
        <pt x="635" y="976" on="1"/>
        <pt x="663" y="976" on="0"/>
        <pt x="860" y="933" on="0"/>
        <pt x="892" y="933" on="1"/>
        <pt x="976" y="933" on="0"/>
        <pt x="976" y="868" on="1"/>
        <pt x="976" y="855" on="1"/>
        <pt x="976" y="826" on="0"/>
        <pt x="894" y="393" on="0"/>
        <pt x="894" y="281" on="0"/>
        <pt x="963" y="195" on="0"/>
        <pt x="963" y="117" on="0"/>
        <pt x="886" y="59" on="0"/>
        <pt x="818" y="59" on="1"/>
        <pt x="784" y="59" on="0"/>
        <pt x="681" y="156" on="0"/>
        <pt x="644" y="156" on="1"/>
        <pt x="630" y="156" on="0"/>
        <pt x="431" y="47" on="0"/>
        <pt x="348" y="47" on="1"/>
        <pt x="331" y="47" on="1"/>
        <pt x="231" y="47" on="0"/>
        <pt x="90" y="200" on="0"/>
      </contour>
    </TTGlyph>
    <TTGlyph name="ampersand" xMin="137" yMin="-10" xMax="1383" yMax="1419">
      <contour>
        <pt x="705" y="890" on="1"/>
        <pt x="714" y="890" on="1"/>
        <pt x="783" y="890" on="0"/>
        <pt x="949" y="1080" on="0"/>
        <pt x="949" y="1150" on="1"/>
        <pt x="949" y="1179" on="1"/>
        <pt x="949" y="1223" on="0"/>
        <pt x="887" y="1294" on="0"/>
        <pt x="840" y="1294" on="1"/>
        <pt x="804" y="1294" on="1"/>
        <pt x="730" y="1294" on="0"/>
        <pt x="631" y="1167" on="0"/>
        <pt x="631" y="1099" on="1"/>
        <pt x="631" y="1064" on="1"/>
        <pt x="631" y="988" on="0"/>
        <pt x="679" y="916" on="1"/>
        <pt x="696" y="890" on="0"/>
      </contour>
      <contour>
        <pt x="569" y="126" on="1"/>
        <pt x="604" y="126" on="1"/>
        <pt x="679" y="126" on="0"/>
        <pt x="869" y="215" on="0"/>
        <pt x="869" y="250" on="1"/>
        <pt x="869" y="256" on="1"/>
        <pt x="869" y="266" on="0"/>
        <pt x="597" y="659" on="0"/>
        <pt x="579" y="659" on="1"/>
        <pt x="566" y="659" on="1"/>
        <pt x="556" y="659" on="0"/>
        <pt x="446" y="581" on="0"/>
        <pt x="352" y="434" on="0"/>
        <pt x="352" y="348" on="1"/>
        <pt x="352" y="339" on="1"/>
        <pt x="352" y="241" on="0"/>
        <pt x="479" y="126" on="0"/>
      </contour>
      <contour>
        <pt x="895" y="660" on="1"/>
        <pt x="895" y="612" on="0"/>
        <pt x="963" y="559" on="0"/>
        <pt x="1053" y="559" on="1"/>
        <pt x="1066" y="559" on="0"/>
        <pt x="1123" y="666" on="0"/>
        <pt x="1261" y="766" on="0"/>
        <pt x="1339" y="766" on="1"/>
        <pt x="1383" y="766" on="0"/>
        <pt x="1383" y="667" on="0"/>
        <pt x="1182" y="363" on="0"/>
        <pt x="1182" y="275" on="1"/>
        <pt x="1182" y="251" on="0"/>
        <pt x="1269" y="89" on="0"/>
        <pt x="1269" y="43" on="0"/>
        <pt x="1217" y="43" on="0"/>
        <pt x="1115" y="68" on="0"/>
        <pt x="1001" y="68" on="0"/>
        <pt x="847" y="48" on="1"/>
        <pt x="843" y="48" on="0"/>
        <pt x="624" y="-10" on="0"/>
        <pt x="536" y="-10" on="1"/>
        <pt x="343" y="-10" on="0"/>
        <pt x="137" y="169" on="0"/>
        <pt x="137" y="321" on="1"/>
        <pt x="137" y="520" on="0"/>
        <pt x="342" y="683" on="1"/>
        <pt x="475" y="789" on="0"/>
        <pt x="475" y="845" on="1"/>
        <pt x="474" y="853" on="0"/>
        <pt x="434" y="991" on="0"/>
        <pt x="434" y="1061" on="1"/>
        <pt x="434" y="1215" on="0"/>
        <pt x="662" y="1419" on="0"/>
        <pt x="806" y="1419" on="1"/>
        <pt x="836" y="1419" on="1"/>
        <pt x="948" y="1419" on="0"/>
        <pt x="1092" y="1286" on="0"/>
        <pt x="1092" y="1108" on="0"/>
        <pt x="895" y="765" on="0"/>
      </contour>
    </TTGlyph>
    <TTGlyph name="aring" xMin="89" yMin="53" xMax="974" yMax="1505">
      <contour>
        <pt x="812" y="1313" on="1"/>
        <pt x="812" y="1337" on="1"/>
        <pt x="812" y="1370" on="0"/>
        <pt x="760" y="1422" on="0"/>
        <pt x="731" y="1422" on="1"/>
        <pt x="711" y="1422" on="1"/>
        <pt x="691" y="1418" on="1"/>
        <pt x="674" y="1418" on="0"/>
        <pt x="610" y="1354" on="0"/>
        <pt x="610" y="1311" on="1"/>
        <pt x="610" y="1294" on="1"/>
        <pt x="611" y="1290" on="1"/>
        <pt x="611" y="1283" on="1"/>
        <pt x="613" y="1277" on="0"/>
        <pt x="613" y="1254" on="0"/>
        <pt x="662" y="1205" on="0"/>
        <pt x="698" y="1205" on="1"/>
        <pt x="705" y="1205" on="1"/>
        <pt x="731" y="1209" on="1"/>
        <pt x="749" y="1209" on="0"/>
        <pt x="812" y="1272" on="0"/>
      </contour>
      <contour>
        <pt x="273" y="422" on="1"/>
        <pt x="273" y="362" on="1"/>
        <pt x="273" y="278" on="0"/>
        <pt x="350" y="162" on="0"/>
        <pt x="405" y="162" on="1"/>
        <pt x="432" y="162" on="1"/>
        <pt x="485" y="162" on="0"/>
        <pt x="630" y="268" on="0"/>
        <pt x="711" y="406" on="0"/>
        <pt x="770" y="631" on="0"/>
        <pt x="770" y="734" on="1"/>
        <pt x="770" y="743" on="1"/>
        <pt x="770" y="812" on="0"/>
        <pt x="718" y="874" on="0"/>
        <pt x="643" y="874" on="1"/>
        <pt x="624" y="874" on="1"/>
        <pt x="614" y="873" on="1"/>
        <pt x="498" y="873" on="0"/>
        <pt x="400" y="752" on="1"/>
        <pt x="342" y="681" on="0"/>
        <pt x="273" y="493" on="0"/>
      </contour>
      <contour>
        <pt x="706" y="1123" on="1"/>
        <pt x="680" y="1123" on="1"/>
        <pt x="618" y="1123" on="0"/>
        <pt x="515" y="1215" on="0"/>
        <pt x="515" y="1284" on="1"/>
        <pt x="515" y="1303" on="1"/>
        <pt x="515" y="1373" on="0"/>
        <pt x="631" y="1503" on="0"/>
        <pt x="704" y="1503" on="1"/>
        <pt x="717" y="1505" on="1"/>
        <pt x="742" y="1505" on="1"/>
        <pt x="803" y="1505" on="0"/>
        <pt x="907" y="1413" on="0"/>
        <pt x="907" y="1350" on="1"/>
        <pt x="907" y="1318" on="1"/>
        <pt x="907" y="1248" on="0"/>
        <pt x="782" y="1123" on="0"/>
      </contour>
      <contour>
        <pt x="89" y="332" on="1"/>
        <pt x="89" y="371" on="1"/>
        <pt x="89" y="465" on="0"/>
        <pt x="172" y="694" on="0"/>
        <pt x="317" y="868" on="0"/>
        <pt x="516" y="983" on="0"/>
        <pt x="615" y="983" on="1"/>
        <pt x="633" y="983" on="1"/>
        <pt x="661" y="983" on="0"/>
        <pt x="852" y="940" on="0"/>
        <pt x="891" y="940" on="1"/>
        <pt x="974" y="940" on="0"/>
        <pt x="974" y="874" on="1"/>
        <pt x="974" y="846" on="1"/>
        <pt x="974" y="826" on="0"/>
        <pt x="893" y="398" on="0"/>
        <pt x="893" y="288" on="0"/>
        <pt x="962" y="202" on="0"/>
        <pt x="962" y="126" on="0"/>
        <pt x="885" y="64" on="0"/>
        <pt x="786" y="64" on="0"/>
        <pt x="680" y="163" on="0"/>
        <pt x="644" y="163" on="1"/>
        <pt x="633" y="163" on="0"/>
        <pt x="426" y="53" on="0"/>
        <pt x="348" y="53" on="1"/>
        <pt x="331" y="53" on="1"/>
        <pt x="230" y="53" on="0"/>
        <pt x="89" y="206" on="0"/>
      </contour>
    </TTGlyph>
    <TTGlyph name="asciicircum" xMin="205" yMin="751" xMax="967" yMax="1372">
      <contour>
        <pt x="658" y="1372" on="1"/>
        <pt x="671" y="1372" on="1"/>
        <pt x="704" y="1372" on="0"/>
        <pt x="734" y="1317" on="1"/>
        <pt x="791" y="1212" on="0"/>
        <pt x="967" y="796" on="0"/>
        <pt x="967" y="787" on="1"/>
        <pt x="967" y="751" on="0"/>
        <pt x="910" y="751" on="1"/>
        <pt x="898" y="751" on="1"/>
        <pt x="828" y="751" on="0"/>
        <pt x="722" y="1005" on="1"/>
        <pt x="645" y="1186" on="0"/>
        <pt x="625" y="1186" on="1"/>
        <pt x="617" y="1186" on="0"/>
        <pt x="403" y="866" on="0"/>
        <pt x="307" y="752" on="0"/>
        <pt x="205" y="752" on="0"/>
        <pt x="205" y="769" on="1"/>
        <pt x="205" y="828" on="0"/>
        <pt x="562" y="1311" on="1"/>
        <pt x="607" y="1372" on="0"/>
      </contour>
    </TTGlyph>
    <TTGlyph name="asciitilde" xMin="153" yMin="549" xMax="1021" yMax="815">
      <contour>
        <pt x="766" y="549" on="1"/>
        <pt x="745" y="549" on="1"/>
        <pt x="687" y="549" on="0"/>
        <pt x="439" y="679" on="0"/>
        <pt x="349" y="679" on="0"/>
        <pt x="206" y="565" on="0"/>
        <pt x="186" y="565" on="1"/>
        <pt x="153" y="565" on="0"/>
        <pt x="153" y="598" on="1"/>
        <pt x="153" y="673" on="0"/>
        <pt x="326" y="815" on="0"/>
        <pt x="408" y="815" on="1"/>
        <pt x="439" y="815" on="1"/>
        <pt x="505" y="815" on="0"/>
        <pt x="721" y="685" on="0"/>
        <pt x="826" y="685" on="0"/>
        <pt x="964" y="797" on="0"/>
        <pt x="989" y="797" on="1"/>
        <pt x="1021" y="797" on="0"/>
        <pt x="1021" y="764" on="1"/>
        <pt x="1021" y="690" on="0"/>
        <pt x="918" y="605" on="1"/>
        <pt x="850" y="549" on="0"/>
      </contour>
    </TTGlyph>
    <TTGlyph name="asterisk" xMin="253" yMin="752" xMax="859" yMax="1386">
      <contour>
        <pt x="587" y="1386" on="1"/>
        <pt x="604" y="1386" on="1"/>
        <pt x="640" y="1386" on="0"/>
        <pt x="640" y="1296" on="0"/>
        <pt x="625" y="1220" on="1"/>
        <pt x="615" y="1167" on="0"/>
        <pt x="615" y="1150" on="1"/>
        <pt x="614" y="1143" on="0"/>
        <pt x="616" y="1143" on="1"/>
        <pt x="622" y="1143" on="0"/>
        <pt x="768" y="1221" on="0"/>
        <pt x="795" y="1221" on="1"/>
        <pt x="859" y="1221" on="0"/>
        <pt x="859" y="1119" on="0"/>
        <pt x="787" y="1075" on="1"/>
        <pt x="763" y="1060" on="0"/>
        <pt x="677" y="1030" on="0"/>
        <pt x="677" y="1021" on="1"/>
        <pt x="677" y="1000" on="0"/>
        <pt x="757" y="915" on="0"/>
        <pt x="757" y="810" on="0"/>
        <pt x="722" y="810" on="1"/>
        <pt x="661" y="810" on="0"/>
        <pt x="581" y="849" on="0"/>
        <pt x="579" y="849" on="1"/>
        <pt x="563" y="849" on="0"/>
        <pt x="537" y="811" on="1"/>
        <pt x="496" y="752" on="0"/>
        <pt x="432" y="752" on="1"/>
        <pt x="411" y="752" on="0"/>
        <pt x="399" y="789" on="1"/>
        <pt x="399" y="791" on="0"/>
        <pt x="381" y="853" on="0"/>
        <pt x="378" y="856" on="0"/>
        <pt x="253" y="856" on="0"/>
        <pt x="253" y="913" on="1"/>
        <pt x="253" y="927" on="1"/>
        <pt x="253" y="932" on="0"/>
        <pt x="303" y="1016" on="0"/>
        <pt x="331" y="1045" on="0"/>
        <pt x="331" y="1050" on="0"/>
        <pt x="298" y="1079" on="0"/>
        <pt x="254" y="1150" on="0"/>
        <pt x="254" y="1178" on="1"/>
        <pt x="254" y="1233" on="0"/>
        <pt x="319" y="1233" on="1"/>
        <pt x="345" y="1233" on="0"/>
        <pt x="451" y="1173" on="0"/>
        <pt x="477" y="1173" on="1"/>
        <pt x="483" y="1173" on="0"/>
        <pt x="497" y="1325" on="0"/>
        <pt x="536" y="1386" on="0"/>
      </contour>
    </TTGlyph>
    <TTGlyph name="at" xMin="155" yMin="-217" xMax="1668" yMax="1345">
      <contour>
        <pt x="1021" y="851" on="1"/>
        <pt x="999" y="851" on="1"/>
        <pt x="883" y="851" on="0"/>
        <pt x="667" y="564" on="0"/>
        <pt x="667" y="424" on="1"/>
        <pt x="667" y="397" on="1"/>
        <pt x="667" y="339" on="0"/>
        <pt x="725" y="261" on="0"/>
        <pt x="765" y="261" on="1"/>
        <pt x="780" y="261" on="1"/>
        <pt x="787" y="262" on="1"/>
        <pt x="827" y="262" on="0"/>
        <pt x="863" y="287" on="1"/>
        <pt x="940" y="340" on="0"/>
        <pt x="995" y="423" on="1"/>
        <pt x="1109" y="594" on="0"/>
        <pt x="1109" y="741" on="1"/>
        <pt x="1109" y="772" on="1"/>
        <pt x="1109" y="851" on="0"/>
      </contour>
      <contour>
        <pt x="1668" y="752" on="1"/>
        <pt x="1668" y="523" on="0"/>
        <pt x="1536" y="347" on="1"/>
        <pt x="1474" y="264" on="0"/>
        <pt x="1297" y="175" on="0"/>
        <pt x="1178" y="175" on="0"/>
        <pt x="1134" y="197" on="1"/>
        <pt x="1099" y="219" on="1"/>
        <pt x="1046" y="258" on="1"/>
        <pt x="1018" y="258" on="0"/>
        <pt x="834" y="161" on="0"/>
        <pt x="681" y="161" on="0"/>
        <pt x="625" y="212" on="1"/>
        <pt x="547" y="283" on="0"/>
        <pt x="547" y="391" on="1"/>
        <pt x="547" y="623" on="0"/>
        <pt x="689" y="781" on="1"/>
        <pt x="831" y="940" on="0"/>
        <pt x="1018" y="940" on="1"/>
        <pt x="1147" y="940" on="0"/>
        <pt x="1211" y="922" on="1"/>
        <pt x="1256" y="909" on="0"/>
        <pt x="1256" y="834" on="1"/>
        <pt x="1256" y="813" on="0"/>
        <pt x="1201" y="480" on="0"/>
        <pt x="1201" y="368" on="0"/>
        <pt x="1242" y="331" on="0"/>
        <pt x="1289" y="331" on="1"/>
        <pt x="1326" y="344" on="1"/>
        <pt x="1380" y="372" on="0"/>
        <pt x="1484" y="551" on="0"/>
        <pt x="1484" y="684" on="1"/>
        <pt x="1484" y="916" on="0"/>
        <pt x="1214" y="1176" on="0"/>
        <pt x="1006" y="1176" on="1"/>
        <pt x="743" y="1176" on="0"/>
        <pt x="555" y="977" on="1"/>
        <pt x="457" y="874" on="0"/>
        <pt x="349" y="609" on="0"/>
        <pt x="349" y="477" on="1"/>
        <pt x="349" y="70" on="0"/>
        <pt x="656" y="-60" on="1"/>
        <pt x="759" y="-103" on="0"/>
        <pt x="955" y="-103" on="0"/>
        <pt x="1169" y="-59" on="0"/>
        <pt x="1201" y="-59" on="1"/>
        <pt x="1225" y="-59" on="0"/>
        <pt x="1225" y="-94" on="1"/>
        <pt x="1225" y="-139" on="0"/>
        <pt x="1056" y="-186" on="1"/>
        <pt x="946" y="-217" on="0"/>
        <pt x="808" y="-217" on="1"/>
        <pt x="538" y="-217" on="0"/>
        <pt x="355" y="-50" on="1"/>
        <pt x="273" y="25" on="0"/>
        <pt x="155" y="270" on="0"/>
        <pt x="155" y="409" on="1"/>
        <pt x="155" y="468" on="1"/>
        <pt x="155" y="636" on="0"/>
        <pt x="303" y="976" on="0"/>
        <pt x="544" y="1206" on="0"/>
        <pt x="850" y="1345" on="0"/>
        <pt x="1022" y="1345" on="1"/>
        <pt x="1082" y="1345" on="1"/>
        <pt x="1082" y="1345" on="0"/>
        <pt x="1086" y="1345" on="1"/>
        <pt x="1192" y="1345" on="0"/>
        <pt x="1308" y="1298" on="1"/>
        <pt x="1544" y="1203" on="0"/>
        <pt x="1628" y="981" on="1"/>
        <pt x="1668" y="877" on="0"/>
      </contour>
    </TTGlyph>
    <TTGlyph name="atilde" xMin="89" yMin="42" xMax="1022" yMax="1361">
      <contour>
        <pt x="276" y="404" on="1"/>
        <pt x="276" y="374" on="1"/>
        <pt x="276" y="284" on="0"/>
        <pt x="348" y="164" on="0"/>
        <pt x="414" y="164" on="1"/>
        <pt x="432" y="164" on="1"/>
        <pt x="468" y="164" on="0"/>
        <pt x="534" y="199" on="1"/>
        <pt x="664" y="268" on="0"/>
        <pt x="734" y="490" on="1"/>
        <pt x="770" y="604" on="0"/>
        <pt x="770" y="694" on="1"/>
        <pt x="770" y="759" on="1"/>
        <pt x="770" y="867" on="0"/>
        <pt x="643" y="867" on="1"/>
        <pt x="624" y="867" on="1"/>
        <pt x="508" y="867" on="0"/>
        <pt x="404" y="747" on="1"/>
        <pt x="353" y="688" on="0"/>
        <pt x="276" y="491" on="0"/>
      </contour>
      <contour>
        <pt x="816" y="1153" on="1"/>
        <pt x="808" y="1153" on="1"/>
        <pt x="756" y="1153" on="0"/>
        <pt x="598" y="1242" on="0"/>
        <pt x="520" y="1242" on="0"/>
        <pt x="413" y="1159" on="0"/>
        <pt x="370" y="1159" on="0"/>
        <pt x="370" y="1178" on="1"/>
        <pt x="370" y="1185" on="1"/>
        <pt x="370" y="1238" on="0"/>
        <pt x="515" y="1361" on="0"/>
        <pt x="652" y="1361" on="0"/>
        <pt x="800" y="1272" on="0"/>
        <pt x="877" y="1272" on="0"/>
        <pt x="974" y="1353" on="0"/>
        <pt x="1022" y="1353" on="0"/>
        <pt x="1022" y="1332" on="1"/>
        <pt x="1022" y="1325" on="1"/>
        <pt x="1022" y="1272" on="0"/>
        <pt x="891" y="1153" on="0"/>
      </contour>
      <contour>
        <pt x="975" y="863" on="1"/>
        <pt x="975" y="850" on="1"/>
        <pt x="975" y="816" on="0"/>
        <pt x="893" y="383" on="0"/>
        <pt x="893" y="273" on="0"/>
        <pt x="963" y="193" on="0"/>
        <pt x="963" y="113" on="0"/>
        <pt x="885" y="54" on="0"/>
        <pt x="818" y="54" on="1"/>
        <pt x="783" y="54" on="0"/>
        <pt x="680" y="151" on="0"/>
        <pt x="644" y="151" on="1"/>
        <pt x="631" y="151" on="0"/>
        <pt x="426" y="42" on="0"/>
        <pt x="348" y="42" on="1"/>
        <pt x="330" y="42" on="1"/>
        <pt x="228" y="42" on="0"/>
        <pt x="158" y="120" on="1"/>
        <pt x="89" y="197" on="0"/>
        <pt x="89" y="324" on="1"/>
        <pt x="89" y="591" on="0"/>
        <pt x="256" y="784" on="1"/>
        <pt x="332" y="872" on="0"/>
        <pt x="530" y="971" on="0"/>
        <pt x="616" y="971" on="1"/>
        <pt x="634" y="971" on="1"/>
        <pt x="667" y="971" on="0"/>
        <pt x="857" y="928" on="0"/>
        <pt x="892" y="928" on="1"/>
        <pt x="975" y="928" on="0"/>
      </contour>
    </TTGlyph>
    <TTGlyph name="b" xMin="100" yMin="1" xMax="1013" yMax="1466">
      <contour>
        <pt x="326" y="299" on="1"/>
        <pt x="326" y="241" on="1"/>
        <pt x="326" y="184" on="0"/>
        <pt x="413" y="115" on="0"/>
        <pt x="493" y="115" on="1"/>
        <pt x="503" y="116" on="1"/>
        <pt x="552" y="116" on="0"/>
        <pt x="673" y="180" on="0"/>
        <pt x="719" y="247" on="1"/>
        <pt x="829" y="407" on="0"/>
        <pt x="829" y="574" on="1"/>
        <pt x="829" y="614" on="1"/>
        <pt x="829" y="703" on="0"/>
        <pt x="753" y="830" on="0"/>
        <pt x="685" y="830" on="1"/>
        <pt x="657" y="830" on="1"/>
        <pt x="608" y="830" on="0"/>
        <pt x="542" y="788" on="1"/>
        <pt x="411" y="705" on="0"/>
        <pt x="360" y="505" on="1"/>
        <pt x="326" y="369" on="0"/>
      </contour>
      <contour>
        <pt x="100" y="123" on="1"/>
        <pt x="100" y="149" on="0"/>
        <pt x="141" y="331" on="0"/>
        <pt x="147" y="360" on="1"/>
        <pt x="195" y="619" on="1"/>
        <pt x="199" y="643" on="1"/>
        <pt x="293" y="1144" on="0"/>
        <pt x="293" y="1236" on="0"/>
        <pt x="273" y="1339" on="0"/>
        <pt x="273" y="1352" on="1"/>
        <pt x="273" y="1404" on="0"/>
        <pt x="333" y="1466" on="0"/>
        <pt x="390" y="1466" on="1"/>
        <pt x="411" y="1466" on="1"/>
        <pt x="512" y="1466" on="0"/>
        <pt x="512" y="1375" on="1"/>
        <pt x="512" y="1325" on="0"/>
        <pt x="443" y="957" on="0"/>
        <pt x="443" y="925" on="1"/>
        <pt x="443" y="877" on="0"/>
        <pt x="494" y="877" on="1"/>
        <pt x="508" y="877" on="0"/>
        <pt x="685" y="930" on="0"/>
        <pt x="753" y="930" on="1"/>
        <pt x="869" y="930" on="0"/>
        <pt x="1013" y="753" on="0"/>
        <pt x="1013" y="621" on="1"/>
        <pt x="1013" y="597" on="1"/>
        <pt x="1013" y="496" on="0"/>
        <pt x="933" y="267" on="0"/>
        <pt x="780" y="89" on="0"/>
        <pt x="595" y="1" on="0"/>
        <pt x="510" y="1" on="1"/>
        <pt x="487" y="1" on="1"/>
        <pt x="426" y="1" on="0"/>
        <pt x="273" y="52" on="0"/>
        <pt x="247" y="52" on="1"/>
        <pt x="198" y="46" on="1"/>
        <pt x="100" y="46" on="0"/>
      </contour>
    </TTGlyph>
    <TTGlyph name="backslash" xMin="155" yMin="-168" xMax="726" yMax="1482">
      <contour>
        <pt x="726" y="-122" on="1"/>
        <pt x="726" y="-137" on="1"/>
        <pt x="726" y="-168" on="0"/>
        <pt x="589" y="-168" on="0"/>
        <pt x="561" y="-80" on="1"/>
        <pt x="523" y="41" on="0"/>
        <pt x="323" y="820" on="0"/>
        <pt x="155" y="1424" on="0"/>
        <pt x="155" y="1482" on="0"/>
        <pt x="292" y="1482" on="0"/>
        <pt x="320" y="1394" on="1"/>
        <pt x="439" y="1017" on="0"/>
        <pt x="670" y="91" on="1"/>
        <pt x="676" y="65" on="0"/>
        <pt x="726" y="-113" on="0"/>
      </contour>
    </TTGlyph>
    <TTGlyph name="bar" xMin="169" yMin="-367" xMax="487" yMax="1511">
      <contour>
        <pt x="169" y="-318" on="1"/>
        <pt x="169" y="-303" on="0"/>
        <pt x="222" y="227" on="0"/>
        <pt x="242" y="432" on="1"/>
        <pt x="246" y="473" on="1"/>
        <pt x="249" y="514" on="1"/>
        <pt x="257" y="595" on="1"/>
        <pt x="265" y="677" on="0"/>
        <pt x="275" y="777" on="1"/>
        <pt x="283" y="857" on="1"/>
        <pt x="287" y="898" on="0"/>
        <pt x="291" y="938" on="1"/>
        <pt x="295" y="978" on="1"/>
        <pt x="298" y="1018" on="1"/>
        <pt x="306" y="1099" on="1"/>
        <pt x="322" y="1256" on="0"/>
        <pt x="330" y="1370" on="0"/>
        <pt x="348" y="1511" on="0"/>
        <pt x="418" y="1511" on="1"/>
        <pt x="438" y="1511" on="1"/>
        <pt x="487" y="1511" on="0"/>
        <pt x="487" y="1462" on="1"/>
        <pt x="487" y="1449" on="0"/>
        <pt x="426" y="839" on="0"/>
        <pt x="414" y="716" on="1"/>
        <pt x="406" y="635" on="1"/>
        <pt x="400" y="561" on="0"/>
        <pt x="377" y="331" on="0"/>
        <pt x="373" y="290" on="1"/>
        <pt x="365" y="210" on="1"/>
        <pt x="357" y="133" on="0"/>
        <pt x="354" y="93" on="0"/>
        <pt x="318" y="-281" on="0"/>
        <pt x="316" y="-295" on="1"/>
        <pt x="307" y="-367" on="0"/>
        <pt x="237" y="-367" on="1"/>
        <pt x="217" y="-367" on="1"/>
        <pt x="169" y="-367" on="0"/>
      </contour>
    </TTGlyph>
    <TTGlyph name="braceleft" xMin="131" yMin="-340" xMax="817" yMax="1511">
      <contour>
        <pt x="438" y="376" on="1"/>
        <pt x="438" y="314" on="0"/>
        <pt x="375" y="5" on="0"/>
        <pt x="375" y="-140" on="0"/>
        <pt x="436" y="-190" on="1"/>
        <pt x="531" y="-267" on="0"/>
        <pt x="531" y="-299" on="1"/>
        <pt x="531" y="-340" on="0"/>
        <pt x="474" y="-340" on="1"/>
        <pt x="345" y="-340" on="0"/>
        <pt x="200" y="-217" on="0"/>
        <pt x="200" y="-90" on="1"/>
        <pt x="200" y="-21" on="0"/>
        <pt x="270" y="304" on="0"/>
        <pt x="270" y="456" on="0"/>
        <pt x="218" y="497" on="1"/>
        <pt x="131" y="566" on="0"/>
        <pt x="131" y="577" on="1"/>
        <pt x="131" y="623" on="0"/>
        <pt x="291" y="699" on="0"/>
        <pt x="327" y="776" on="1"/>
        <pt x="354" y="833" on="0"/>
        <pt x="408" y="1285" on="0"/>
        <pt x="457" y="1359" on="1"/>
        <pt x="558" y="1511" on="0"/>
        <pt x="753" y="1511" on="1"/>
        <pt x="777" y="1511" on="1"/>
        <pt x="817" y="1511" on="0"/>
        <pt x="817" y="1483" on="1"/>
        <pt x="817" y="1430" on="0"/>
        <pt x="637" y="1346" on="0"/>
        <pt x="566" y="1221" on="0"/>
        <pt x="531" y="871" on="0"/>
        <pt x="477" y="719" on="0"/>
        <pt x="411" y="649" on="0"/>
        <pt x="335" y="594" on="0"/>
        <pt x="335" y="586" on="1"/>
        <pt x="344" y="574" on="1"/>
        <pt x="375" y="545" on="1"/>
        <pt x="438" y="476" on="0"/>
      </contour>
    </TTGlyph>
    <TTGlyph name="braceright" xMin="-3" yMin="-339" xMax="680" yMax="1512">
      <contour>
        <pt x="442" y="1154" on="0"/>
        <pt x="442" y="1292" on="0"/>
        <pt x="403" y="1350" on="0"/>
        <pt x="286" y="1429" on="0"/>
        <pt x="286" y="1512" on="0"/>
        <pt x="337" y="1512" on="1"/>
        <pt x="464" y="1512" on="0"/>
        <pt x="611" y="1391" on="0"/>
        <pt x="611" y="1266" on="1"/>
        <pt x="611" y="1198" on="0"/>
        <pt x="544" y="870" on="0"/>
        <pt x="544" y="725" on="0"/>
        <pt x="595" y="682" on="1"/>
        <pt x="680" y="610" on="0"/>
        <pt x="680" y="600" on="1"/>
        <pt x="680" y="553" on="0"/>
        <pt x="521" y="479" on="0"/>
        <pt x="485" y="399" on="1"/>
        <pt x="458" y="340" on="0"/>
        <pt x="404" y="-109" on="0"/>
        <pt x="351" y="-189" on="1"/>
        <pt x="252" y="-339" on="0"/>
        <pt x="64" y="-339" on="1"/>
        <pt x="40" y="-339" on="1"/>
        <pt x="-3" y="-339" on="0"/>
        <pt x="-3" y="-314" on="1"/>
        <pt x="-3" y="-263" on="0"/>
        <pt x="188" y="-167" on="0"/>
        <pt x="247" y="-41" on="0"/>
        <pt x="291" y="330" on="0"/>
        <pt x="342" y="459" on="0"/>
        <pt x="400" y="522" on="0"/>
        <pt x="481" y="583" on="0"/>
        <pt x="481" y="585" on="1"/>
        <pt x="480" y="592" on="0"/>
        <pt x="446" y="625" on="1"/>
        <pt x="378" y="691" on="0"/>
        <pt x="378" y="813" on="1"/>
        <pt x="378" y="868" on="0"/>
      </contour>
    </TTGlyph>
    <TTGlyph name="bracketleft" xMin="104" yMin="-336" xMax="810" yMax="1513">
      <contour>
        <pt x="810" y="1491" on="1"/>
        <pt x="810" y="1410" on="0"/>
        <pt x="582" y="1371" on="0"/>
        <pt x="580" y="1370" on="1"/>
        <pt x="540" y="1352" on="0"/>
        <pt x="497" y="1238" on="0"/>
        <pt x="294" y="-57" on="0"/>
        <pt x="294" y="-153" on="0"/>
        <pt x="342" y="-197" on="0"/>
        <pt x="470" y="-221" on="0"/>
        <pt x="520" y="-254" on="0"/>
        <pt x="520" y="-298" on="1"/>
        <pt x="520" y="-336" on="0"/>
        <pt x="436" y="-336" on="1"/>
        <pt x="284" y="-336" on="1"/>
        <pt x="168" y="-336" on="0"/>
        <pt x="104" y="-313" on="0"/>
        <pt x="104" y="-266" on="1"/>
        <pt x="104" y="-244" on="1"/>
        <pt x="104" y="-208" on="0"/>
        <pt x="350" y="1362" on="0"/>
        <pt x="388" y="1484" on="0"/>
        <pt x="434" y="1501" on="1"/>
        <pt x="464" y="1512" on="0"/>
        <pt x="633" y="1512" on="1"/>
        <pt x="736" y="1513" on="1"/>
        <pt x="810" y="1513" on="0"/>
      </contour>
    </TTGlyph>
</ttFont>
